<?xml version="1.0" encoding="UTF-8"?>
<!DOCTYPE svg PUBLIC "-//W3C//DTD SVG 1.1//EN" "http://www.w3.org/Graphics/SVG/1.1/DTD/svg11.dtd">
<!-- Creator: CorelDRAW 2017 -->
<svg xmlns="http://www.w3.org/2000/svg" xml:space="preserve" width="90mm" height="50mm" version="1.1" style="shape-rendering:geometricPrecision; text-rendering:geometricPrecision; image-rendering:optimizeQuality; fill-rule:evenodd; clip-rule:evenodd"
viewBox="0 0 9000 5000"
 xmlns:xlink="http://www.w3.org/1999/xlink">
 <defs>
  <style type="text/css">
   <![CDATA[
    .str0 {stroke:#A8CF45;stroke-width:7.62;stroke-miterlimit:22.9256}
    .fil0 {fill:#A8CF45}
    .fil3 {fill:#A8CF45}
    .fil2 {fill:#191B4D}
    .fil1 {fill:#1D1C56;fill-rule:nonzero}
   ]]>
  </style>
 </defs>
 <g id="Capa_x0020_1">
  <metadata id="CorelCorpID_0Corel-Layer"/>
  <g id="_1911752357632">
   <g>
    <rect class="fil0 str0" x="8035.99" y="2879.4" width="202.62" height="197.29"/>
    <rect class="fil0 str0" x="8275.46" y="2879.99" width="202.62" height="197.29"/>
    <rect class="fil0 str0" x="8502.65" y="2879.99" width="202.62" height="197.29"/>
    <path class="fil1" d="M2288.62 3025.88c0,14.84 -2.89,24.84 -8.66,30 -5.77,5.15 -16.19,7.73 -31.24,7.73l-98.65 0c-16.29,0 -27.01,-2.89 -32.16,-8.66 -5.16,-5.77 -7.74,-16.91 -7.74,-33.4l32.79 -6.8 0 18.86 112.88 0 0 -36.49 -99.59 0c-15.05,0 -25.41,-2.58 -31.08,-7.73 -5.67,-5.16 -8.5,-15.16 -8.5,-30l0 -17.63c0,-14.84 2.83,-24.84 8.5,-30 5.67,-5.15 16.03,-7.73 31.08,-7.73l90.62 0c15.25,0 25.67,2.63 31.23,7.89 5.57,5.26 8.35,15.41 8.35,30.46l-32.78 7.73 0 -18.24 -104.53 0 0 34.32 99.58 0c15.05,0 25.47,2.58 31.24,7.73 5.77,5.16 8.66,15.16 8.66,30l0 21.96z"/>
    <polygon id="1" class="fil1" points="2402.73,3063.61 2365.62,3063.61 2365.62,2904.03 2402.73,2904.03 "/>
    <path id="2" class="fil1" d="M2657.57 3025.88c0,14.84 -2.89,24.84 -8.66,30 -5.77,5.15 -16.19,7.73 -31.24,7.73l-98.65 0c-16.29,0 -27.01,-2.89 -32.16,-8.66 -5.16,-5.77 -7.74,-16.91 -7.74,-33.4l32.79 -6.8 0 18.86 112.88 0 0 -36.49 -99.59 0c-15.05,0 -25.41,-2.58 -31.08,-7.73 -5.67,-5.16 -8.5,-15.16 -8.5,-30l0 -17.63c0,-14.84 2.83,-24.84 8.5,-30 5.67,-5.15 16.03,-7.73 31.08,-7.73l90.62 0c15.25,0 25.67,2.63 31.23,7.89 5.57,5.26 8.35,15.41 8.35,30.46l-32.78 7.73 0 -18.24 -104.53 0 0 34.32 99.58 0c15.05,0 25.47,2.58 31.24,7.73 5.77,5.16 8.66,15.16 8.66,30l0 21.96z"/>
    <polygon id="3" class="fil1" points="2882.4,2932.48 2808.79,2932.48 2808.79,3063.61 2771.68,3063.61 2771.68,2932.48 2698.39,2932.48 2698.39,2904.03 2882.4,2904.03 "/>
    <polygon id="4" class="fil1" points="3092.7,3063.61 2927.86,3063.61 2927.86,2904.03 3091.15,2904.03 3091.15,2931.25 2964.97,2931.25 2964.97,2966.81 3038.58,2966.81 3038.58,2994.03 2964.97,2994.03 2964.97,3033.61 3092.7,3033.61 "/>
    <path id="5" class="fil1" d="M3369.48 3063.61l-34.32 0 0 -99.27c0,-3.51 0.41,-8.97 1.23,-16.39 -1.85,3.91 -4.94,9.48 -9.27,16.7l-60 79.79 -7.42 0 -60 -80.1c-4.33,-5.78 -7.52,-11.24 -9.59,-16.39 0.62,6.39 0.93,11.65 0.93,15.77l0 99.89 -30 0 0 -159.58 30 0 75.15 96.49 73.61 -96.49 29.68 0 0 159.58z"/>
    <path id="6" class="fil1" d="M3634.82 3063.61l-41.75 0 -19.17 -34.95 -101.13 0 -18.55 34.95 -37.11 0 90.3 -159.58 35.87 0 91.54 159.58zm-76.38 -63.71l-34.33 -64.94 -35.57 64.94 69.9 0z"/>
    <path id="7" class="fil1" d="M3999.75 2982.89c0,30.93 -11.75,53.71 -35.26,68.35 -13.4,8.25 -35.25,12.37 -65.56,12.37l-93.09 0 0 -159.58 102.68 0c27.62,0 49.27,6.19 64.94,18.56 17.53,13.6 26.29,33.71 26.29,60.3zm-38.35 -0.62c0,-33.19 -17.52,-49.79 -52.57,-49.79l-65.88 0 0 101.13 47.94 0c22.68,0 39.17,-2.88 49.48,-8.66 14.02,-7.83 21.03,-22.06 21.03,-42.68z"/>
    <polygon id="8" class="fil1" points="4232.62,3063.61 4067.78,3063.61 4067.78,2904.03 4231.07,2904.03 4231.07,2931.25 4104.89,2931.25 4104.89,2966.81 4178.5,2966.81 4178.5,2994.03 4104.89,2994.03 4104.89,3033.61 4232.62,3033.61 "/>
    <path id="9" class="fil1" d="M4591.97 3025.88c0,14.84 -2.83,24.84 -8.5,30 -5.67,5.15 -16.03,7.73 -31.08,7.73l-95.25 0c-15.05,0 -25.42,-2.58 -31.08,-7.73 -5.67,-5.16 -8.51,-15.16 -8.51,-30l0 -84.12c0,-14.84 2.84,-24.84 8.51,-30 5.66,-5.15 16.03,-7.73 31.08,-7.73l95.25 0c18.97,0 30.72,4.43 35.25,13.3 2.89,5.15 4.33,18.35 4.33,39.59l-37.11 5.87 0 -30.31 -100.2 0 0 101.13 100.2 0 0 -34.33 37.11 7.74 0 18.86z"/>
    <path id="10" class="fil1" d="M4861.96 3025.88c0,14.84 -2.84,24.84 -8.5,30 -5.67,5.15 -16.03,7.73 -31.09,7.73l-117.51 0c-15.05,0 -25.42,-2.58 -31.08,-7.73 -5.67,-5.16 -8.51,-15.16 -8.51,-30l0 -84.12c0,-14.84 2.84,-24.84 8.51,-30 5.66,-5.15 16.03,-7.73 31.08,-7.73l117.51 0c15.06,0 25.42,2.58 31.09,7.73 5.66,5.16 8.5,15.16 8.5,30l0 84.12zm-37.11 7.73l0 -101.13 -122.47 0 0 101.13 122.47 0z"/>
    <path id="11" class="fil1" d="M5127.61 3063.61l-25.36 0 -117.2 -98.65c-4.95,-4.13 -9.39,-8.46 -13.3,-12.99 1.03,10.31 1.54,18.45 1.54,24.43l0 87.21 -33.4 0 0 -159.58 25.36 0 112.26 94.02c8.04,6.8 14.13,12.57 18.25,17.32 -1.03,-14.85 -1.55,-24.02 -1.55,-27.53l0 -83.81 33.4 0 0 159.58z"/>
    <path id="12" class="fil1" d="M5382.14 3025.88c0,14.84 -2.89,24.84 -8.66,30 -5.77,5.15 -16.19,7.73 -31.24,7.73l-98.65 0c-16.29,0 -27.01,-2.89 -32.16,-8.66 -5.16,-5.77 -7.74,-16.91 -7.74,-33.4l32.79 -6.8 0 18.86 112.88 0 0 -36.49 -99.59 0c-15.05,0 -25.41,-2.58 -31.08,-7.73 -5.67,-5.16 -8.5,-15.16 -8.5,-30l0 -17.63c0,-14.84 2.83,-24.84 8.5,-30 5.67,-5.15 16.03,-7.73 31.08,-7.73l90.62 0c15.25,0 25.67,2.63 31.23,7.89 5.57,5.26 8.35,15.41 8.35,30.46l-32.78 7.73 0 -18.24 -104.53 0 0 34.32 99.58 0c15.05,0 25.47,2.58 31.24,7.73 5.77,5.16 8.66,15.16 8.66,30l0 21.96z"/>
    <polygon id="13" class="fil1" points="5606.97,2932.48 5533.36,2932.48 5533.36,3063.61 5496.25,3063.61 5496.25,2932.48 5422.96,2932.48 5422.96,2904.03 5606.97,2904.03 "/>
    <path id="14" class="fil1" d="M5841.7 3063.61l-53.19 0 -64.33 -60.31 -35.25 0 0 60.31 -36.5 0 0 -159.58 136.7 0c23.91,0 35.87,10.31 35.87,30.93l0 37.42c0,15.46 -6.19,25.05 -18.56,28.76 -4.74,1.44 -17.52,2.16 -38.34,2.16l73.6 60.31zm-52.57 -100.2l0 -19.17c0,-5.36 -1.55,-8.87 -4.64,-10.52 -2.27,-1.44 -6.29,-2.16 -12.06,-2.16l-83.5 0 0 44.53 83.5 0c5.77,0 9.79,-0.72 12.06,-2.17 3.09,-1.64 4.64,-5.15 4.64,-10.51z"/>
    <path id="15" class="fil1" d="M6080.45 3025.88c0,14.84 -2.83,24.84 -8.5,30 -5.67,5.15 -16.03,7.73 -31.08,7.73l-100.82 0c-15.05,0 -25.41,-2.58 -31.08,-7.73 -5.67,-5.16 -8.51,-15.16 -8.51,-30l0 -121.85 37.11 0 0 129.58 105.77 0 0 -129.58 37.11 0 0 121.85z"/>
    <path id="16" class="fil1" d="M6333.11 3025.88c0,14.84 -2.83,24.84 -8.5,30 -5.67,5.15 -16.03,7.73 -31.08,7.73l-95.25 0c-15.05,0 -25.42,-2.58 -31.08,-7.73 -5.67,-5.16 -8.51,-15.16 -8.51,-30l0 -84.12c0,-14.84 2.84,-24.84 8.51,-30 5.66,-5.15 16.03,-7.73 31.08,-7.73l95.25 0c18.97,0 30.72,4.43 35.25,13.3 2.89,5.15 4.33,18.35 4.33,39.59l-37.11 5.87 0 -30.31 -100.2 0 0 101.13 100.2 0 0 -34.33 37.11 7.74 0 18.86z"/>
    <path id="17" class="fil1" d="M6580.83 3025.88c0,14.84 -2.83,24.84 -8.5,30 -5.67,5.15 -16.03,7.73 -31.08,7.73l-95.25 0c-15.05,0 -25.42,-2.58 -31.08,-7.73 -5.67,-5.16 -8.51,-15.16 -8.51,-30l0 -84.12c0,-14.84 2.84,-24.84 8.51,-30 5.66,-5.15 16.03,-7.73 31.08,-7.73l95.25 0c18.97,0 30.72,4.43 35.25,13.3 2.89,5.15 4.33,18.35 4.33,39.59l-37.11 5.87 0 -30.31 -100.2 0 0 101.13 100.2 0 0 -34.33 37.11 7.74 0 18.86z"/>
    <polygon id="18" class="fil1" points="6694.64,3063.61 6657.53,3063.61 6657.53,2904.03 6694.64,2904.03 "/>
    <path id="19" class="fil1" d="M6969.58 3025.88c0,14.84 -2.84,24.84 -8.5,30 -5.67,5.15 -16.03,7.73 -31.09,7.73l-117.51 0c-15.05,0 -25.42,-2.58 -31.08,-7.73 -5.67,-5.16 -8.51,-15.16 -8.51,-30l0 -84.12c0,-14.84 2.84,-24.84 8.51,-30 5.66,-5.15 16.03,-7.73 31.08,-7.73l117.51 0c15.06,0 25.42,2.58 31.09,7.73 5.66,5.16 8.5,15.16 8.5,30l0 84.12zm-37.11 7.73l0 -101.13 -122.47 0 0 101.13 122.47 0zm-19.18 -198.85l-44.53 52.26 -19.79 0 30.92 -52.26 33.4 0z"/>
    <path id="20" class="fil1" d="M7235.23 3063.61l-25.36 0 -117.2 -98.65c-4.95,-4.13 -9.39,-8.46 -13.3,-12.99 1.03,10.31 1.54,18.45 1.54,24.43l0 87.21 -33.4 0 0 -159.58 25.36 0 112.26 94.02c8.04,6.8 14.13,12.57 18.25,17.32 -1.03,-14.85 -1.55,-24.02 -1.55,-27.53l0 -83.81 33.4 0 0 159.58z"/>
    <polygon id="21" class="fil1" points="7601.09,3063.61 7436.25,3063.61 7436.25,2904.03 7599.54,2904.03 7599.54,2931.25 7473.36,2931.25 7473.36,2966.81 7546.97,2966.81 7546.97,2994.03 7473.36,2994.03 7473.36,3033.61 7601.09,3033.61 "/>
    <path id="22" class="fil1" d="M7857.15 3063.61l-25.36 0 -117.2 -98.65c-4.95,-4.13 -9.39,-8.46 -13.3,-12.99 1.03,10.31 1.54,18.45 1.54,24.43l0 87.21 -33.4 0 0 -159.58 25.36 0 112.26 94.02c8.04,6.8 14.13,12.57 18.25,17.32 -1.03,-14.85 -1.55,-24.02 -1.55,-27.53l0 -83.81 33.4 0 0 159.58z"/>
    <polygon id="23" class="fil1" points="8223.01,3063.61 8058.17,3063.61 8058.17,2904.03 8221.46,2904.03 8221.46,2931.25 8095.28,2931.25 8095.28,2966.81 8168.89,2966.81 8168.89,2994.03 8095.28,2994.03 8095.28,3033.61 8223.01,3033.61 "/>
    <path id="24" class="fil1" d="M8464.23 2970.52c0,20.62 -11.96,30.93 -35.87,30.93l-100.2 0 0 62.16 -36.5 0 0 -159.58 136.7 0c23.91,0 35.87,10.31 35.87,30.93l0 35.56zm-35.87 -9.28l0 -17c0,-5.36 -1.55,-8.87 -4.64,-10.52 -2.27,-1.44 -6.29,-2.16 -12.06,-2.16l-83.5 0 0 42.36 83.5 0c5.77,0 9.79,-0.72 12.06,-2.16 3.09,-1.65 4.64,-5.15 4.64,-10.52z"/>
    <path id="25" class="fil1" d="M8694.63 3025.88c0,14.84 -2.89,24.84 -8.66,30 -5.77,5.15 -16.19,7.73 -31.24,7.73l-98.65 0c-16.29,0 -27.01,-2.89 -32.16,-8.66 -5.16,-5.77 -7.74,-16.91 -7.74,-33.4l32.79 -6.8 0 18.86 112.88 0 0 -36.49 -99.59 0c-15.05,0 -25.41,-2.58 -31.08,-7.73 -5.67,-5.16 -8.5,-15.16 -8.5,-30l0 -17.63c0,-14.84 2.83,-24.84 8.5,-30 5.67,-5.15 16.03,-7.73 31.08,-7.73l90.62 0c15.25,0 25.67,2.63 31.23,7.89 5.57,5.26 8.35,15.41 8.35,30.46l-32.78 7.73 0 -18.24 -104.53 0 0 34.32 99.58 0c15.05,0 25.47,2.58 31.24,7.73 5.77,5.16 8.66,15.16 8.66,30l0 21.96z"/>
   </g>
   <path class="fil1" d="M2583.62 2591.53c0,39.71 -7.58,66.46 -22.75,80.25 -15.17,13.79 -42.88,20.68 -83.14,20.68l-254.8 0c-40.26,0 -67.97,-6.89 -83.14,-20.68 -15.17,-13.79 -22.75,-40.54 -22.75,-80.25l0 -225.01c0,-39.71 7.58,-66.46 22.75,-80.25 15.17,-13.79 42.88,-20.68 83.14,-20.68l254.8 0c50.74,0 82.17,11.86 94.31,35.57 7.72,13.79 11.58,49.09 11.58,105.89l-99.27 15.72 0 -81.07 -268.04 0 0 270.51 268.04 0 0 -91.82 99.27 20.68 0 50.46z"/>
   <path id="1" class="fil1" d="M3209.77 2591.53c0,39.71 -7.58,66.46 -22.75,80.25 -15.16,13.79 -42.88,20.68 -83.14,20.68l-314.36 0c-40.26,0 -67.97,-6.89 -83.14,-20.68 -15.17,-13.79 -22.75,-40.54 -22.75,-80.25l0 -225.01c0,-39.71 7.58,-66.46 22.75,-80.25 15.17,-13.79 42.88,-20.68 83.14,-20.68l314.36 0c40.26,0 67.98,6.89 83.14,20.68 15.17,13.79 22.75,40.54 22.75,80.25l0 225.01zm-99.27 20.68l0 -270.51 -327.6 0 0 270.51 327.6 0z"/>
   <path id="2" class="fil1" d="M3824.35 2692.46l-67.84 0 -313.54 -263.9c-13.23,-11.03 -25.09,-22.61 -35.57,-34.74 2.76,27.57 4.14,49.36 4.14,65.35l0 233.29 -89.35 0 0 -426.87 67.84 0 300.3 251.49c21.51,18.2 37.78,33.64 48.81,46.33 -2.76,-39.71 -4.14,-64.26 -4.14,-73.63l0 -224.19 89.35 0 0 426.87z"/>
   <path id="3" class="fil1" d="M4409.14 2591.53c0,39.71 -7.72,66.46 -23.16,80.25 -15.45,13.79 -43.3,20.68 -83.56,20.68l-263.9 0c-43.57,0 -72.24,-7.72 -86.03,-23.16 -13.79,-15.45 -20.68,-45.23 -20.68,-89.35l87.69 -18.2 0 50.46 301.95 0 0 -97.61 -266.38 0c-40.26,0 -67.97,-6.9 -83.14,-20.68 -15.17,-13.79 -22.75,-40.54 -22.75,-80.25l0 -47.15c0,-39.71 7.58,-66.46 22.75,-80.25 15.17,-13.79 42.88,-20.68 83.14,-20.68l242.39 0c40.81,0 68.66,7.03 83.55,21.09 14.89,14.07 22.34,41.23 22.34,81.49l-87.69 20.68 0 -48.81 -279.62 0 0 91.83 266.38 0c40.26,0 68.11,6.89 83.56,20.68 15.44,13.79 23.16,40.54 23.16,80.25l0 58.73z"/>
   <polygon id="4" class="fil1" points="4914.51,2341.7 4717.62,2341.7 4717.62,2692.46 4618.35,2692.46 4618.35,2341.7 4422.29,2341.7 4422.29,2265.59 4914.51,2265.59 "/>
   <path id="5" class="fil1" d="M5446.36 2692.46l-142.29 0 -172.07 -161.32 -94.31 0 0 161.32 -97.62 0 0 -426.87 365.65 0c63.98,0 95.97,27.57 95.97,82.73l0 100.1c0,41.36 -16.55,67 -49.64,76.93 -12.68,3.86 -46.88,5.79 -102.58,5.79l196.89 161.32zm-140.64 -268.04l0 -51.29c0,-14.34 -4.13,-23.71 -12.41,-28.12 -6.06,-3.86 -16.82,-5.79 -32.26,-5.79l-223.36 0 0 119.12 223.36 0c15.44,0 26.2,-1.93 32.26,-5.79 8.28,-4.41 12.41,-13.79 12.41,-28.13z"/>
   <path id="6" class="fil1" d="M5988.96 2591.53c0,39.71 -7.58,66.46 -22.75,80.25 -15.17,13.79 -42.88,20.68 -83.14,20.68l-269.69 0c-40.26,0 -67.97,-6.89 -83.14,-20.68 -15.17,-13.79 -22.75,-40.54 -22.75,-80.25l0 -325.94 99.27 0 0 346.62 282.93 0 0 -346.62 99.27 0 0 325.94z"/>
   <path id="7" class="fil1" d="M6572.93 2443.45c0,55.15 -31.99,82.73 -95.97,82.73l-268.03 0 0 166.28 -97.62 0 0 -426.87 365.65 0c63.98,0 95.97,27.57 95.97,82.73l0 95.13zm-95.97 -24.82l0 -45.5c0,-14.34 -4.13,-23.71 -12.41,-28.12 -6.06,-3.86 -16.82,-5.79 -32.26,-5.79l-223.36 0 0 113.33 223.36 0c15.44,0 26.2,-1.93 32.26,-5.79 8.28,-4.41 12.41,-13.79 12.41,-28.13z"/>
   <path id="8" class="fil1" d="M7084.09 2692.46l-111.68 0 -51.29 -93.48 -270.52 0 -49.64 93.48 -99.27 0 241.56 -426.87 95.97 0 244.87 426.87zm-204.34 -170.42l-91.82 -173.72 -95.14 173.72 186.96 0z"/>
   <path id="9" class="fil1" d="M7626.7 2692.46l-67.84 0 -313.54 -263.9c-13.23,-11.03 -25.09,-22.61 -35.57,-34.74 2.76,27.57 4.14,49.36 4.14,65.35l0 233.29 -89.35 0 0 -426.87 67.84 0 300.3 251.49c21.51,18.2 37.78,33.64 48.81,46.33 -2.76,-39.71 -4.14,-64.26 -4.14,-73.63l0 -224.19 89.35 0 0 426.87z"/>
   <polygon id="10" class="fil1" points="8189.15,2692.46 7748.22,2692.46 7748.22,2265.59 8185.02,2265.59 8185.02,2338.39 7847.49,2338.39 7847.49,2433.52 8044.38,2433.52 8044.38,2506.32 7847.49,2506.32 7847.49,2612.21 8189.15,2612.21 "/>
   <polygon id="11" class="fil1" points="8696.19,2692.46 8276.76,2692.46 8276.76,2265.59 8376.03,2265.59 8376.03,2612.21 8696.19,2612.21 "/>
   <g>
    <path class="fil2" d="M384.83 2252.49c18.35,17.31 51.53,29.82 75.62,41.55 287.03,139.6 190.07,140.2 402.26,36.02 26.19,-12.86 144.19,-64.19 155.48,-84.65 -28.79,-22.3 -118.46,-64.03 -152.4,-80.67 -222.85,-109.24 -97.46,-107.66 -441.83,58.41 -18.57,8.96 -28.49,12.12 -39.13,29.34z"/>
    <path class="fil2" d="M794.3 2453.71c8.45,14.21 3.9,14.64 36.6,30.2 14.7,7 24.91,11.24 38.37,17.39 44.92,20.52 222.49,114.65 247.79,112.93 22.09,-1.49 301.21,-140.15 318.94,-157.36 -26.62,-15.84 -297.15,-160.94 -317.92,-160.36 -27.95,0.8 -272.65,139.99 -323.78,157.2z"/>
    <path class="fil2" d="M799.54 2040.21c11.94,17.38 125.79,67.4 153.37,80.22 203.58,94.73 123.15,99.83 319.58,3.46l159.57 -83.68c-13.53,-18.77 -288.18,-163.16 -313.04,-161.49 -16.79,1.13 -297.58,142.95 -319.48,161.49z"/>
    <path class="fil3 str0" d="M1215.6 2238.25c19.46,35.4 34.92,23.54 70.97,44.61l236.15 116.92c17.94,1.27 148.74,-64.46 178.48,-80.16l54.52 -30.05c27.94,-14.46 53.33,-23.42 81.55,-37.08 -7.48,-32.75 -32.65,-31.11 -64.6,-46.86l-110.57 -64.69c-10.71,-4.54 -28.11,-9.85 -44.08,-15.58 -40.95,-14.7 -33.15,-37.5 -82.9,-38.98 -41.61,-1.25 -222.27,101.51 -273.8,131.8 -18.64,10.94 -29.61,12.49 -45.72,20.07z"/>
    <path class="fil2" d="M784.84 2634.45c57.96,23.29 298.17,150.35 325.84,150.13 17.91,-0.13 302.8,-141.62 322.1,-160.86 12.64,-32.5 4.97,-92.71 6.39,-134.58 -73.33,11.74 -288.49,151.35 -328.08,150.77 -43.68,-0.63 -263.14,-141.75 -324.49,-145.93l-1.76 140.47z"/>
    <path class="fil2" d="M785.3 2662.97l-2.28 134.35c30.5,21.61 305.78,157.05 327.42,156.16 23.77,-0.97 288.94,-143.91 325.25,-162.92l3.22 -137.97c-57.55,10.26 -294.71,153.26 -323.16,157.14 -36.8,5.03 -267.35,-137.55 -330.45,-146.76z"/>
    <path class="fil2" d="M780.77 2834.6l2.01 132.58c21.65,18.24 306.3,156.39 327.36,155.19 13.82,-0.78 305.21,-150.94 324.1,-163.22l1.31 -133.05c-47.09,6.16 -288.04,148.43 -319.61,153.43 -42.22,6.68 -254.1,-130.29 -335.17,-144.93z"/>
    <path class="fil2" d="M380.53 2415.24c14.49,24.68 51.5,33.25 76.56,45.67 25.31,12.56 54.61,28.81 78.13,41.08 32.73,17.08 135,72.93 162.81,74.62l1.73 -133.06c-20.36,-16.42 -116.99,-60.31 -154.07,-79.76 -42.23,-22.16 -48.08,-11.39 -86.25,8.36 -27.07,14 -56.81,25.05 -78.91,43.09z"/>
    <path class="fil2" d="M379.55 2585.06c16.98,21.76 40.3,28.29 71.62,43.87 58.25,29 196.51,107.4 244.85,115.91l1.02 -135.3c-48.91,-24.78 -103.33,-51.55 -156.75,-77.47 -40.12,-19.48 -42.6,-10.57 -81,9.49 -24.98,13.05 -58.2,24.51 -79.74,43.5z"/>
    <path class="fil2" d="M378.09 2754.89c9.05,9.64 0.69,3.6 17.17,15.02l135.65 69.35c29.27,14.57 132.92,70.49 163.06,73.48 1.02,-50.61 11.46,-120.61 -11.57,-140.08 -7.9,-6.68 -84.34,-41.26 -99.53,-49.24 -75.45,-39.65 -71.35,-44.03 -177.08,12.37l-27.7 19.1z"/>
    <path class="fil3 str0" d="M1533.56 2559.18c37.55,14.67 232.89,-113.78 301.18,-142.26 -16.98,-38.32 -48.56,-45.88 -86.55,-60.48 -51.85,-19.92 -75,4.34 -112.14,24.94 -107.32,59.52 -112.16,18.74 -108.61,140.42l4.33 31.8c0.32,1.39 1,3.79 1.79,5.58z"/>
    <path class="fil3 str0" d="M1528.61 2606.29l-0.71 132.75c27.69,-1.03 54.35,-23.79 81.37,-36.83l178.25 -91.5c70.21,-29.82 22.59,-10.87 57.02,-37.96 -116.51,-47.42 -103.13,-75 -163.82,-47.33l-37.69 18.93c-11.09,7.18 -22.05,16.2 -33.41,21.97 -32.81,16.64 -47.2,16.07 -81.01,39.97z"/>
    <path class="fil3 str0" d="M1529.2 2769.12l-2.83 131.65c51.84,-5.11 152.62,-70.79 196.67,-91.66 30.95,-14.66 82.49,-32.87 115.8,-61.8 -14.62,-13.82 -46.71,-30.72 -65.77,-39.37 -81.62,-37.03 -73.59,-18.5 -161.15,23.31l-82.72 37.87z"/>
   </g>
  </g>
 </g>
</svg>
