<?xml version="1.0" encoding="UTF-8"?>
<!DOCTYPE svg PUBLIC "-//W3C//DTD SVG 1.1//EN" "http://www.w3.org/Graphics/SVG/1.1/DTD/svg11.dtd">
<!-- Creator: CorelDRAW 2017 -->
<svg xmlns="http://www.w3.org/2000/svg" xml:space="preserve" width="90mm" height="50mm" version="1.1" style="shape-rendering:geometricPrecision; text-rendering:geometricPrecision; image-rendering:optimizeQuality; fill-rule:evenodd; clip-rule:evenodd"
viewBox="0 0 9000 5000"
 xmlns:xlink="http://www.w3.org/1999/xlink">
 <defs>
  <style type="text/css">
   <![CDATA[
    .str0 {stroke:#A8CF45;stroke-width:7.62;stroke-miterlimit:22.9256}
    .fil2 {fill:#A8CF45}
    .fil1 {fill:#A8CF45}
    .fil0 {fill:#191B4D}
    .fil3 {fill:#1D1C56;fill-rule:nonzero}
   ]]>
  </style>
 </defs>
 <g id="Capa_x0020_1">
  <metadata id="CorelCorpID_0Corel-Layer"/>
  <g id="_1911930501344">
   <g>
    <path class="fil0" d="M3001.38 1151.09c39.08,36.85 109.71,63.49 161,88.45 611.09,297.22 404.67,298.49 856.42,76.69 55.75,-27.36 306.97,-136.65 331.01,-180.21 -61.28,-47.49 -252.2,-136.33 -324.46,-171.76 -474.44,-232.57 -207.49,-229.21 -940.64,124.36 -39.56,19.08 -60.68,25.8 -83.33,62.47z"/>
    <path class="fil0" d="M3873.15 1579.49c17.98,30.24 8.3,31.17 77.93,64.3 31.3,14.89 53.02,23.93 81.69,37.03 95.62,43.68 473.67,244.09 527.55,240.42 47.03,-3.18 641.27,-298.37 679.01,-335.03 -56.67,-33.72 -632.62,-342.64 -676.86,-341.4 -59.5,1.69 -580.47,298.04 -689.32,334.68z"/>
    <path class="fil0" d="M3884.32 699.15c25.41,37.01 267.81,143.5 326.51,170.79 433.42,201.67 262.2,212.53 680.39,7.37l339.73 -178.16c-28.81,-39.97 -613.55,-347.38 -666.46,-343.82 -35.75,2.42 -633.55,304.35 -680.17,343.82z"/>
    <path class="fil1 str0" d="M4770.1 1120.77c41.43,75.38 74.34,50.13 151.11,94.97l502.76 248.93c38.19,2.7 316.67,-137.24 379.98,-170.66l116.08 -63.98c59.48,-30.79 113.54,-49.86 173.61,-78.94 -15.93,-69.73 -69.52,-66.24 -137.52,-99.76l-235.41 -137.74c-22.81,-9.66 -59.86,-20.96 -93.86,-33.17 -87.17,-31.3 -70.57,-79.82 -176.49,-82.98 -88.59,-2.66 -473.21,216.11 -582.93,280.6 -39.68,23.3 -63.04,26.6 -97.33,42.73z"/>
    <path class="fil0" d="M3853.02 1964.28c123.4,49.59 634.79,320.1 693.71,319.64 38.13,-0.28 644.67,-301.52 685.75,-342.48 26.9,-69.2 10.59,-197.38 13.61,-286.53 -156.13,25 -614.2,322.24 -698.49,321.01 -92.99,-1.35 -560.22,-301.79 -690.84,-310.71l-3.74 299.07z"/>
    <path class="fil0" d="M3854 2024.99l-4.86 286.05c64.93,45.99 651,334.35 697.07,332.47 50.61,-2.07 615.17,-306.39 692.46,-346.87l6.87 -293.75c-122.52,21.85 -627.44,326.32 -688.01,334.57 -78.35,10.69 -569.19,-292.86 -703.53,-312.47z"/>
    <path class="fil0" d="M3844.36 2390.4l4.27 282.27c46.1,38.82 652.1,332.95 696.94,330.4 29.43,-1.67 649.79,-321.34 690.02,-347.5l2.78 -283.27c-100.25,13.11 -613.23,316.03 -680.43,326.67 -89.89,14.21 -540.99,-277.4 -713.58,-308.57z"/>
    <path class="fil0" d="M2992.24 1497.58c30.85,52.55 109.64,70.78 162.98,97.24 53.9,26.75 116.28,61.34 166.35,87.46 69.68,36.37 287.42,155.26 346.63,158.87l3.67 -283.28c-43.35,-34.97 -249.07,-128.42 -328,-169.82 -89.91,-47.17 -102.37,-24.25 -183.63,17.79 -57.63,29.82 -120.96,53.35 -168,91.74z"/>
    <path class="fil0" d="M2990.15 1859.14c36.14,46.32 85.8,60.21 152.47,93.4 124.02,61.72 418.38,228.64 521.29,246.77l2.18 -288.07c-104.13,-52.74 -220,-109.73 -333.72,-164.92 -85.42,-41.48 -90.69,-22.51 -172.45,20.21 -53.18,27.77 -123.91,52.17 -169.77,92.61z"/>
    <path class="fil0" d="M2987.04 2220.7c19.27,20.52 1.48,7.67 36.55,31.98l288.8 147.64c62.31,31.04 283,150.07 347.16,156.44 2.18,-107.73 24.4,-256.77 -24.64,-298.23 -16.81,-14.22 -179.55,-87.85 -211.9,-104.84 -160.62,-84.41 -151.9,-93.73 -377,26.35l-58.97 40.66z"/>
    <path class="fil1 str0" d="M5447.05 1804.04c79.93,31.22 495.81,-242.24 641.22,-302.88 -36.16,-81.58 -103.4,-97.67 -184.27,-128.75 -110.39,-42.42 -159.7,9.23 -238.75,53.09 -228.48,126.71 -238.79,39.89 -231.24,298.95l9.21 67.7c0.7,2.97 2.14,8.08 3.83,11.89z"/>
    <path class="fil1 str0" d="M5436.5 1904.34l-1.51 282.63c58.96,-2.21 115.71,-50.66 173.25,-78.42l379.49 -194.8c149.47,-63.5 48.08,-23.15 121.39,-80.82 -248.06,-100.96 -219.57,-159.67 -348.78,-100.78l-80.23 40.32c-23.62,15.29 -46.94,34.48 -71.14,46.76 -69.84,35.43 -100.48,34.22 -172.47,85.11z"/>
    <path class="fil1 str0" d="M5437.76 2251l-6.03 280.28c110.37,-10.89 324.94,-150.71 418.71,-195.14 65.89,-31.2 175.62,-69.98 246.54,-131.58 -31.12,-29.43 -99.44,-65.4 -140.03,-83.82 -173.75,-78.83 -156.67,-39.38 -343.07,49.62l-176.12 80.64z"/>
   </g>
   <g>
    <rect class="fil2 str0" x="7929.95" y="4199.14" width="261.41" height="254.53"/>
    <rect class="fil2 str0" x="8238.89" y="4199.89" width="261.41" height="254.53"/>
    <rect class="fil2 str0" x="8532" y="4199.89" width="261.41" height="254.53"/>
    <path class="fil3" d="M515.06 4388.12c0,19.15 -3.72,32.06 -11.17,38.71 -7.45,6.65 -20.88,9.97 -40.3,9.97l-127.28 0c-21.01,0 -34.84,-3.72 -41.49,-11.17 -6.65,-7.45 -9.98,-21.81 -9.98,-43.09l42.3 -8.78 0 24.34 145.63 0 0 -47.08 -128.48 0c-19.41,0 -32.78,-3.33 -40.1,-9.98 -7.31,-6.65 -10.97,-19.55 -10.97,-38.7l0 -22.74c0,-19.15 3.66,-32.05 10.97,-38.7 7.32,-6.65 20.69,-9.98 40.1,-9.98l116.91 0c19.68,0 33.11,3.39 40.3,10.18 7.18,6.78 10.77,19.88 10.77,39.3l-42.29 9.97 0 -23.54 -134.86 0 0 44.29 128.47 0c19.42,0 32.85,3.32 40.3,9.97 7.45,6.65 11.17,19.55 11.17,38.7l0 28.33z"/>
    <polygon id="1" class="fil3" points="662.29,4436.8 614.41,4436.8 614.41,4230.92 662.29,4230.92 "/>
    <path id="2" class="fil3" d="M991.05 4388.12c0,19.15 -3.72,32.06 -11.17,38.71 -7.45,6.65 -20.88,9.97 -40.3,9.97l-127.28 0c-21.01,0 -34.84,-3.72 -41.49,-11.17 -6.65,-7.45 -9.98,-21.81 -9.98,-43.09l42.3 -8.78 0 24.34 145.63 0 0 -47.08 -128.48 0c-19.41,0 -32.78,-3.33 -40.1,-9.98 -7.31,-6.65 -10.97,-19.55 -10.97,-38.7l0 -22.74c0,-19.15 3.66,-32.05 10.97,-38.7 7.32,-6.65 20.69,-9.98 40.1,-9.98l116.91 0c19.68,0 33.11,3.39 40.3,10.18 7.18,6.78 10.77,19.88 10.77,39.3l-42.29 9.97 0 -23.54 -134.86 0 0 44.29 128.47 0c19.42,0 32.85,3.32 40.3,9.97 7.45,6.65 11.17,19.55 11.17,38.7l0 28.33z"/>
    <polygon id="3" class="fil3" points="1281.11,4267.63 1186.15,4267.63 1186.15,4436.8 1138.28,4436.8 1138.28,4267.63 1043.71,4267.63 1043.71,4230.92 1281.11,4230.92 "/>
    <polygon id="4" class="fil3" points="1552.43,4436.8 1339.77,4436.8 1339.77,4230.92 1550.43,4230.92 1550.43,4266.03 1387.65,4266.03 1387.65,4311.92 1482.61,4311.92 1482.61,4347.03 1387.65,4347.03 1387.65,4398.1 1552.43,4398.1 "/>
    <path id="5" class="fil3" d="M1909.53 4436.8l-44.29 0 0 -128.08c0,-4.52 0.53,-11.57 1.6,-21.14 -2.4,5.05 -6.39,12.23 -11.97,21.54l-77.41 102.94 -9.57 0 -77.41 -103.34c-5.58,-7.44 -9.71,-14.49 -12.37,-21.14 0.8,8.24 1.2,15.03 1.2,20.35l0 128.87 -38.7 0 0 -205.88 38.7 0 96.95 124.49 94.96 -124.49 38.31 0 0 205.88z"/>
    <path id="6" class="fil3" d="M2251.86 4436.8l-53.87 0 -24.74 -45.09 -130.47 0 -23.93 45.09 -47.88 0 116.5 -205.88 46.28 0 118.11 205.88zm-98.55 -82.19l-44.29 -83.79 -45.89 83.79 90.18 0z"/>
    <path id="7" class="fil3" d="M2722.66 4332.66c0,39.9 -15.16,69.29 -45.48,88.18 -17.29,10.64 -45.49,15.96 -84.59,15.96l-120.09 0 0 -205.88 132.46 0c35.64,0 63.57,7.98 83.79,23.94 22.61,17.56 33.91,43.49 33.91,77.8zm-49.47 -0.79c0,-42.83 -22.61,-64.24 -67.83,-64.24l-84.98 0 0 130.47 61.84 0c29.26,0 50.54,-3.73 63.84,-11.17 18.08,-10.11 27.13,-28.47 27.13,-55.06z"/>
    <polygon id="8" class="fil3" points="3023.1,4436.8 2810.44,4436.8 2810.44,4230.92 3021.1,4230.92 3021.1,4266.03 2858.32,4266.03 2858.32,4311.92 2953.28,4311.92 2953.28,4347.03 2858.32,4347.03 2858.32,4398.1 3023.1,4398.1 "/>
    <path id="9" class="fil3" d="M3486.73 4388.12c0,19.15 -3.66,32.06 -10.97,38.71 -7.32,6.65 -20.69,9.97 -40.1,9.97l-122.89 0c-19.42,0 -32.79,-3.32 -40.1,-9.97 -7.31,-6.65 -10.97,-19.56 -10.97,-38.71l0 -108.52c0,-19.15 3.66,-32.05 10.97,-38.7 7.31,-6.65 20.68,-9.98 40.1,-9.98l122.89 0c24.47,0 39.63,5.72 45.48,17.16 3.73,6.65 5.59,23.67 5.59,51.07l-47.88 7.58 0 -39.1 -129.27 0 0 130.47 129.27 0 0 -44.29 47.88 9.97 0 24.34z"/>
    <path id="10" class="fil3" d="M3835.05 4388.12c0,19.15 -3.66,32.06 -10.98,38.71 -7.31,6.65 -20.68,9.97 -40.1,9.97l-151.61 0c-19.42,0 -32.79,-3.32 -40.1,-9.97 -7.31,-6.65 -10.97,-19.56 -10.97,-38.71l0 -108.52c0,-19.15 3.66,-32.05 10.97,-38.7 7.31,-6.65 20.68,-9.98 40.1,-9.98l151.61 0c19.42,0 32.79,3.33 40.1,9.98 7.32,6.65 10.98,19.55 10.98,38.7l0 108.52zm-47.88 9.98l0 -130.47 -158 0 0 130.47 158 0z"/>
    <path id="11" class="fil3" d="M4177.77 4436.8l-32.71 0 -151.22 -127.28c-6.38,-5.32 -12.1,-10.9 -17.16,-16.76 1.33,13.3 2,23.81 2,31.52l0 112.52 -43.09 0 0 -205.88 32.71 0 144.84 121.29c10.37,8.78 18.22,16.23 23.54,22.35 -1.33,-19.15 -2,-30.99 -2,-35.51l0 -108.13 43.09 0 0 205.88z"/>
    <path id="12" class="fil3" d="M4506.14 4388.12c0,19.15 -3.72,32.06 -11.17,38.71 -7.45,6.65 -20.88,9.97 -40.3,9.97l-127.28 0c-21.01,0 -34.84,-3.72 -41.49,-11.17 -6.65,-7.45 -9.98,-21.81 -9.98,-43.09l42.3 -8.78 0 24.34 145.63 0 0 -47.08 -128.48 0c-19.41,0 -32.78,-3.33 -40.1,-9.98 -7.31,-6.65 -10.97,-19.55 -10.97,-38.7l0 -22.74c0,-19.15 3.66,-32.05 10.97,-38.7 7.32,-6.65 20.69,-9.98 40.1,-9.98l116.91 0c19.68,0 33.11,3.39 40.3,10.18 7.18,6.78 10.77,19.88 10.77,39.3l-42.29 9.97 0 -23.54 -134.86 0 0 44.29 128.47 0c19.42,0 32.85,3.32 40.3,9.97 7.45,6.65 11.17,19.55 11.17,38.7l0 28.33z"/>
    <polygon id="13" class="fil3" points="4796.2,4267.63 4701.24,4267.63 4701.24,4436.8 4653.37,4436.8 4653.37,4267.63 4558.8,4267.63 4558.8,4230.92 4796.2,4230.92 "/>
    <path id="14" class="fil3" d="M5099.04 4436.8l-68.63 0 -82.99 -77.8 -45.48 0 0 77.8 -47.08 0 0 -205.88 176.35 0c30.86,0 46.28,13.3 46.28,39.9l0 48.28c0,19.95 -7.98,32.32 -23.94,37.1 -6.11,1.87 -22.61,2.8 -49.47,2.8l94.96 77.8zm-67.83 -129.27l0 -24.74c0,-6.92 -1.99,-11.44 -5.98,-13.57 -2.93,-1.86 -8.12,-2.79 -15.57,-2.79l-107.72 0 0 57.46 107.72 0c7.45,0 12.64,-0.94 15.57,-2.8 3.99,-2.13 5.98,-6.65 5.98,-13.56z"/>
    <path id="15" class="fil3" d="M5407.06 4388.12c0,19.15 -3.66,32.06 -10.97,38.71 -7.32,6.65 -20.68,9.97 -40.1,9.97l-130.07 0c-19.42,0 -32.79,-3.32 -40.1,-9.97 -7.32,-6.65 -10.97,-19.56 -10.97,-38.71l0 -157.2 47.88 0 0 167.18 136.45 0 0 -167.18 47.88 0 0 157.2z"/>
    <path id="16" class="fil3" d="M5733.04 4388.12c0,19.15 -3.66,32.06 -10.97,38.71 -7.32,6.65 -20.69,9.97 -40.1,9.97l-122.89 0c-19.42,0 -32.79,-3.32 -40.1,-9.97 -7.31,-6.65 -10.97,-19.56 -10.97,-38.71l0 -108.52c0,-19.15 3.66,-32.05 10.97,-38.7 7.31,-6.65 20.68,-9.98 40.1,-9.98l122.89 0c24.47,0 39.63,5.72 45.48,17.16 3.73,6.65 5.59,23.67 5.59,51.07l-47.88 7.58 0 -39.1 -129.27 0 0 130.47 129.27 0 0 -44.29 47.88 9.97 0 24.34z"/>
    <path id="17" class="fil3" d="M6052.63 4388.12c0,19.15 -3.66,32.06 -10.97,38.71 -7.32,6.65 -20.69,9.97 -40.1,9.97l-122.89 0c-19.42,0 -32.79,-3.32 -40.1,-9.97 -7.31,-6.65 -10.97,-19.56 -10.97,-38.71l0 -108.52c0,-19.15 3.66,-32.05 10.97,-38.7 7.31,-6.65 20.68,-9.98 40.1,-9.98l122.89 0c24.47,0 39.63,5.72 45.48,17.16 3.73,6.65 5.59,23.67 5.59,51.07l-47.88 7.58 0 -39.1 -129.27 0 0 130.47 129.27 0 0 -44.29 47.88 9.97 0 24.34z"/>
    <polygon id="18" class="fil3" points="6199.46,4436.8 6151.58,4436.8 6151.58,4230.92 6199.46,4230.92 "/>
    <path id="19" class="fil3" d="M6554.16 4388.12c0,19.15 -3.66,32.06 -10.98,38.71 -7.31,6.65 -20.68,9.97 -40.1,9.97l-151.61 0c-19.42,0 -32.79,-3.32 -40.1,-9.97 -7.31,-6.65 -10.97,-19.56 -10.97,-38.71l0 -108.52c0,-19.15 3.66,-32.05 10.97,-38.7 7.31,-6.65 20.68,-9.98 40.1,-9.98l151.61 0c19.42,0 32.79,3.33 40.1,9.98 7.32,6.65 10.98,19.55 10.98,38.7l0 108.52zm-47.88 9.98l0 -130.47 -158 0 0 130.47 158 0z"/>
    <path id="20" class="fil3" d="M6896.88 4436.8l-32.71 0 -151.22 -127.28c-6.38,-5.32 -12.1,-10.9 -17.16,-16.76 1.33,13.3 2,23.81 2,31.52l0 112.52 -43.09 0 0 -205.88 32.71 0 144.84 121.29c10.37,8.78 18.22,16.23 23.54,22.35 -1.33,-19.15 -2,-30.99 -2,-35.51l0 -108.13 43.09 0 0 205.88z"/>
    <polygon id="21" class="fil3" points="7368.89,4436.8 7156.23,4436.8 7156.23,4230.92 7366.89,4230.92 7366.89,4266.03 7204.11,4266.03 7204.11,4311.92 7299.07,4311.92 7299.07,4347.03 7204.11,4347.03 7204.11,4398.1 7368.89,4398.1 "/>
    <path id="22" class="fil3" d="M7699.25 4436.8l-32.71 0 -151.22 -127.28c-6.38,-5.32 -12.1,-10.9 -17.16,-16.76 1.33,13.3 2,23.81 2,31.52l0 112.52 -43.09 0 0 -205.88 32.71 0 144.84 121.29c10.37,8.78 18.22,16.23 23.54,22.35 -1.33,-19.15 -2,-30.99 -2,-35.51l0 -108.13 43.09 0 0 205.88z"/>
    <polygon id="23" class="fil3" points="8171.26,4436.8 7958.6,4436.8 7958.6,4230.92 8169.26,4230.92 8169.26,4266.03 8006.48,4266.03 8006.48,4311.92 8101.44,4311.92 8101.44,4347.03 8006.48,4347.03 8006.48,4398.1 8171.26,4398.1 "/>
    <path id="24" class="fil3" d="M8482.47 4316.7c0,26.6 -15.42,39.9 -46.28,39.9l-129.27 0 0 80.2 -47.08 0 0 -205.88 176.35 0c30.86,0 46.28,13.3 46.28,39.9l0 45.88zm-46.28 -11.97l0 -21.94c0,-6.92 -1.99,-11.44 -5.98,-13.57 -2.93,-1.86 -8.12,-2.79 -15.57,-2.79l-107.72 0 0 54.66 107.72 0c7.45,0 12.64,-0.93 15.57,-2.79 3.99,-2.13 5.98,-6.65 5.98,-13.57z"/>
    <path id="25" class="fil3" d="M8779.72 4388.12c0,19.15 -3.72,32.06 -11.17,38.71 -7.45,6.65 -20.88,9.97 -40.3,9.97l-127.28 0c-21.01,0 -34.84,-3.72 -41.49,-11.17 -6.65,-7.45 -9.98,-21.81 -9.98,-43.09l42.3 -8.78 0 24.34 145.63 0 0 -47.08 -128.48 0c-19.41,0 -32.78,-3.33 -40.1,-9.98 -7.31,-6.65 -10.97,-19.55 -10.97,-38.7l0 -22.74c0,-19.15 3.66,-32.05 10.97,-38.7 7.32,-6.65 20.69,-9.98 40.1,-9.98l116.91 0c19.68,0 33.11,3.39 40.3,10.18 7.18,6.78 10.77,19.88 10.77,39.3l-42.29 9.97 0 -23.54 -134.86 0 0 44.29 128.47 0c19.42,0 32.85,3.32 40.3,9.97 7.45,6.65 11.17,19.55 11.17,38.7l0 28.33z"/>
   </g>
   <path class="fil3" d="M895.65 3827.75c0,51.23 -9.79,85.74 -29.35,103.53 -19.57,17.79 -55.32,26.68 -107.27,26.68l-328.72 0c-51.94,0 -87.69,-8.89 -107.26,-26.68 -19.57,-17.79 -29.35,-52.3 -29.35,-103.53l0 -290.3c0,-51.23 9.78,-85.74 29.35,-103.52 19.57,-17.79 55.32,-26.69 107.26,-26.69l328.72 0c65.46,0 106.02,15.3 121.67,45.9 9.97,17.78 14.95,63.32 14.95,136.61l-128.08 20.28 0 -104.6 -345.8 0 0 349 345.8 0 0 -118.46 128.08 26.68 0 65.1z"/>
   <path id="1" class="fil3" d="M1703.47 3827.75c0,51.23 -9.78,85.74 -29.35,103.53 -19.57,17.79 -55.32,26.68 -107.26,26.68l-405.57 0c-51.94,0 -87.69,-8.89 -107.26,-26.68 -19.57,-17.79 -29.35,-52.3 -29.35,-103.53l0 -290.3c0,-51.23 9.78,-85.74 29.35,-103.52 19.57,-17.79 55.32,-26.69 107.26,-26.69l405.57 0c51.94,0 87.69,8.9 107.26,26.69 19.57,17.78 29.35,52.29 29.35,103.52l0 290.3zm-128.07 26.68l0 -349 -422.65 0 0 349 422.65 0z"/>
   <path id="2" class="fil3" d="M2496.35 3957.96l-87.51 0 -404.5 -340.46c-17.08,-14.23 -32.38,-29.17 -45.9,-44.83 3.56,35.58 5.34,63.68 5.34,84.32l0 300.97 -115.27 0 0 -550.72 87.52 0 387.42 324.46c27.75,23.48 48.74,43.4 62.97,59.76 -3.55,-51.23 -5.33,-82.89 -5.33,-94.98l0 -289.24 115.26 0 0 550.72z"/>
   <path id="3" class="fil3" d="M3250.82 3827.75c0,51.23 -9.96,85.74 -29.89,103.53 -19.92,17.79 -55.85,26.68 -107.79,26.68l-340.46 0c-56.21,0 -93.21,-9.96 -111,-29.88 -17.79,-19.93 -26.68,-58.35 -26.68,-115.27l113.13 -23.48 0 65.1 389.56 0 0 -125.94 -343.67 0c-51.94,0 -87.69,-8.89 -107.26,-26.68 -19.57,-17.79 -29.35,-52.29 -29.35,-103.52l0 -60.84c0,-51.23 9.78,-85.74 29.35,-103.52 19.57,-17.79 55.32,-26.69 107.26,-26.69l312.71 0c52.66,0 88.59,9.08 107.8,27.22 19.21,18.14 28.82,53.19 28.82,105.13l-113.13 26.68 0 -62.97 -360.75 0 0 118.47 343.67 0c51.94,0 87.87,8.89 107.79,26.68 19.93,17.79 29.89,52.3 29.89,103.52l0 75.78z"/>
   <polygon id="4" class="fil3" points="3902.82,3505.43 3648.81,3505.43 3648.81,3957.96 3520.73,3957.96 3520.73,3505.43 3267.79,3505.43 3267.79,3407.24 3902.82,3407.24 "/>
   <path id="5" class="fil3" d="M4588.98 3957.96l-183.58 0 -221.99 -208.12 -121.67 0 0 208.12 -125.94 0 0 -550.72 471.74 0c82.54,0 123.8,35.58 123.8,106.73l0 129.14c0,53.37 -21.34,86.45 -64.03,99.26 -16.37,4.98 -60.48,7.47 -132.35,7.47l254.02 208.12zm-181.44 -345.8l0 -66.17c0,-18.5 -5.34,-30.6 -16.01,-36.29 -7.83,-4.98 -21.7,-7.47 -41.62,-7.47l-288.17 0 0 153.69 288.17 0c19.92,0 33.79,-2.49 41.62,-7.47 10.67,-5.69 16.01,-17.79 16.01,-36.29z"/>
   <path id="6" class="fil3" d="M5289.01 3827.75c0,51.23 -9.79,85.74 -29.35,103.53 -19.57,17.79 -55.32,26.68 -107.26,26.68l-347.94 0c-51.94,0 -87.69,-8.89 -107.26,-26.68 -19.57,-17.79 -29.35,-52.3 -29.35,-103.53l0 -420.51 128.07 0 0 447.19 365.01 0 0 -447.19 128.08 0 0 420.51z"/>
   <path id="7" class="fil3" d="M6042.4 3636.71c0,71.15 -41.26,106.73 -123.8,106.73l-345.8 0 0 214.52 -125.94 0 0 -550.72 471.74 0c82.54,0 123.8,35.58 123.8,106.73l0 122.74zm-123.8 -32.02l0 -58.7c0,-18.5 -5.34,-30.6 -16.01,-36.29 -7.83,-4.98 -21.7,-7.47 -41.62,-7.47l-288.17 0 0 146.22 288.17 0c19.92,0 33.79,-2.49 41.62,-7.47 10.67,-5.69 16.01,-17.79 16.01,-36.29z"/>
   <path id="8" class="fil3" d="M6701.88 3957.96l-144.09 0 -66.17 -120.6 -349 0 -64.04 120.6 -128.07 0 311.65 -550.72 123.8 0 315.92 550.72zm-263.62 -219.86l-118.47 -224.13 -122.74 224.13 241.21 0z"/>
   <path id="9" class="fil3" d="M7401.9 3957.96l-87.51 0 -404.5 -340.46c-17.08,-14.23 -32.38,-29.17 -45.9,-44.83 3.56,35.58 5.34,63.68 5.34,84.32l0 300.97 -115.27 0 0 -550.72 87.52 0 387.42 324.46c27.75,23.48 48.74,43.4 62.97,59.76 -3.55,-51.23 -5.33,-82.89 -5.33,-94.98l0 -289.24 115.26 0 0 550.72z"/>
   <polygon id="10" class="fil3" points="8127.55,3957.96 7558.69,3957.96 7558.69,3407.24 8122.21,3407.24 8122.21,3501.16 7686.76,3501.16 7686.76,3623.9 7940.78,3623.9 7940.78,3717.82 7686.76,3717.82 7686.76,3854.43 8127.55,3854.43 "/>
   <polygon id="11" class="fil3" points="8781.69,3957.96 8240.58,3957.96 8240.58,3407.24 8368.65,3407.24 8368.65,3854.43 8781.69,3854.43 "/>
  </g>
 </g>
</svg>
