<?xml version="1.0" encoding="UTF-8"?>
<!DOCTYPE svg PUBLIC "-//W3C//DTD SVG 1.1//EN" "http://www.w3.org/Graphics/SVG/1.1/DTD/svg11.dtd">
<!-- Creator: CorelDRAW 2018 (64 Bit Versión de evaluación) -->
<svg xmlns="http://www.w3.org/2000/svg" xml:space="preserve" width="338.667mm" height="182.88mm" version="1.1" style="shape-rendering:geometricPrecision; text-rendering:geometricPrecision; image-rendering:optimizeQuality; fill-rule:evenodd; clip-rule:evenodd"
viewBox="0 0 33866.66 18287.98"
 xmlns:xlink="http://www.w3.org/1999/xlink">
 <defs>
  <style type="text/css">
   <![CDATA[
    .fil0 {fill:whitesmoke}
    .fil4 {fill:#A8CF45}
    .fil3 {fill:#191B4D}
    .fil2 {fill:#A8CF45;fill-opacity:0.101961}
    .fil1 {fill:#191B4D;fill-opacity:0.101961}
   ]]>
  </style>
 </defs>
 <g id="Capa_x0020_1">
  <metadata id="CorelCorpID_0Corel-Layer"/>
  <rect class="fil0" x="0.01" y="-0.03" width="33866.67" height="18288"/>
  <g id="_1427791554608">
   <polygon class="fil1" points="1731.09,5826.48 3119.71,6513.36 3119.74,5917.35 2333.57,5528.46 "/>
   <polygon class="fil1" points="1731.09,5090.4 3119.71,5777.28 3119.74,5181.27 2333.57,4792.38 "/>
   <polygon class="fil2" points="8060.87,5826.48 6678.03,6510.49 6677.99,5914.48 7458.39,5528.46 "/>
   <polygon class="fil2" points="8060.87,5090.4 6678.03,5774.41 6677.99,5178.4 7458.39,4792.38 "/>
   <polygon class="fil1" points="3507.66,5225.92 4895.98,5912.64 6287.19,5224.5 4898.87,4537.55 "/>
   <polygon class="fil1" points="1731.09,4347.17 3119.76,5034.06 4498.77,4347.86 3122.78,3658.78 "/>
   <polygon class="fil1" points="3512.63,3468.06 4898.87,4153.89 6284.37,3468.43 4895.98,2781.67 "/>
   <polygon class="fil2" points="5286.62,4345.71 6675.09,5032.62 8017.59,4325.76 6672.07,3660.2 "/>
   <polygon class="fil1" points="3507.66,6845.29 3507.58,7441.3 4895.98,8128.04 6290.15,7438.43 6290.1,6842.42 4895.98,7532.02 "/>
   <polygon class="fil1" points="3507.66,6109.21 3507.58,6705.22 4895.98,7391.96 6290.15,6702.35 6290.1,6106.34 4895.98,6795.94 "/>
   <polygon class="fil1" points="3507.66,5373.13 3507.58,5969.14 4895.98,6655.88 6290.15,5966.27 6290.1,5370.26 4895.98,6059.86 "/>
   <path class="fil1" d="M4895.98 2781.67l1388.39 686.76 -1388.39 -686.76zm-1388.32 2444.25l1388.32 686.72 -1388.32 -686.72z"/>
   <polygon class="fil1" points="1731.09,6562.57 3119.71,7249.44 3119.74,6653.43 2333.57,6264.54 "/>
   <polygon class="fil2" points="8060.87,6562.57 6678.03,7246.57 6677.99,6650.56 7458.39,6264.54 "/>
  </g>
  <g id="_1427791546768">
   <polygon class="fil1" points="2634.4,16156.69 3187.1,16430.08 3187.12,16192.86 2874.2,16038.07 "/>
   <polygon class="fil1" points="2634.4,15863.71 3187.1,16137.1 3187.12,15899.88 2874.2,15745.09 "/>
   <polygon class="fil2" points="5153.8,16156.69 4603.4,16428.94 4603.38,16191.71 4914,16038.07 "/>
   <polygon class="fil2" points="5153.8,15863.71 4603.4,16135.96 4603.38,15898.74 4914,15745.09 "/>
   <polygon class="fil1" points="3341.51,15917.65 3894.1,16190.98 4447.83,15917.08 3895.25,15643.66 "/>
   <polygon class="fil1" points="2634.4,15567.88 3187.12,15841.28 3736,15568.16 3188.32,15293.89 "/>
   <polygon class="fil1" points="3343.49,15217.98 3895.25,15490.96 4446.71,15218.13 3894.1,14944.78 "/>
   <polygon class="fil2" points="4049.58,15567.31 4602.23,15840.71 5136.57,15559.37 4601.02,15294.46 "/>
   <polygon class="fil1" points="3341.51,16562.2 3341.49,16799.42 3894.1,17072.76 4449.01,16798.28 4448.99,16561.05 3894.1,16835.53 "/>
   <polygon class="fil1" points="3341.51,16269.22 3341.49,16506.44 3894.1,16779.78 4449.01,16505.3 4448.99,16268.08 3894.1,16542.55 "/>
   <polygon class="fil1" points="3341.51,15976.24 3341.49,16213.47 3894.1,16486.81 4449.01,16212.32 4448.99,15975.1 3894.1,16249.58 "/>
   <path class="fil1" d="M3894.1 14944.78l552.61 273.35 -552.61 -273.35zm-552.59 972.87l552.59 273.33 -552.59 -273.33z"/>
   <polygon class="fil1" points="2634.4,16449.66 3187.1,16723.06 3187.12,16485.83 2874.2,16331.05 "/>
   <polygon class="fil2" points="5153.8,16449.66 4603.4,16721.91 4603.38,16484.69 4914,16331.05 "/>
  </g>
  <g id="_1427791529680">
   <polygon class="fil3" points="29903.5,4894.05 30339.53,5109.73 30339.54,4922.58 30092.68,4800.47 "/>
   <polygon class="fil3" points="29903.5,4662.91 30339.53,4878.6 30339.54,4691.45 30092.68,4569.33 "/>
   <polygon class="fil4" points="31891.08,4894.05 31456.86,5108.83 31456.85,4921.68 31701.89,4800.47 "/>
   <polygon class="fil4" points="31891.08,4662.91 31456.86,4877.69 31456.85,4690.55 31701.89,4569.33 "/>
   <polygon class="fil3" points="30461.35,4705.47 30897.29,4921.1 31334.13,4705.02 30898.19,4489.32 "/>
   <polygon class="fil3" points="29903.5,4429.53 30339.54,4645.22 30772.56,4429.75 30340.49,4213.38 "/>
   <polygon class="fil3" points="30462.91,4153.49 30898.19,4368.84 31333.25,4153.61 30897.29,3937.96 "/>
   <polygon class="fil4" points="31019.95,4429.08 31455.93,4644.77 31877.49,4422.81 31454.99,4213.82 "/>
   <polygon class="fil3" points="30461.35,5213.96 30461.32,5401.11 30897.29,5616.75 31335.06,5400.2 31335.05,5213.06 30897.29,5429.59 "/>
   <polygon class="fil3" points="30461.35,4982.82 30461.32,5169.97 30897.29,5385.61 31335.06,5169.07 31335.05,4981.92 30897.29,5198.46 "/>
   <polygon class="fil3" points="30461.35,4751.69 30461.32,4938.84 30897.29,5154.48 31335.06,4937.94 31335.05,4750.79 30897.29,4967.33 "/>
   <path class="fil3" d="M30897.29 3937.96l435.96 215.65 -435.96 -215.65zm-435.94 767.51l435.94 215.63 -435.94 -215.63z"/>
   <polygon class="fil3" points="29903.5,5125.18 30339.53,5340.86 30339.54,5153.71 30092.68,5031.6 "/>
   <polygon class="fil4" points="31891.08,5125.18 31456.86,5339.96 31456.85,5152.81 31701.89,5031.6 "/>
  </g>
  <g id="_1427791528112">
   <polygon class="fil3" points="29353.97,8445.94 29826.2,8584.2 29793.34,8397.77 29525.98,8319.49 "/>
   <polygon class="fil4" points="31333.89,8096.83 30939.07,8387.05 30906.18,8200.62 31129,8036.84 "/>
   <polygon class="fil3" points="29917.14,8390.34 30389.28,8528.57 30786.49,8236.6 30314.34,8098.3 "/>
   <polygon class="fil3" points="29312.98,8213.46 29785.23,8351.72 30178.73,8061.03 29710.32,7921.38 "/>
   <polygon class="fil3" points="29821.74,7840.22 30293.18,7978.29 30688.75,7687.46 30216.59,7549.22 "/>
   <polygon class="fil4" points="30425.04,8016.9 30897.23,8155.18 31278.17,7860.04 30820.6,7726.07 "/>
   <polygon class="fil3" points="29925.26,8436.39 29958.11,8622.82 30430.27,8761.06 30828.32,8468.45 30795.43,8282.03 30397.4,8574.62 "/>
   <path class="fil3" d="M30216.59 7549.22l472.16 138.24 -472.16 -138.24zm-299.45 841.12l472.14 138.23 -472.14 -138.23z"/>
  </g>
  <g id="_1427791524208">
   <polygon class="fil3" points="29887.4,11552.33 30264.05,11157.93 30335.82,11355.08 30122.58,11578.38 "/>
   <polygon class="fil4" points="31981.26,10790.23 31441.47,10730.46 31513.21,10927.62 31817.84,10961.35 "/>
   <polygon class="fil3" points="30458.76,11293.61 30835.33,10899.29 31378.39,10959.42 31001.85,11353.82 "/>
   <polygon class="fil3" points="29976.88,11798.19 30353.55,11403.78 30892.33,11464.74 30520.13,11858.35 "/>
   <polygon class="fil3" points="30672.05,11874.5 31048.04,11480.73 31588.89,11540.66 31212.3,11935 "/>
   <polygon class="fil4" points="31153.21,11370.59 31529.81,10976.19 32059,11048.38 31694.05,11430.55 "/>
   <polygon class="fil3" points="30441.04,11244.91 30369.25,11047.76 30745.84,10653.43 31290.06,10713.69 31361.8,10910.86 30817.61,10850.59 "/>
   <path class="fil3" d="M31212.3 11935l376.59 -394.34 -376.59 394.34zm-753.54 -641.39l376.57 -394.32 -376.57 394.32z"/>
  </g>
  <g id="_1427790242384">
   <polygon class="fil3" points="29050.65,15052.51 29673.39,15012.44 29553.36,14804.53 29200.79,14827.2 "/>
   <polygon class="fil4" points="31258.72,13777.68 30914.09,14294.79 30794.04,14086.89 30988.53,13795.06 "/>
   <polygon class="fil3" points="29697.67,14741.97 30320.28,14701.92 30667,14181.68 30044.34,14221.65 "/>
   <polygon class="fil3" points="28900.96,14793.24 29523.72,14753.17 29866.57,14236.06 29247.79,14272.81 "/>
   <polygon class="fil3" points="29345.37,14127.77 29967.07,14087.82 30312.34,13569.66 29689.7,13609.72 "/>
   <polygon class="fil4" points="30140.97,14076.64 30763.67,14036.62 31089.62,13519.66 30486.2,13558.47 "/>
   <polygon class="fil3" points="29727.32,14793.33 29847.33,15001.25 30469.97,14961.19 30817.42,14439.84 30697.37,14231.94 30349.93,14753.27 "/>
   <path class="fil3" d="M29689.7 13609.72l622.64 -40.06 -622.64 40.06zm7.97 1132.25l622.61 -40.05 -622.61 40.05z"/>
  </g>
 </g>
</svg>
