<?xml version="1.0" encoding="UTF-8"?>
<!DOCTYPE svg PUBLIC "-//W3C//DTD SVG 1.1//EN" "http://www.w3.org/Graphics/SVG/1.1/DTD/svg11.dtd">
<!-- Creator: CorelDRAW 2018 (64 Bit Versión de evaluación) -->
<svg xmlns="http://www.w3.org/2000/svg" xml:space="preserve" width="338.667mm" height="182.88mm" version="1.1" style="shape-rendering:geometricPrecision; text-rendering:geometricPrecision; image-rendering:optimizeQuality; fill-rule:evenodd; clip-rule:evenodd"
viewBox="0 0 33866.66 18287.98"
 xmlns:xlink="http://www.w3.org/1999/xlink">
 <defs>
  <style type="text/css">
   <![CDATA[
    .str0 {stroke:#A8CF45;stroke-width:7.62;stroke-miterlimit:22.9256}
    .fil4 {fill:none}
    .fil3 {fill:#A8CF45}
    .fil1 {fill:#A8CF45}
    .fil2 {fill:#191B4D}
    .fil0 {fill:#1D1C56;fill-rule:nonzero}
   ]]>
  </style>
 </defs>
 <g id="Capa_x0020_1">
  <metadata id="CorelCorpID_0Corel-Layer"/>
  <g id="_3107344131664">
   <g>
    <g>
     <path class="fil0" d="M23862.3 17513.5l-1098.8 0 0 -1063.75 1088.5 0 0 181.41 -841.11 0 0 237.08 490.64 0 0 181.41 -490.64 0 0 263.88 851.41 0 0 199.97zm1706.96 0l-169.05 0 -781.32 -657.63c-32.99,-27.49 -62.54,-56.35 -88.65,-86.59 6.87,68.72 10.31,123.01 10.31,162.87l0 581.35 -222.65 0 0 -1063.75 169.05 0 748.34 626.7c53.6,45.36 94.14,83.84 121.63,115.45 -6.87,-98.95 -10.31,-160.11 -10.31,-183.48l0 -558.67 222.65 0 0 1063.75zm2438.8 0l-1098.8 0 0 -1063.75 1088.5 0 0 181.41 -841.11 0 0 237.08 490.64 0 0 181.41 -490.64 0 0 263.88 851.41 0 0 199.97zm1608 -620.52c0,137.43 -79.71,206.15 -239.14,206.15l-667.94 0 0 414.37 -243.26 0 0 -1063.75 911.2 0c159.43,0 239.14,68.71 239.14,206.15l0 237.08zm-239.14 -61.85l0 -113.38c0,-35.74 -10.3,-59.1 -30.92,-70.1 -15.12,-9.62 -41.92,-14.43 -80.4,-14.43l-556.62 0 0 282.43 556.62 0c38.48,0 65.28,-4.81 80.4,-14.43 20.62,-10.99 30.92,-34.36 30.92,-70.09zm1774.99 430.86c0,98.96 -19.25,165.61 -57.73,199.97 -38.48,34.36 -107.88,51.54 -208.21,51.54l-657.63 0c-108.58,0 -180.05,-19.24 -214.4,-57.72 -34.36,-38.49 -51.54,-112.7 -51.54,-222.65l218.52 -45.35 0 125.75 752.46 0 0 -243.26 -663.81 0c-100.33,0 -169.39,-17.18 -207.19,-51.54 -37.79,-34.36 -56.69,-101.02 -56.69,-199.97l0 -117.51c0,-98.95 18.9,-165.61 56.69,-199.97 37.8,-34.36 106.86,-51.53 207.19,-51.53l604.03 0c101.7,0 171.11,17.52 208.21,52.56 37.11,35.05 55.66,102.74 55.66,203.07l-218.52 51.53 0 -121.63 -696.8 0 0 228.83 663.82 0c100.33,0 169.73,17.18 208.21,51.54 38.48,34.36 57.73,101.02 57.73,199.97l0 146.37z"/>
     <path class="fil0" d="M3134.49 15407.25c0,194.71 -37.18,325.87 -111.55,393.48 -74.37,67.61 -210.26,101.41 -407.67,101.41l-1249.39 0c-197.41,0 -333.3,-33.8 -407.67,-101.41 -74.37,-67.61 -111.55,-198.77 -111.55,-393.48l0 -1103.35c0,-194.71 37.18,-325.86 111.55,-393.47 74.37,-67.61 210.26,-101.41 407.67,-101.41l1249.39 0c248.79,0 402.94,58.14 462.43,174.42 37.86,67.61 56.79,240.69 56.79,519.23l-486.77 77.07 0 -397.53 -1314.29 0 0 1326.46 1314.29 0 0 -450.27 486.77 101.41 0 247.44zm3070.33 0c0,194.71 -37.19,325.87 -111.56,393.48 -74.37,67.61 -210.26,101.41 -407.67,101.41l-1541.45 0c-197.41,0 -333.3,-33.8 -407.67,-101.41 -74.37,-67.61 -111.55,-198.77 -111.55,-393.48l0 -1103.35c0,-194.71 37.18,-325.86 111.55,-393.47 74.37,-67.61 210.26,-101.41 407.67,-101.41l1541.45 0c197.41,0 333.3,33.8 407.67,101.41 74.37,67.61 111.56,198.76 111.56,393.47l0 1103.35zm-486.78 101.42l0 -1326.46 -1606.35 0 0 1326.46 1606.35 0zm3500.3 393.47l-332.63 0 -1537.39 -1294c-64.9,-54.09 -123.04,-110.88 -174.42,-170.37 13.52,135.21 20.28,242.03 20.28,320.45l0 1143.92 -438.1 0 0 -2093.12 332.63 0 1472.49 1233.15c105.47,89.25 185.24,164.97 239.33,227.17 -13.52,-194.71 -20.28,-315.05 -20.28,-361.03l0 -1099.29 438.09 0 0 2093.12zm2867.51 -494.89c0,194.71 -37.86,325.87 -113.58,393.48 -75.72,67.61 -212.29,101.41 -409.7,101.41l-1294.01 0c-213.64,0 -354.26,-37.86 -421.87,-113.58 -67.61,-75.72 -101.41,-221.75 -101.41,-438.1l429.98 -89.24 0 247.45 1480.6 0 0 -478.66 -1306.17 0c-197.41,0 -333.3,-33.81 -407.67,-101.42 -74.37,-67.6 -111.55,-198.76 -111.55,-393.47l0 -231.22c0,-194.71 37.18,-325.86 111.55,-393.47 74.37,-67.61 210.26,-101.41 407.67,-101.41l1188.54 0c200.11,0 336.68,34.48 409.7,103.44 73.01,68.96 109.52,202.14 109.52,399.56l-429.98 101.41 0 -239.33 -1371.08 0 0 450.26 1306.18 0c197.41,0 333.98,33.81 409.7,101.41 75.72,67.61 113.58,198.77 113.58,393.48l0 288zm2478.08 -1225.04l-965.43 0 0 1719.93 -486.78 0 0 -1719.93 -961.37 0 0 -373.19 2413.58 0 0 373.19zm2607.88 1719.93l-697.71 0 -843.74 -791.01 -462.43 0 0 791.01 -478.66 0 0 -2093.12 1792.95 0c313.69,0 470.54,135.21 470.54,405.64l0 490.83c0,202.82 -81.13,328.57 -243.38,377.25 -62.2,18.93 -229.87,28.39 -503,28.39l965.43 791.01zm-689.59 -1314.29l0 -251.5c0,-70.31 -20.29,-116.28 -60.85,-137.91 -29.75,-18.93 -82.48,-28.4 -158.2,-28.4l-1095.24 0 0 584.13 1095.24 0c75.72,0 128.45,-9.47 158.2,-28.4 40.56,-21.63 60.85,-67.6 60.85,-137.92zm3350.21 819.4c0,194.71 -37.19,325.87 -111.55,393.48 -74.37,67.61 -210.26,101.41 -407.68,101.41l-1322.4 0c-197.41,0 -333.3,-33.8 -407.67,-101.41 -74.37,-67.61 -111.55,-198.77 -111.55,-393.48l0 -1598.23 486.77 0 0 1699.65 1387.31 0 0 -1699.65 486.77 0 0 1598.23zm2863.44 -726.1c0,270.43 -156.85,405.65 -470.54,405.65l-1314.29 0 0 815.34 -478.66 0 0 -2093.12 1792.95 0c313.69,0 470.54,135.21 470.54,405.64l0 466.49zm-470.54 -121.69l0 -223.11c0,-70.31 -20.29,-116.28 -60.85,-137.91 -29.75,-18.93 -82.48,-28.4 -158.2,-28.4l-1095.24 0 0 555.73 1095.24 0c75.72,0 128.45,-9.46 158.2,-28.39 40.56,-21.64 60.85,-67.61 60.85,-137.92zm2977.02 1342.68l-547.62 0 -251.5 -458.38 -1326.46 0 -243.38 458.38 -486.78 0 1184.48 -2093.12 470.55 0 1200.71 2093.12zm-1001.94 -835.63l-450.27 -851.85 -466.49 851.85 916.76 0zm3662.56 835.63l-332.63 0 -1537.39 -1294c-64.9,-54.09 -123.04,-110.88 -174.42,-170.37 13.52,135.21 20.28,242.03 20.28,320.45l0 1143.92 -438.1 0 0 -2093.12 332.63 0 1472.49 1233.15c105.47,89.25 185.24,164.97 239.33,227.17 -13.52,-194.71 -20.28,-315.05 -20.28,-361.03l0 -1099.29 438.09 0 0 2093.12zm2757.98 0l-2162.08 0 0 -2093.12 2141.8 0 0 356.96 -1655.03 0 0 466.49 965.44 0 0 356.97 -965.44 0 0 519.23 1675.31 0 0 393.47zm2486.2 0l-2056.62 0 0 -2093.12 486.77 0 0 1699.65 1569.85 0 0 393.47z"/>
     <g>
      <polygon class="fil1 str0" points="9147.62,11786.34 15303.86,11786.34 15303.86,12918.18 9147.62,12918.18 "/>
      <path class="fil0" d="M2543.1 12141.4l-312.82 0 0 589.71 -157.73 0 0 -589.71 -311.52 0 0 -127.95 782.07 0 0 127.95zm1014.73 420.03c0,66.76 -12.05,111.73 -36.14,134.9 -24.11,23.18 -68.13,34.78 -132.11,34.78l-499.46 0c-63.98,0 -108,-11.6 -132.11,-34.78 -24.09,-23.17 -36.14,-68.14 -36.14,-134.9l0 -378.3c0,-66.76 12.05,-111.73 36.14,-134.92 24.11,-23.17 68.13,-34.76 132.11,-34.76l499.46 0c63.98,0 108,11.59 132.11,34.76 24.09,23.19 36.14,68.16 36.14,134.92l0 378.3zm-157.73 34.76l0 -454.79 -520.5 0 0 454.79 520.5 0zm1314.41 -228.09c0,139.08 -49.95,241.54 -149.85,307.38 -56.95,37.08 -149.83,55.63 -278.65,55.63l-395.63 0 0 -717.66 436.37 0c117.42,0 209.44,27.81 276.03,83.45 74.48,61.19 111.73,151.6 111.73,271.2zm-162.99 -2.77c0,-149.29 -74.48,-223.93 -223.45,-223.93l-279.97 0 0 454.79 203.74 0c96.38,0 166.49,-12.97 210.3,-38.94 59.59,-35.22 89.38,-99.21 89.38,-191.92zm1273.65 196.1c0,66.76 -12.04,111.73 -36.13,134.9 -24.11,23.18 -68.13,34.78 -132.11,34.78l-499.46 0c-63.98,0 -108,-11.6 -132.11,-34.78 -24.09,-23.17 -36.14,-68.14 -36.14,-134.9l0 -378.3c0,-66.76 12.05,-111.73 36.14,-134.92 24.11,-23.17 68.13,-34.76 132.11,-34.76l499.46 0c63.98,0 108,11.59 132.11,34.76 24.09,23.19 36.13,68.16 36.13,134.92l0 378.3zm-157.72 34.76l0 -454.79 -520.5 0 0 454.79 520.5 0zm1699.53 134.92l-700.58 0 0 -717.66 694.01 0 0 122.39 -536.28 0 0 159.94 312.83 0 0 122.39 -312.83 0 0 178.02 542.85 0 0 134.92zm1088.33 0l-107.79 0 -498.16 -443.67c-21.02,-18.55 -39.87,-38.02 -56.52,-58.42 4.39,46.37 6.57,82.99 6.57,109.88l0 392.21 -141.94 0 0 -717.66 107.78 0 477.13 422.8c34.17,30.6 60.02,56.56 77.54,77.9 -4.38,-66.77 -6.57,-108.03 -6.57,-123.79l0 -376.91 141.96 0 0 717.66zm1012.08 0l-157.72 0 0 -717.66 157.72 0 0 717.66zm1073.88 -169.68c0,66.76 -12.06,111.73 -36.15,134.9 -24.1,23.18 -68.13,34.78 -132.1,34.78l-404.83 0c-63.98,0 -108,-11.6 -132.1,-34.78 -24.1,-23.17 -36.16,-68.14 -36.16,-134.9l0 -378.3c0,-66.76 12.06,-111.73 36.16,-134.92 24.1,-23.17 68.12,-34.76 132.1,-34.76l404.83 0c80.62,0 130.56,19.93 149.84,59.8 12.26,23.19 18.41,82.52 18.41,178.03l-157.73 26.42 0 -136.3 -425.88 0 0 454.79 425.88 0 0 -154.38 157.73 34.78 0 84.84zm1147.47 0c0,66.76 -12.05,111.73 -36.14,134.9 -24.1,23.18 -68.13,34.78 -132.1,34.78l-499.47 0c-63.97,0 -108,-11.6 -132.1,-34.78 -24.1,-23.17 -36.15,-68.14 -36.15,-134.9l0 -378.3c0,-66.76 12.05,-111.73 36.15,-134.92 24.1,-23.17 68.13,-34.76 132.1,-34.76l499.47 0c63.97,0 108,11.59 132.1,34.76 24.09,23.19 36.14,68.16 36.14,134.92l0 378.3zm-157.72 34.76l0 -454.79 -520.51 0 0 454.79 520.51 0zm1223.71 -283.72c0,92.73 -50.83,139.08 -152.48,139.08l-425.87 0 0 279.56 -155.09 0 0 -717.66 580.96 0c101.65,0 152.48,46.36 152.48,139.08l0 159.94zm-152.48 -41.72l0 -76.49c0,-24.11 -6.57,-39.88 -19.71,-47.3 -9.65,-6.49 -26.73,-9.72 -51.26,-9.72l-354.9 0 0 190.53 354.9 0c24.53,0 41.61,-3.24 51.26,-9.74 13.14,-7.42 19.71,-23.18 19.71,-47.28zm1217.14 290.68c0,66.76 -12.04,111.73 -36.14,134.9 -24.1,23.18 -68.13,34.78 -132.1,34.78l-499.47 0c-63.97,0 -108,-11.6 -132.1,-34.78 -24.09,-23.17 -36.15,-68.14 -36.15,-134.9l0 -378.3c0,-66.76 12.06,-111.73 36.15,-134.92 24.1,-23.17 68.13,-34.76 132.1,-34.76l499.47 0c63.97,0 108,11.59 132.1,34.76 24.1,23.19 36.14,68.16 36.14,134.92l0 378.3zm-157.72 34.76l0 -454.79 -520.51 0 0 454.79 520.51 0zm1294.69 134.92l-226.08 0 -273.4 -271.21 -149.84 0 0 271.21 -155.09 0 0 -717.66 580.95 0c101.66,0 152.49,46.36 152.49,139.08l0 168.29c0,69.54 -26.3,112.65 -78.87,129.34 -20.16,6.5 -74.48,9.74 -162.99,9.74l312.83 271.21zm-223.46 -450.63l0 -86.22c0,-24.11 -6.57,-39.88 -19.7,-47.3 -9.65,-6.49 -26.74,-9.72 -51.26,-9.72l-354.9 0 0 200.27 354.9 0c24.52,0 41.61,-3.24 51.26,-9.74 13.13,-7.42 19.7,-23.18 19.7,-47.29zm1715.31 31.99c0,92.73 -50.83,139.08 -152.47,139.08l-425.88 0 0 279.56 -155.08 0 0 -717.66 580.96 0c101.64,0 152.47,46.36 152.47,139.08l0 159.94zm-152.47 -41.72l0 -76.49c0,-24.11 -6.58,-39.88 -19.72,-47.3 -9.64,-6.49 -26.72,-9.72 -51.26,-9.72l-354.9 0 0 190.53 354.9 0c24.54,0 41.62,-3.24 51.26,-9.74 13.14,-7.42 19.72,-23.18 19.72,-47.28zm1117.25 460.36l-177.44 0 -81.5 -157.17 -429.81 0 -78.86 157.17 -157.74 0 383.82 -717.66 152.47 0 389.06 717.66zm-324.65 -286.51l-145.91 -292.07 -151.16 292.07 297.07 0zm1347.26 286.51l-226.08 0 -273.4 -271.21 -149.84 0 0 271.21 -155.1 0 0 -717.66 580.96 0c101.65,0 152.48,46.36 152.48,139.08l0 168.29c0,69.54 -26.29,112.65 -78.86,129.34 -20.15,6.5 -74.48,9.74 -162.99,9.74l312.83 271.21zm-223.46 -450.63l0 -86.22c0,-24.11 -6.57,-39.88 -19.71,-47.3 -9.63,-6.49 -26.73,-9.72 -51.26,-9.72l-354.89 0 0 200.27 354.89 0c24.53,0 41.63,-3.24 51.26,-9.74 13.14,-7.42 19.71,-23.18 19.71,-47.29zm1219.78 450.63l-177.44 0 -81.5 -157.17 -429.81 0 -78.87 157.17 -157.73 0 383.81 -717.66 152.47 0 389.07 717.66zm-324.66 -286.51l-145.89 -292.07 -151.16 292.07 297.05 0zm1778.39 116.83c0,66.76 -12.06,111.73 -36.15,134.9 -24.1,23.18 -68.13,34.78 -132.1,34.78l-404.83 0c-63.97,0 -108,-11.6 -132.1,-34.78 -24.1,-23.17 -36.15,-68.14 -36.15,-134.9l0 -378.3c0,-66.76 12.05,-111.73 36.15,-134.92 24.1,-23.17 68.13,-34.76 132.1,-34.76l404.83 0c80.63,0 130.57,19.93 149.84,59.8 12.27,23.19 18.41,82.52 18.41,178.03l-157.73 26.42 0 -136.3 -425.87 0 0 454.79 425.87 0 0 -154.38 157.73 34.78 0 84.84zm1147.47 0c0,66.76 -12.04,111.73 -36.14,134.9 -24.1,23.18 -68.13,34.78 -132.1,34.78l-499.47 0c-63.97,0 -108,-11.6 -132.1,-34.78 -24.1,-23.17 -36.15,-68.14 -36.15,-134.9l0 -378.3c0,-66.76 12.05,-111.73 36.15,-134.92 24.1,-23.17 68.13,-34.76 132.1,-34.76l499.47 0c63.97,0 108,11.59 132.1,34.76 24.1,23.19 36.14,68.16 36.14,134.92l0 378.3zm-157.72 34.76l0 -454.79 -520.51 0 0 454.79 520.51 0zm1286.81 134.92l-107.79 0 -498.16 -443.67c-21.03,-18.55 -39.87,-38.02 -56.52,-58.42 4.39,46.37 6.57,82.99 6.57,109.88l0 392.21 -141.95 0 0 -717.66 107.78 0 477.13 422.8c34.17,30.6 60.02,56.56 77.54,77.9 -4.38,-66.77 -6.56,-108.03 -6.56,-123.79l0 -376.91 141.96 0 0 717.66zm1081.74 -169.68c0,66.76 -12.27,111.73 -36.8,134.9 -24.54,23.18 -68.79,34.78 -132.76,34.78l-419.29 0c-69.23,0 -114.8,-12.98 -136.7,-38.94 -21.91,-25.97 -32.87,-76.04 -32.87,-150.21l139.34 -30.6 0 84.83 479.75 0 0 -164.1 -423.23 0c-63.97,0 -108,-11.6 -132.1,-34.78 -24.1,-23.17 -36.14,-68.15 -36.14,-134.91l0 -79.27c0,-66.76 12.04,-111.73 36.14,-134.92 24.1,-23.17 68.13,-34.76 132.1,-34.76l385.11 0c64.85,0 109.1,11.82 132.76,35.46 23.66,23.64 35.5,69.31 35.5,137l-139.33 34.77 0 -82.06 -444.28 0 0 154.39 423.24 0c63.97,0 108.22,11.58 132.76,34.76 24.53,23.18 36.8,68.15 36.8,134.91l0 98.75zm955.57 -420.03l-312.82 0 0 589.71 -157.74 0 0 -589.71 -311.51 0 0 -127.95 782.07 0 0 127.95zm997.64 589.71l-226.08 0 -273.4 -271.21 -149.85 0 0 271.21 -155.08 0 0 -717.66 580.96 0c101.64,0 152.47,46.36 152.47,139.08l0 168.29c0,69.54 -26.29,112.65 -78.87,129.34 -20.14,6.5 -74.47,9.74 -162.98,9.74l312.83 271.21zm-223.45 -450.63l0 -86.22c0,-24.11 -6.57,-39.88 -19.72,-47.3 -9.64,-6.49 -26.73,-9.72 -51.25,-9.72l-354.91 0 0 200.27 354.91 0c24.52,0 41.61,-3.24 51.25,-9.74 13.15,-7.42 19.72,-23.18 19.72,-47.29zm1238.18 280.95c0,66.76 -12.06,111.73 -36.16,134.9 -24.1,23.18 -68.12,34.78 -132.1,34.78l-428.49 0c-63.97,0 -108,-11.6 -132.09,-34.78 -24.11,-23.17 -36.15,-68.14 -36.15,-134.9l0 -547.98 157.72 0 0 582.74 449.54 0 0 -582.74 157.73 0 0 547.98zm1073.86 0c0,66.76 -12.05,111.73 -36.15,134.9 -24.1,23.18 -68.13,34.78 -132.1,34.78l-404.83 0c-63.97,0 -108,-11.6 -132.1,-34.78 -24.09,-23.17 -36.15,-68.14 -36.15,-134.9l0 -378.3c0,-66.76 12.06,-111.73 36.15,-134.92 24.1,-23.17 68.13,-34.76 132.1,-34.76l404.83 0c80.62,0 130.57,19.93 149.84,59.8 12.27,23.19 18.41,82.52 18.41,178.03l-157.73 26.42 0 -136.3 -425.87 0 0 454.79 425.87 0 0 -154.38 157.73 34.78 0 84.84zm1052.84 0c0,66.76 -12.05,111.73 -36.15,134.9 -24.1,23.18 -68.13,34.78 -132.1,34.78l-404.84 0c-63.96,0 -107.99,-11.6 -132.09,-34.78 -24.1,-23.17 -36.16,-68.14 -36.16,-134.9l0 -378.3c0,-66.76 12.06,-111.73 36.16,-134.92 24.1,-23.17 68.13,-34.76 132.09,-34.76l404.84 0c80.62,0 130.56,19.93 149.85,59.8 12.26,23.19 18.4,82.52 18.4,178.03l-157.73 26.42 0 -136.3 -425.87 0 0 454.79 425.87 0 0 -154.38 157.73 34.78 0 84.84zm483.7 169.68l-157.72 0 0 -717.66 157.72 0 0 717.66zm1168.5 -169.68c0,66.76 -12.04,111.73 -36.14,134.9 -24.1,23.18 -68.13,34.78 -132.1,34.78l-499.47 0c-63.97,0 -108,-11.6 -132.1,-34.78 -24.09,-23.17 -36.15,-68.14 -36.15,-134.9l0 -378.3c0,-66.76 12.06,-111.73 36.15,-134.92 24.1,-23.17 68.13,-34.76 132.1,-34.76l499.47 0c63.97,0 108,11.59 132.1,34.76 24.1,23.19 36.14,68.16 36.14,134.92l0 378.3zm-157.72 34.76l0 -454.79 -520.51 0 0 454.79 520.51 0zm-81.49 -894.28l-189.27 235.04 -84.13 0 131.44 -235.04 141.96 0zm1368.29 1029.2l-107.79 0 -498.15 -443.67c-21.03,-18.55 -39.87,-38.02 -56.52,-58.42 4.39,46.37 6.57,82.99 6.57,109.88l0 392.21 -141.95 0 0 -717.66 107.79 0 477.12 422.8c34.18,30.6 60.02,56.56 77.55,77.9 -4.38,-66.77 -6.57,-108.03 -6.57,-123.79l0 -376.91 141.95 0 0 717.66z"/>
     </g>
    </g>
    <g>
     <polygon class="fil2" points="11091.33,6436.27 13640.53,7697.23 13640.6,6603.09 12197.36,5889.17 "/>
     <polygon class="fil2" points="11091.33,5084.99 13640.53,6345.94 13640.6,5251.8 12197.36,4537.88 "/>
     <polygon class="fil3" points="22711.46,6436.27 20172.86,7691.96 20172.79,6597.82 21605.43,5889.17 "/>
     <polygon class="fil3" points="22711.46,5084.99 20172.86,6340.67 20172.79,5246.53 21605.43,4537.88 "/>
     <polygon class="fil2" points="14352.73,5333.76 16901.39,6594.44 19455.36,5331.16 16906.7,4070.07 "/>
     <polygon class="fil2" points="11091.33,3720.56 13640.63,4981.54 16172.2,3721.84 13646.17,2456.83 "/>
     <polygon class="fil2" points="14361.85,2106.71 16906.7,3365.74 19450.19,2107.39 16901.39,846.64 "/>
     <polygon class="fil3" points="17618.52,3717.89 20167.45,4978.91 22632,3681.27 20161.91,2459.43 "/>
     <polygon class="fil2" points="14352.73,8306.59 14352.59,9400.73 16901.39,10661.44 19460.8,9395.46 19460.7,8301.32 16901.39,9567.27 "/>
     <polygon class="fil2" points="14352.73,6955.3 14352.59,8049.44 16901.39,9310.16 19460.8,8044.17 19460.7,6950.03 16901.39,8215.99 "/>
     <polygon class="fil2" points="14352.73,5604.01 14352.59,6698.15 16901.39,7958.87 19460.8,6692.88 19460.7,5598.74 16901.39,6864.7 "/>
     <path class="fil2" d="M16901.39 846.64l2548.8 1260.75 -2548.8 -1260.75zm-2548.66 4487.12l2548.66 1260.68 -2548.66 -1260.68z"/>
     <polygon class="fil2" points="11091.33,7787.56 13640.53,9048.51 13640.6,7954.38 12197.36,7240.46 "/>
     <polygon class="fil3" points="22711.46,7787.56 20172.86,9043.24 20172.79,7949.11 21605.43,7240.46 "/>
    </g>
   </g>
   <path class="fil4" d="M712.7 71.1l32461.56 0c386.42,0 702.55,316.14 702.55,702.53l0 16882.94c0,386.41 -316.13,702.53 -702.55,702.53l-32461.56 0c-386.42,0 -702.55,-316.12 -702.55,-702.53l0 -16882.94c0,-386.39 316.13,-702.53 702.55,-702.53z"/>
  </g>
 </g>
</svg>
