<?xml version="1.0" encoding="UTF-8"?>
<!DOCTYPE svg PUBLIC "-//W3C//DTD SVG 1.1//EN" "http://www.w3.org/Graphics/SVG/1.1/DTD/svg11.dtd">
<!-- Creator: CorelDRAW 2018 (64 Bit Versión de evaluación) -->
<svg xmlns="http://www.w3.org/2000/svg" xml:space="preserve" width="338.667mm" height="182.88mm" version="1.1" style="shape-rendering:geometricPrecision; text-rendering:geometricPrecision; image-rendering:optimizeQuality; fill-rule:evenodd; clip-rule:evenodd"
viewBox="0 0 33866.66 18287.98"
 xmlns:xlink="http://www.w3.org/1999/xlink">
 <defs>
  <style type="text/css">
   <![CDATA[
    .str0 {stroke:#A8CF45;stroke-width:7.62;stroke-miterlimit:22.9256}
    .fil4 {fill:none}
    .fil1 {fill:#A8CF45}
    .fil3 {fill:#A8CF45}
    .fil0 {fill:#191B4D}
    .fil2 {fill:#1D1C56;fill-rule:nonzero}
   ]]>
  </style>
 </defs>
 <g id="Capa_x0020_1">
  <metadata id="CorelCorpID_0Corel-Layer"/>
  <g id="_3107343759904">
   <g>
    <g>
     <polygon class="fil0" points="2463.09,9428.95 3554.46,9968.79 3554.49,9500.36 2936.6,9194.72 "/>
     <polygon class="fil0" points="2463.09,8850.43 3554.46,9390.27 3554.49,8921.85 2936.6,8616.2 "/>
     <polygon class="fil1" points="7437.94,9428.95 6351.1,9966.53 6351.07,9498.11 6964.42,9194.72 "/>
     <polygon class="fil1" points="7437.94,8850.43 6351.1,9388.02 6351.07,8919.59 6964.42,8616.2 "/>
     <polygon class="fil0" points="3859.37,8956.93 4950.51,9496.66 6043.92,8955.82 4952.78,8415.92 "/>
     <polygon class="fil0" points="2463.09,8266.28 3554.5,8806.14 4638.33,8266.83 3556.88,7725.25 "/>
     <polygon class="fil0" points="3863.27,7575.36 4952.78,8114.38 6041.71,7575.65 4950.51,7035.89 "/>
     <polygon class="fil1" points="5257.53,8265.14 6348.79,8805.01 7403.92,8249.46 6346.42,7726.37 "/>
     <polygon class="fil0" points="3859.37,10229.67 3859.31,10698.1 4950.51,11237.84 6046.25,10695.84 6046.21,10227.42 4950.51,10769.4 "/>
     <polygon class="fil0" points="3859.37,9651.15 3859.31,10119.58 4950.51,10659.32 6046.25,10117.32 6046.21,9648.9 4950.51,10190.88 "/>
     <polygon class="fil0" points="3859.37,9072.64 3859.31,9541.06 4950.51,10080.8 6046.25,9538.81 6046.21,9070.38 4950.51,9612.36 "/>
     <path class="fil0" d="M4950.51 7035.89l1091.2 539.76 -1091.2 -539.76zm-1091.14 1921.04l1091.14 539.73 -1091.14 -539.73z"/>
     <polygon class="fil0" points="2463.09,10007.46 3554.46,10547.31 3554.49,10078.88 2936.6,9773.24 "/>
     <polygon class="fil1" points="7437.94,10007.46 6351.1,10545.05 6351.07,10076.62 6964.42,9773.24 "/>
    </g>
    <g>
     <path class="fil2" d="M24798.02 11237.85l-796.09 0 0 -770.7 788.62 0 0 131.43 -609.39 0 0 171.77 355.48 0 0 131.44 -355.48 0 0 191.18 616.86 0 0 144.88zm1236.71 0l-122.47 0 -566.08 -476.46c-23.9,-19.92 -45.31,-40.83 -64.23,-62.73 4.98,49.78 7.47,89.12 7.47,117.99l0 421.2 -161.31 0 0 -770.7 122.48 0 542.18 454.05c38.83,32.86 68.21,60.74 88.12,83.65 -4.98,-71.7 -7.47,-116.01 -7.47,-132.93l0 -404.77 161.31 0 0 770.7zm1766.95 0l-796.09 0 0 -770.7 788.62 0 0 131.43 -609.39 0 0 171.77 355.48 0 0 131.44 -355.48 0 0 191.18 616.86 0 0 144.88zm1165.02 -449.58c0,99.58 -57.75,149.36 -173.26,149.36l-483.93 0 0 300.22 -176.24 0 0 -770.7 660.17 0c115.51,0 173.26,49.78 173.26,149.36l0 171.76zm-173.26 -44.8l0 -82.15c0,-25.89 -7.47,-42.82 -22.4,-50.79 -10.96,-6.97 -30.37,-10.45 -58.25,-10.45l-403.28 0 0 204.62 403.28 0c27.88,0 47.29,-3.48 58.25,-10.45 14.93,-7.97 22.4,-24.9 22.4,-50.78zm1286 312.16c0,71.69 -13.94,119.99 -41.82,144.88 -27.88,24.89 -78.17,37.34 -150.86,37.34l-476.46 0c-78.66,0 -130.44,-13.94 -155.33,-41.82 -24.9,-27.88 -37.34,-81.65 -37.34,-161.31l158.32 -32.86 0 91.11 545.17 0 0 -176.25 -480.95 0c-72.69,0 -122.72,-12.44 -150.1,-37.34 -27.39,-24.89 -41.08,-73.18 -41.08,-144.88l0 -85.13c0,-71.7 13.69,-119.99 41.08,-144.88 27.38,-24.9 77.41,-37.34 150.1,-37.34l437.63 0c73.69,0 123.97,12.69 150.86,38.08 26.88,25.4 40.32,74.44 40.32,147.12l-158.32 37.35 0 -88.13 -504.84 0 0 165.79 480.94 0c72.69,0 122.98,12.45 150.86,37.34 27.88,24.9 41.82,73.19 41.82,144.88l0 106.05z"/>
     <path class="fil2" d="M9780.55 9711.86c0,141.07 -26.94,236.09 -80.82,285.08 -53.88,48.98 -152.34,73.47 -295.37,73.47l-905.19 0c-143.02,0 -241.48,-24.49 -295.36,-73.47 -53.88,-48.99 -80.82,-144.01 -80.82,-285.08l0 -799.39c0,-141.07 26.94,-236.09 80.82,-285.07 53.88,-48.99 152.34,-73.48 295.36,-73.48l905.19 0c180.26,0 291.94,42.13 335.04,126.38 27.43,48.98 41.15,174.37 41.15,376.18l-352.67 55.84 0 -288.02 -952.22 0 0 961.03 952.22 0 0 -326.22 352.67 73.48 0 179.27zm2224.47 0c0,141.07 -26.94,236.09 -80.82,285.08 -53.88,48.98 -152.34,73.47 -295.36,73.47l-1116.8 0c-143.02,0 -241.48,-24.49 -295.36,-73.47 -53.88,-48.99 -80.82,-144.01 -80.82,-285.08l0 -799.39c0,-141.07 26.94,-236.09 80.82,-285.07 53.88,-48.99 152.34,-73.48 295.36,-73.48l1116.8 0c143.02,0 241.48,24.49 295.36,73.48 53.88,48.98 80.82,144 80.82,285.07l0 799.39zm-352.67 73.47l0 -961.03 -1163.82 0 0 961.03 1163.82 0zm2536 285.08l-240.99 0 -1113.86 -937.52c-47.02,-39.18 -89.14,-80.33 -126.37,-123.43 9.8,97.96 14.69,175.35 14.69,232.17l0 828.78 -317.4 0 0 -1516.49 240.99 0 1066.83 893.44c76.42,64.65 134.21,119.51 173.4,164.58 -9.8,-141.07 -14.69,-228.26 -14.69,-261.57l0 -796.45 317.4 0 0 1516.49zm2077.53 -358.55c0,141.07 -27.43,236.09 -82.29,285.08 -54.86,48.98 -153.8,73.47 -296.83,73.47l-937.52 0c-154.78,0 -256.67,-27.43 -305.65,-82.29 -48.98,-54.86 -73.47,-160.66 -73.47,-317.4l311.52 -64.66 0 179.27 1072.71 0 0 -346.79 -946.33 0c-143.03,0 -241.48,-24.49 -295.36,-73.47 -53.89,-48.99 -80.83,-144.01 -80.83,-285.08l0 -167.52c0,-141.07 26.94,-236.09 80.83,-285.07 53.88,-48.99 152.33,-73.48 295.36,-73.48l861.1 0c144.99,0 243.94,24.98 296.84,74.94 52.9,49.97 79.35,146.46 79.35,289.49l-311.53 73.47 0 -173.39 -993.36 0 0 326.22 946.34 0c143.03,0 241.97,24.49 296.83,73.47 54.86,48.98 82.29,144.01 82.29,285.08l0 208.66zm1795.39 -887.56l-699.47 0 0 1246.11 -352.67 0 0 -1246.11 -696.53 0 0 -270.38 1748.67 0 0 270.38zm1889.43 1246.11l-505.49 0 -611.3 -573.09 -335.04 0 0 573.09 -346.79 0 0 -1516.49 1299.01 0c227.27,0 340.91,97.97 340.91,293.9l0 355.61c0,146.94 -58.78,238.05 -176.33,273.32 -45.07,13.71 -166.54,20.57 -364.43,20.57l699.46 573.09zm-499.61 -952.21l0 -182.22c0,-50.94 -14.7,-84.25 -44.09,-99.92 -21.55,-13.72 -59.76,-20.57 -114.62,-20.57l-793.51 0 0 423.2 793.51 0c54.86,0 93.07,-6.85 114.62,-20.57 29.39,-15.67 44.09,-48.98 44.09,-99.92zm2427.26 593.66c0,141.07 -26.94,236.09 -80.82,285.08 -53.88,48.98 -152.34,73.47 -295.37,73.47l-958.09 0c-143.03,0 -241.48,-24.49 -295.36,-73.47 -53.88,-48.99 -80.82,-144.01 -80.82,-285.08l0 -1157.94 352.67 0 0 1231.41 1005.11 0 0 -1231.41 352.68 0 0 1157.94zm2074.58 -526.07c0,195.93 -113.64,293.9 -340.91,293.9l-952.22 0 0 590.72 -346.79 0 0 -1516.49 1299.01 0c227.27,0 340.91,97.97 340.91,293.9l0 337.97zm-340.91 -88.17l0 -161.64c0,-50.94 -14.7,-84.25 -44.09,-99.92 -21.55,-13.72 -59.76,-20.57 -114.62,-20.57l-793.51 0 0 402.63 793.51 0c54.86,0 93.07,-6.86 114.62,-20.57 29.39,-15.68 44.09,-48.98 44.09,-99.93zm2156.88 972.79l-396.75 0 -182.22 -332.1 -961.03 0 -176.33 332.1 -352.68 0 858.17 -1516.49 340.92 0 869.92 1516.49zm-725.91 -605.42l-326.23 -617.17 -337.97 617.17 664.2 0zm2653.56 605.42l-240.99 0 -1113.86 -937.52c-47.02,-39.18 -89.14,-80.33 -126.37,-123.43 9.8,97.96 14.69,175.35 14.69,232.17l0 828.78 -317.4 0 0 -1516.49 240.99 0 1066.83 893.44c76.42,64.65 134.21,119.51 173.4,164.58 -9.8,-141.07 -14.69,-228.26 -14.69,-261.57l0 -796.45 317.4 0 0 1516.49zm1998.18 0l-1566.45 0 0 -1516.49 1551.75 0 0 258.63 -1199.08 0 0 337.97 699.47 0 0 258.63 -699.47 0 0 376.18 1213.78 0 0 285.08zm1801.27 0l-1490.04 0 0 -1516.49 352.67 0 0 1231.41 1137.37 0 0 285.08z"/>
     <g>
      <polygon class="fil3 str0" points="14137.1,7088.47 18597.35,7088.47 18597.35,7908.5 14137.1,7908.5 "/>
      <path class="fil2" d="M9352.07 7345.72l-226.63 0 0 427.25 -114.28 0 0 -427.25 -225.7 0 0 -92.7 566.61 0 0 92.7zm735.18 304.31c0,48.37 -8.72,80.95 -26.18,97.74 -17.47,16.8 -49.36,25.2 -95.71,25.2l-361.87 0c-46.35,0 -78.25,-8.4 -95.71,-25.2 -17.46,-16.79 -26.19,-49.37 -26.19,-97.74l0 -274.08c0,-48.37 8.73,-80.94 26.19,-97.74 17.46,-16.8 49.36,-25.19 95.71,-25.19l361.87 0c46.35,0 78.24,8.39 95.71,25.19 17.46,16.8 26.18,49.37 26.18,97.74l0 274.08zm-114.27 25.19l0 -329.5 -377.11 0 0 329.5 377.11 0zm952.3 -165.25c0,100.76 -36.19,175 -108.57,222.69 -41.26,26.87 -108.55,40.31 -201.88,40.31l-286.64 0 0 -519.95 316.16 0c85.07,0 151.73,20.15 199.98,60.46 53.96,44.33 80.95,109.83 80.95,196.49zm-118.09 -2.01c0,-108.16 -53.96,-162.24 -161.89,-162.24l-202.84 0 0 329.5 147.61 0c69.83,0 120.62,-9.4 152.37,-28.21 43.17,-25.52 64.75,-71.88 64.75,-139.05zm922.77 142.07c0,48.37 -8.72,80.95 -26.18,97.74 -17.46,16.8 -49.36,25.2 -95.71,25.2l-361.86 0c-46.36,0 -78.25,-8.4 -95.72,-25.2 -17.45,-16.79 -26.18,-49.37 -26.18,-97.74l0 -274.08c0,-48.37 8.73,-80.94 26.18,-97.74 17.47,-16.8 49.36,-25.19 95.72,-25.19l361.86 0c46.35,0 78.25,8.39 95.71,25.19 17.46,16.8 26.18,49.37 26.18,97.74l0 274.08zm-114.27 25.19l0 -329.5 -377.1 0 0 329.5 377.1 0zm1231.33 97.75l-507.58 0 0 -519.95 502.82 0 0 88.67 -388.55 0 0 115.88 226.65 0 0 88.67 -226.65 0 0 128.98 393.31 0 0 97.75zm788.5 0l-78.1 0 -360.91 -321.45c-15.24,-13.43 -28.89,-27.54 -40.95,-42.32 3.18,33.59 4.76,60.12 4.76,79.61l0 284.16 -102.84 0 0 -519.95 78.08 0 345.69 306.32c24.76,22.17 43.48,40.98 56.18,56.44 -3.17,-48.37 -4.76,-78.27 -4.76,-89.69l0 -273.07 102.85 0 0 519.95zm733.26 0l-114.27 0 0 -519.95 114.27 0 0 519.95zm778.04 -122.94c0,48.37 -8.74,80.95 -26.2,97.74 -17.46,16.8 -49.36,25.2 -95.7,25.2l-293.3 0c-46.36,0 -78.25,-8.4 -95.72,-25.2 -17.45,-16.79 -26.19,-49.37 -26.19,-97.74l0 -274.08c0,-48.37 8.74,-80.94 26.19,-97.74 17.47,-16.8 49.36,-25.19 95.72,-25.19l293.3 0c58.4,0 94.59,14.44 108.56,43.32 8.88,16.8 13.34,59.79 13.34,128.99l-114.28 19.14 0 -98.75 -308.55 0 0 329.5 308.55 0 0 -111.85 114.28 25.19 0 61.47zm831.35 0c0,48.37 -8.73,80.95 -26.19,97.74 -17.46,16.8 -49.36,25.2 -95.71,25.2l-361.87 0c-46.34,0 -78.24,-8.4 -95.7,-25.2 -17.46,-16.79 -26.2,-49.37 -26.2,-97.74l0 -274.08c0,-48.37 8.74,-80.94 26.2,-97.74 17.46,-16.8 49.36,-25.19 95.7,-25.19l361.87 0c46.35,0 78.25,8.39 95.71,25.19 17.46,16.8 26.19,49.37 26.19,97.74l0 274.08zm-114.28 25.19l0 -329.5 -377.11 0 0 329.5 377.11 0zm886.6 -205.56c0,67.18 -36.83,100.77 -110.48,100.77l-308.54 0 0 202.54 -112.37 0 0 -519.95 420.91 0c73.65,0 110.48,33.59 110.48,100.76l0 115.88zm-110.48 -30.23l0 -55.42c0,-17.46 -4.76,-28.89 -14.28,-34.26 -6.99,-4.7 -19.37,-7.05 -37.14,-7.05l-257.12 0 0 138.04 257.12 0c17.77,0 30.15,-2.34 37.14,-7.05 9.52,-5.37 14.28,-16.79 14.28,-34.26zm881.83 210.6c0,48.37 -8.73,80.95 -26.18,97.74 -17.46,16.8 -49.36,25.2 -95.71,25.2l-361.87 0c-46.35,0 -78.25,-8.4 -95.71,-25.2 -17.45,-16.79 -26.19,-49.37 -26.19,-97.74l0 -274.08c0,-48.37 8.74,-80.94 26.19,-97.74 17.46,-16.8 49.36,-25.19 95.71,-25.19l361.87 0c46.35,0 78.25,8.39 95.71,25.19 17.45,16.8 26.18,49.37 26.18,97.74l0 274.08zm-114.27 25.19l0 -329.5 -377.11 0 0 329.5 377.11 0zm938.02 97.75l-163.8 0 -198.08 -196.5 -108.56 0 0 196.5 -112.37 0 0 -519.95 420.91 0c73.65,0 110.47,33.59 110.47,100.76l0 121.93c0,50.38 -19.05,81.62 -57.14,93.71 -14.6,4.71 -53.95,7.05 -118.08,7.05l226.65 196.5zm-161.9 -326.48l0 -62.48c0,-17.46 -4.76,-28.89 -14.28,-34.26 -6.99,-4.7 -19.37,-7.05 -37.14,-7.05l-257.12 0 0 145.1 257.12 0c17.77,0 30.15,-2.35 37.14,-7.06 9.52,-5.37 14.28,-16.79 14.28,-34.25zm1242.75 23.17c0,67.18 -36.82,100.77 -110.46,100.77l-308.55 0 0 202.54 -112.36 0 0 -519.95 420.91 0c73.64,0 110.46,33.59 110.46,100.76l0 115.88zm-110.46 -30.23l0 -55.42c0,-17.46 -4.77,-28.89 -14.29,-34.26 -6.98,-4.7 -19.36,-7.05 -37.14,-7.05l-257.12 0 0 138.04 257.12 0c17.78,0 30.16,-2.34 37.14,-7.05 9.52,-5.37 14.29,-16.79 14.29,-34.26zm809.45 333.54l-128.55 0 -59.05 -113.87 -311.4 0 -57.14 113.87 -114.28 0 278.08 -519.95 110.47 0 281.87 519.95zm-235.21 -207.58l-105.71 -211.61 -109.52 211.61 215.23 0zm976.1 207.58l-163.79 0 -198.08 -196.5 -108.57 0 0 196.5 -112.36 0 0 -519.95 420.91 0c73.64,0 110.47,33.59 110.47,100.76l0 121.93c0,50.38 -19.05,81.62 -57.14,93.71 -14.6,4.71 -53.96,7.05 -118.09,7.05l226.65 196.5zm-161.89 -326.48l0 -62.48c0,-17.46 -4.76,-28.89 -14.28,-34.26 -6.99,-4.7 -19.37,-7.05 -37.14,-7.05l-257.13 0 0 145.1 257.13 0c17.77,0 30.15,-2.35 37.14,-7.06 9.52,-5.37 14.28,-16.79 14.28,-34.25zm883.73 326.48l-128.55 0 -59.05 -113.87 -311.4 0 -57.14 113.87 -114.28 0 278.08 -519.95 110.46 0 281.88 519.95zm-235.21 -207.58l-105.7 -211.61 -109.52 211.61 215.22 0zm1288.46 84.64c0,48.37 -8.74,80.95 -26.2,97.74 -17.46,16.8 -49.36,25.2 -95.7,25.2l-293.31 0c-46.34,0 -78.24,-8.4 -95.7,-25.2 -17.47,-16.79 -26.19,-49.37 -26.19,-97.74l0 -274.08c0,-48.37 8.72,-80.94 26.19,-97.74 17.46,-16.8 49.36,-25.19 95.7,-25.19l293.31 0c58.41,0 94.59,14.44 108.56,43.32 8.89,16.8 13.34,59.79 13.34,128.99l-114.28 19.14 0 -98.75 -308.55 0 0 329.5 308.55 0 0 -111.85 114.28 25.19 0 61.47zm831.35 0c0,48.37 -8.73,80.95 -26.19,97.74 -17.46,16.8 -49.36,25.2 -95.71,25.2l-361.87 0c-46.34,0 -78.25,-8.4 -95.7,-25.2 -17.46,-16.79 -26.2,-49.37 -26.2,-97.74l0 -274.08c0,-48.37 8.74,-80.94 26.2,-97.74 17.45,-16.8 49.36,-25.19 95.7,-25.19l361.87 0c46.35,0 78.25,8.39 95.71,25.19 17.46,16.8 26.19,49.37 26.19,97.74l0 274.08zm-114.28 25.19l0 -329.5 -377.11 0 0 329.5 377.11 0zm932.31 97.75l-78.09 0 -360.93 -321.45c-15.23,-13.43 -28.88,-27.54 -40.95,-42.32 3.18,33.59 4.76,60.12 4.76,79.61l0 284.16 -102.84 0 0 -519.95 78.09 0 345.68 306.32c24.76,22.17 43.49,40.98 56.19,56.44 -3.18,-48.37 -4.76,-78.27 -4.76,-89.69l0 -273.07 102.85 0 0 519.95zm783.73 -122.94c0,48.37 -8.89,80.95 -26.66,97.74 -17.78,16.8 -49.84,25.2 -96.19,25.2l-303.77 0c-50.17,0 -83.18,-9.41 -99.05,-28.22 -15.87,-18.81 -23.81,-55.08 -23.81,-108.83l100.95 -22.16 0 61.46 347.59 0 0 -118.9 -306.64 0c-46.34,0 -78.25,-8.4 -95.7,-25.19 -17.47,-16.79 -26.19,-49.38 -26.19,-97.75l0 -57.43c0,-48.37 8.72,-80.94 26.19,-97.74 17.45,-16.8 49.36,-25.19 95.7,-25.19l279.02 0c46.98,0 79.04,8.56 96.18,25.69 17.15,17.13 25.72,50.22 25.72,99.26l-100.95 25.18 0 -59.45 -321.87 0 0 111.86 306.63 0c46.35,0 78.41,8.39 96.19,25.18 17.77,16.8 26.66,49.38 26.66,97.75l0 71.54zm692.32 -304.31l-226.64 0 0 427.25 -114.28 0 0 -427.25 -225.7 0 0 -92.7 566.62 0 0 92.7zm722.8 427.25l-163.8 0 -198.08 -196.5 -108.57 0 0 196.5 -112.36 0 0 -519.95 420.91 0c73.64,0 110.47,33.59 110.47,100.76l0 121.93c0,50.38 -19.04,81.62 -57.14,93.71 -14.59,4.71 -53.96,7.05 -118.08,7.05l226.65 196.5zm-161.9 -326.48l0 -62.48c0,-17.46 -4.76,-28.89 -14.28,-34.26 -6.98,-4.7 -19.36,-7.05 -37.13,-7.05l-257.14 0 0 145.1 257.14 0c17.77,0 30.15,-2.35 37.13,-7.06 9.52,-5.37 14.28,-16.79 14.28,-34.25zm897.08 203.54c0,48.37 -8.74,80.95 -26.2,97.74 -17.46,16.8 -49.36,25.2 -95.71,25.2l-310.44 0c-46.35,0 -78.25,-8.4 -95.71,-25.2 -17.46,-16.79 -26.18,-49.37 -26.18,-97.74l0 -397.01 114.27 0 0 422.2 325.69 0 0 -422.2 114.28 0 0 397.01zm778.02 0c0,48.37 -8.73,80.95 -26.2,97.74 -17.45,16.8 -49.35,25.2 -95.7,25.2l-293.3 0c-46.35,0 -78.25,-8.4 -95.71,-25.2 -17.46,-16.79 -26.19,-49.37 -26.19,-97.74l0 -274.08c0,-48.37 8.73,-80.94 26.19,-97.74 17.46,-16.8 49.36,-25.19 95.71,-25.19l293.3 0c58.41,0 94.6,14.44 108.56,43.32 8.89,16.8 13.34,59.79 13.34,128.99l-114.28 19.14 0 -98.75 -308.54 0 0 329.5 308.54 0 0 -111.85 114.28 25.19 0 61.47zm762.79 0c0,48.37 -8.73,80.95 -26.19,97.74 -17.46,16.8 -49.36,25.2 -95.71,25.2l-293.3 0c-46.35,0 -78.25,-8.4 -95.71,-25.2 -17.46,-16.79 -26.19,-49.37 -26.19,-97.74l0 -274.08c0,-48.37 8.73,-80.94 26.19,-97.74 17.46,-16.8 49.36,-25.19 95.71,-25.19l293.3 0c58.41,0 94.59,14.44 108.57,43.32 8.88,16.8 13.33,59.79 13.33,128.99l-114.28 19.14 0 -98.75 -308.55 0 0 329.5 308.55 0 0 -111.85 114.28 25.19 0 61.47zm350.44 122.94l-114.27 0 0 -519.95 114.27 0 0 519.95zm846.6 -122.94c0,48.37 -8.73,80.95 -26.19,97.74 -17.46,16.8 -49.36,25.2 -95.71,25.2l-361.87 0c-46.34,0 -78.25,-8.4 -95.7,-25.2 -17.46,-16.79 -26.2,-49.37 -26.2,-97.74l0 -274.08c0,-48.37 8.74,-80.94 26.2,-97.74 17.45,-16.8 49.36,-25.19 95.7,-25.19l361.87 0c46.35,0 78.25,8.39 95.71,25.19 17.46,16.8 26.19,49.37 26.19,97.74l0 274.08zm-114.28 25.19l0 -329.5 -377.11 0 0 329.5 377.11 0zm-59.04 -647.92l-137.13 170.3 -60.94 0 95.22 -170.3 102.85 0zm991.34 745.67l-78.09 0 -360.92 -321.45c-15.23,-13.43 -28.89,-27.54 -40.95,-42.32 3.18,33.59 4.76,60.12 4.76,79.61l0 284.16 -102.84 0 0 -519.95 78.09 0 345.68 306.32c24.76,22.17 43.49,40.98 56.19,56.44 -3.18,-48.37 -4.76,-78.27 -4.76,-89.69l0 -273.07 102.84 0 0 519.95z"/>
     </g>
    </g>
   </g>
   <rect class="fil4" x="-0" y="3386.65" width="33866.67" height="11176" rx="477.31" ry="477.31"/>
  </g>
 </g>
</svg>
