<?xml version="1.0" encoding="UTF-8"?>
<!DOCTYPE svg PUBLIC "-//W3C//DTD SVG 1.1//EN" "http://www.w3.org/Graphics/SVG/1.1/DTD/svg11.dtd">
<!-- Creator: CorelDRAW 2017 -->
<svg xmlns="http://www.w3.org/2000/svg" xml:space="preserve" width="90mm" height="50mm" version="1.1" style="shape-rendering:geometricPrecision; text-rendering:geometricPrecision; image-rendering:optimizeQuality; fill-rule:evenodd; clip-rule:evenodd"
viewBox="0 0 9000 5000"
 xmlns:xlink="http://www.w3.org/1999/xlink">
 <defs>
  <style type="text/css">
   <![CDATA[
    .str0 {stroke:white;stroke-width:9.25;stroke-miterlimit:22.9256}
    .fil77 {fill:black}
    .fil1 {fill:black;fill-opacity:0.000000}
    .fil2 {fill:black;fill-opacity:0.011765}
    .fil3 {fill:black;fill-opacity:0.019608}
    .fil4 {fill:black;fill-opacity:0.031373}
    .fil5 {fill:black;fill-opacity:0.039216}
    .fil6 {fill:black;fill-opacity:0.050980}
    .fil7 {fill:black;fill-opacity:0.058824}
    .fil8 {fill:black;fill-opacity:0.070588}
    .fil9 {fill:black;fill-opacity:0.078431}
    .fil10 {fill:black;fill-opacity:0.086275}
    .fil11 {fill:black;fill-opacity:0.098039}
    .fil12 {fill:black;fill-opacity:0.105882}
    .fil13 {fill:black;fill-opacity:0.117647}
    .fil14 {fill:black;fill-opacity:0.129412}
    .fil15 {fill:black;fill-opacity:0.137255}
    .fil16 {fill:black;fill-opacity:0.149020}
    .fil17 {fill:black;fill-opacity:0.156863}
    .fil18 {fill:black;fill-opacity:0.168627}
    .fil19 {fill:black;fill-opacity:0.180392}
    .fil20 {fill:black;fill-opacity:0.188235}
    .fil21 {fill:black;fill-opacity:0.200000}
    .fil22 {fill:black;fill-opacity:0.207843}
    .fil23 {fill:black;fill-opacity:0.215686}
    .fil24 {fill:black;fill-opacity:0.227451}
    .fil25 {fill:black;fill-opacity:0.235294}
    .fil26 {fill:black;fill-opacity:0.247059}
    .fil27 {fill:black;fill-opacity:0.254902}
    .fil28 {fill:black;fill-opacity:0.266667}
    .fil29 {fill:black;fill-opacity:0.278431}
    .fil30 {fill:black;fill-opacity:0.286275}
    .fil31 {fill:black;fill-opacity:0.298039}
    .fil32 {fill:black;fill-opacity:0.305882}
    .fil33 {fill:black;fill-opacity:0.317647}
    .fil34 {fill:black;fill-opacity:0.329412}
    .fil35 {fill:black;fill-opacity:0.337255}
    .fil36 {fill:black;fill-opacity:0.345098}
    .fil37 {fill:black;fill-opacity:0.356863}
    .fil38 {fill:black;fill-opacity:0.364706}
    .fil39 {fill:black;fill-opacity:0.372549}
    .fil40 {fill:black;fill-opacity:0.384314}
    .fil41 {fill:black;fill-opacity:0.396078}
    .fil42 {fill:black;fill-opacity:0.403922}
    .fil43 {fill:black;fill-opacity:0.415686}
    .fil44 {fill:black;fill-opacity:0.423529}
    .fil45 {fill:black;fill-opacity:0.435294}
    .fil46 {fill:black;fill-opacity:0.447059}
    .fil47 {fill:black;fill-opacity:0.454902}
    .fil48 {fill:black;fill-opacity:0.466667}
    .fil49 {fill:black;fill-opacity:0.474510}
    .fil50 {fill:black;fill-opacity:0.486275}
    .fil51 {fill:black;fill-opacity:0.494118}
    .fil52 {fill:black;fill-opacity:0.501961}
    .fil53 {fill:black;fill-opacity:0.513725}
    .fil54 {fill:black;fill-opacity:0.521569}
    .fil55 {fill:black;fill-opacity:0.533333}
    .fil56 {fill:black;fill-opacity:0.545098}
    .fil57 {fill:black;fill-opacity:0.552941}
    .fil58 {fill:black;fill-opacity:0.564706}
    .fil59 {fill:black;fill-opacity:0.572549}
    .fil60 {fill:black;fill-opacity:0.584314}
    .fil61 {fill:black;fill-opacity:0.596078}
    .fil62 {fill:black;fill-opacity:0.603922}
    .fil63 {fill:black;fill-opacity:0.615686}
    .fil64 {fill:black;fill-opacity:0.623529}
    .fil65 {fill:black;fill-opacity:0.631373}
    .fil66 {fill:black;fill-opacity:0.643137}
    .fil67 {fill:black;fill-opacity:0.650980}
    .fil68 {fill:black;fill-opacity:0.662745}
    .fil69 {fill:black;fill-opacity:0.670588}
    .fil70 {fill:black;fill-opacity:0.682353}
    .fil71 {fill:black;fill-opacity:0.690196}
    .fil72 {fill:black;fill-opacity:0.701961}
    .fil79 {fill:url(#id0)}
    .fil73 {fill:url(#id1)}
    .fil80 {fill:url(#id2)}
    .fil75 {fill:url(#id3)}
    .fil0 {fill:url(#id4)}
    .fil78 {fill:url(#id5)}
    .fil82 {fill:url(#id6)}
    .fil74 {fill:url(#id7)}
    .fil76 {fill:url(#id8)}
    .fil83 {fill:url(#id9)}
    .fil81 {fill:url(#id10)}
   ]]>
  </style>
  <linearGradient id="id0" gradientUnits="userSpaceOnUse" x1="7086.34" y1="2023.39" x2="7755" y2="2692.04">
   <stop offset="0" style="stop-opacity:1; stop-color:#C3C4C3"/>
   <stop offset="0.219608" style="stop-opacity:1; stop-color:#DADADA"/>
   <stop offset="0.478431" style="stop-opacity:1; stop-color:#EEEFEE"/>
   <stop offset="0.74902" style="stop-opacity:1; stop-color:#FBFBFB"/>
   <stop offset="1" style="stop-opacity:1; stop-color:white"/>
  </linearGradient>
  <linearGradient id="id1" gradientUnits="userSpaceOnUse" xlink:href="#id0" x1="5562.59" y1="2007.86" x2="6231.25" y2="2694.11">
  </linearGradient>
  <linearGradient id="id2" gradientUnits="userSpaceOnUse" x1="7156.72" y1="2340.12" x2="7684.61" y2="2340.12">
   <stop offset="0" style="stop-opacity:1; stop-color:#004726"/>
   <stop offset="1" style="stop-opacity:1; stop-color:#009444"/>
  </linearGradient>
  <linearGradient id="id3" gradientUnits="userSpaceOnUse" x1="2359.74" y1="2355.28" x2="3538.68" y2="2355.28">
   <stop offset="0" style="stop-opacity:1; stop-color:#F41B1A"/>
   <stop offset="1" style="stop-opacity:1; stop-color:#8F0707"/>
  </linearGradient>
  <linearGradient id="id4" gradientUnits="userSpaceOnUse" x1="5323.2" y1="2341.33" x2="6477.65" y2="2341.33">
   <stop offset="0" style="stop-opacity:1; stop-color:#005983"/>
   <stop offset="1" style="stop-opacity:1; stop-color:#003954"/>
  </linearGradient>
  <linearGradient id="id5" gradientUnits="userSpaceOnUse" x1="6839.99" y1="2336.74" x2="8001.34" y2="2336.74">
   <stop offset="0" style="stop-opacity:1; stop-color:#009444"/>
   <stop offset="1" style="stop-opacity:1; stop-color:#004726"/>
  </linearGradient>
  <linearGradient id="id6" gradientUnits="userSpaceOnUse" xlink:href="#id0" x1="4069.55" y1="2023.68" x2="4755.81" y2="2692.33">
  </linearGradient>
  <linearGradient id="id7" gradientUnits="userSpaceOnUse" x1="5773.74" y1="2342.19" x2="6020.09" y2="2342.19">
   <stop offset="0" style="stop-opacity:1; stop-color:#003954"/>
   <stop offset="1" style="stop-opacity:1; stop-color:#005983"/>
  </linearGradient>
  <linearGradient id="id8" gradientUnits="userSpaceOnUse" xlink:href="#id0" x1="2606.08" y1="2017.44" x2="3292.34" y2="2703.7">
  </linearGradient>
  <linearGradient id="id9" gradientUnits="userSpaceOnUse" x1="4157.53" y1="2358" x2="4597.44" y2="2358">
   <stop offset="0" style="stop-opacity:1; stop-color:#4C216B"/>
   <stop offset="1" style="stop-opacity:1; stop-color:#F7941E"/>
  </linearGradient>
  <linearGradient id="id10" gradientUnits="userSpaceOnUse" x1="3840.8" y1="2337.03" x2="5002.15" y2="2337.03">
   <stop offset="0" style="stop-opacity:1; stop-color:#F7941E"/>
   <stop offset="1" style="stop-opacity:1; stop-color:#4C216B"/>
  </linearGradient>
 </defs>
 <g id="Capa_x0020_1">
  <metadata id="CorelCorpID_0Corel-Layer"/>
  <path class="fil0" d="M6488.14 2350.98c0,-323.77 -262.19,-587.71 -587.72,-587.71l-573.63 0c121.41,181.24 52.78,387.12 14.07,526.13 -22.87,80.94 -21.11,165.4 5.28,244.58 77.43,234.03 297.38,402.96 557.8,402.96 322.01,1.76 584.2,-262.19 584.2,-585.96z"/>
  <path class="fil1" d="M5953.21 2889.43c-278.02,0 -503.25,-225.23 -503.25,-503.25 0,-278.02 226.99,-503.26 503.25,-503.26 278.02,0 503.25,225.24 503.25,503.26 0,276.26 -225.23,503.25 -503.25,503.25z"/>
  <path class="fil2" d="M5951.45 2887.67c-278.02,0 -503.25,-225.23 -503.25,-503.25 0,-278.02 225.23,-503.26 503.25,-503.26 278.02,0 503.25,225.24 503.25,503.26 1.76,278.02 -225.23,503.25 -503.25,503.25z"/>
  <path class="fil3" d="M5951.45 2887.67c-278.02,0 -503.25,-225.23 -503.25,-503.25 0,-278.02 225.23,-503.26 503.25,-503.26 278.02,0 503.25,225.24 503.25,503.26 0,278.02 -225.23,503.25 -503.25,503.25z"/>
  <path class="fil4" d="M5951.45 2887.67c-278.02,0 -503.25,-225.23 -503.25,-503.25 0,-278.02 225.23,-503.26 503.25,-503.26 278.02,0 503.25,225.24 503.25,503.26 -1.75,276.26 -226.99,503.25 -503.25,503.25z"/>
  <path class="fil5" d="M5949.69 2885.91c-278.02,0 -503.25,-225.23 -503.25,-503.25 0,-278.02 225.23,-503.26 503.25,-503.26 278.02,0 503.26,225.24 503.26,503.26 0,278.02 -225.24,503.25 -503.26,503.25z"/>
  <path class="fil6" d="M5949.69 2885.91c-278.02,0 -503.25,-225.23 -503.25,-503.25 0,-278.02 225.23,-503.26 503.25,-503.26 276.26,0 503.26,225.24 503.26,503.26 0,278.02 -227,503.25 -503.26,503.25z"/>
  <path class="fil7" d="M5947.93 2885.91c-276.26,0 -501.49,-225.23 -501.49,-501.49 0,-276.26 225.23,-501.5 501.49,-501.5 276.26,0 501.5,225.24 501.5,501.5 0,276.26 -223.48,501.49 -501.5,501.49z"/>
  <path class="fil8" d="M5947.93 2884.15c-276.26,0 -501.49,-225.23 -501.49,-501.49 0,-276.26 225.23,-501.5 501.49,-501.5 276.26,0 501.5,225.24 501.5,501.5 0,276.26 -225.24,501.49 -501.5,501.49z"/>
  <path class="fil9" d="M5947.93 2884.15c-276.26,0 -501.49,-225.23 -501.49,-501.49 0,-276.26 225.23,-501.5 501.49,-501.5 276.26,0 501.5,225.24 501.5,501.5 0,276.26 -225.24,501.49 -501.5,501.49z"/>
  <path class="fil10" d="M5946.17 2884.15c-276.26,0 -501.49,-225.23 -501.49,-501.49 0,-276.26 225.23,-501.5 501.49,-501.5 276.26,0 501.5,225.24 501.5,501.5 0,276.26 -225.24,501.49 -501.5,501.49z"/>
  <path class="fil11" d="M5946.17 2882.39c-276.26,0 -501.49,-225.23 -501.49,-501.49 0,-276.26 225.23,-501.5 501.49,-501.5 276.26,0 501.5,225.24 501.5,501.5 0,276.26 -225.24,501.49 -501.5,501.49z"/>
  <path class="fil12" d="M5944.41 2882.39c-276.26,0 -501.49,-225.23 -501.49,-501.49 0,-276.26 225.23,-501.5 501.49,-501.5 276.26,0 501.5,225.24 501.5,501.5 0,276.26 -225.24,501.49 -501.5,501.49z"/>
  <path class="fil13" d="M5944.41 2882.39c-276.26,0 -501.49,-225.23 -501.49,-499.73 0,-276.26 225.23,-499.74 501.49,-499.74 276.26,0 499.74,225.24 499.74,499.74 0,274.5 -223.48,499.73 -499.74,499.73z"/>
  <path class="fil14" d="M5944.41 2880.63c-276.26,0 -499.73,-225.23 -499.73,-499.73 0,-274.5 225.23,-499.74 499.73,-499.74 276.26,0 499.74,225.24 499.74,499.74 0,274.5 -225.23,499.73 -499.74,499.73z"/>
  <path class="fil15" d="M5942.65 2880.63c-276.26,0 -499.73,-223.47 -499.73,-499.73 0,-276.26 223.47,-499.74 499.73,-499.74 276.27,0 499.74,223.48 499.74,499.74 0,274.5 -223.47,499.73 -499.74,499.73z"/>
  <path class="fil16" d="M5942.65 2880.63c-276.26,0 -499.73,-223.47 -499.73,-499.73 0,-276.26 223.47,-499.74 499.73,-499.74 276.27,0 499.74,223.48 499.74,499.74 0,274.5 -225.23,499.73 -499.74,499.73z"/>
  <path class="fil17" d="M5940.89 2878.87c-276.26,0 -499.73,-223.47 -499.73,-499.73 0,-276.26 223.47,-499.74 499.73,-499.74 276.27,0 499.74,223.48 499.74,499.74 0,276.26 -223.47,499.73 -499.74,499.73z"/>
  <path class="fil18" d="M5940.89 2878.87c-274.5,0 -499.73,-223.47 -499.73,-499.73 0,-274.5 223.47,-499.74 499.73,-499.74 274.51,0 499.74,223.48 499.74,499.74 0,276.26 -225.23,499.73 -499.74,499.73z"/>
  <path class="fil19" d="M5940.89 2878.87c-274.5,0 -499.73,-223.47 -499.73,-499.73 0,-274.5 223.47,-499.74 499.73,-499.74 274.51,0 499.74,223.48 499.74,499.74 -1.76,274.5 -225.23,499.73 -499.74,499.73z"/>
  <path class="fil20" d="M5939.14 2877.11c-274.51,0 -497.98,-223.47 -497.98,-497.97 0,-274.5 223.47,-497.98 497.98,-497.98 274.5,0 497.97,223.48 497.97,497.98 0,274.5 -221.71,497.97 -497.97,497.97z"/>
  <path class="fil21" d="M5939.14 2877.11c-274.51,0 -497.98,-223.47 -497.98,-497.97 0,-274.5 223.47,-497.98 497.98,-497.98 274.5,0 497.97,223.48 497.97,497.98 0,274.5 -223.47,497.97 -497.97,497.97z"/>
  <path class="fil22" d="M5939.14 2877.11c-274.51,0 -497.98,-223.47 -497.98,-497.97 0,-274.5 223.47,-497.98 497.98,-497.98 274.5,0 497.97,223.48 497.97,497.98 0,274.5 -223.47,497.97 -497.97,497.97z"/>
  <path class="fil23" d="M5937.38 2875.35c-274.51,0 -497.98,-223.47 -497.98,-497.97 0,-274.5 223.47,-497.98 497.98,-497.98 274.5,0 497.97,223.48 497.97,497.98 0,274.5 -223.47,497.97 -497.97,497.97z"/>
  <path class="fil24" d="M5937.38 2875.35c-274.51,0 -497.98,-223.47 -497.98,-497.97 0,-274.5 223.47,-497.98 497.98,-497.98 274.5,0 497.97,223.48 497.97,497.98 0,274.5 -223.47,497.97 -497.97,497.97z"/>
  <path class="fil25" d="M5935.62 2875.35c-272.75,0 -496.22,-223.47 -496.22,-497.97 0,-274.5 223.47,-497.98 497.98,-497.98 274.5,0 497.97,223.48 497.97,497.98 -1.76,274.5 -225.23,497.97 -499.73,497.97z"/>
  <path class="fil26" d="M5935.62 2873.59c-274.51,0 -496.22,-223.47 -496.22,-496.21 0,-272.74 223.47,-496.22 496.22,-496.22 274.5,0 496.21,223.48 496.21,496.22 0,272.74 -221.71,496.21 -496.21,496.21z"/>
  <path class="fil27" d="M5935.62 2873.59c-274.51,0 -496.22,-223.47 -496.22,-496.21 0,-274.5 223.47,-496.22 496.22,-496.22 274.5,0 496.21,223.48 496.21,496.22 0,272.74 -223.47,496.21 -496.21,496.21z"/>
  <path class="fil28" d="M5933.86 2871.83c-274.51,0 -496.22,-223.47 -496.22,-496.21 0,-274.5 223.47,-496.22 496.22,-496.22 274.5,0 496.21,223.48 496.21,496.22 0,274.5 -221.71,496.21 -496.21,496.21z"/>
  <path class="fil29" d="M5933.86 2871.83c-272.75,0 -496.22,-221.71 -496.22,-496.21 0,-274.5 221.71,-496.22 496.22,-496.22 272.74,0 496.21,221.72 496.21,496.22 0,274.5 -223.47,496.21 -496.21,496.21z"/>
  <path class="fil30" d="M5932.1 2871.83c-272.75,0 -496.22,-221.71 -496.22,-496.21 0,-274.5 221.72,-496.22 496.22,-496.22 272.74,0 496.21,221.72 496.21,496.22 0,274.5 -221.71,496.21 -496.21,496.21z"/>
  <path class="fil31" d="M5932.1 2870.07c-272.75,0 -496.22,-221.71 -496.22,-496.21 0,-272.74 221.72,-496.21 496.22,-496.21 272.74,0 496.21,221.71 496.21,496.21 0,274.5 -223.47,496.21 -496.21,496.21z"/>
  <path class="fil32" d="M5932.1 2870.07c-272.75,0 -494.46,-221.71 -494.46,-494.45 0,-272.74 221.71,-494.46 494.46,-494.46 272.74,0 494.45,221.72 494.45,494.46 0,272.74 -221.71,494.45 -494.45,494.45z"/>
  <path class="fil33" d="M6044.91 1894.39c-265.76,-62.75 -532.07,101.82 -594.83,367.58 -62.75,265.76 101.82,532.07 367.58,594.83 265.76,62.75 532.07,-101.82 594.83,-367.58 62.75,-265.76 -101.82,-532.08 -367.58,-594.83z"/>
  <path class="fil34" d="M5930.34 2868.31c-272.74,0 -494.46,-221.71 -494.46,-494.45 0,-272.74 221.72,-494.46 494.46,-494.46 272.74,0 494.45,221.72 494.45,494.46 0,272.74 -221.71,494.45 -494.45,494.45z"/>
  <path class="fil35" d="M5928.58 2868.31c-272.74,0 -494.46,-221.71 -494.46,-494.45 0,-272.74 221.72,-494.46 494.46,-494.46 272.74,0 494.45,221.72 494.45,494.46 0,272.74 -221.71,494.45 -494.45,494.45z"/>
  <path class="fil36" d="M6423.03 2373.86c0,-273.08 -221.37,-494.46 -494.45,-494.46 -273.08,0 -494.46,221.38 -494.46,494.46 0,273.08 221.38,494.45 494.46,494.45 273.08,0 494.45,-221.37 494.45,-494.45z"/>
  <path class="fil37" d="M5928.58 2866.55c-272.74,0 -494.46,-221.71 -494.46,-494.45 0,-272.74 221.72,-494.45 494.46,-494.45 272.74,0 494.45,221.71 494.45,494.45 -1.76,274.5 -223.47,494.45 -494.45,494.45z"/>
  <path class="fil38" d="M5926.82 2866.55c-272.74,0 -492.7,-221.71 -492.7,-492.69 0,-270.98 221.72,-492.7 492.7,-492.7 272.74,0 492.69,221.72 492.69,492.7 0,270.98 -219.95,492.69 -492.69,492.69z"/>
  <path class="fil39" d="M5926.82 2866.55c-272.74,0 -492.7,-221.71 -492.7,-492.69 0,-270.98 221.72,-492.7 492.7,-492.7 270.98,0 492.69,221.72 492.69,492.7 0,270.98 -221.71,492.69 -492.69,492.69z"/>
  <path class="fil40" d="M5925.06 2864.79c-270.98,0 -492.7,-221.71 -492.7,-492.69 0,-270.98 221.72,-492.7 492.7,-492.7 270.98,0 492.69,221.72 492.69,492.7 1.76,272.74 -219.95,492.69 -492.69,492.69z"/>
  <path class="fil41" d="M5925.06 2864.79c-270.98,0 -492.7,-221.71 -492.7,-492.69 0,-270.98 221.72,-492.7 492.7,-492.7 270.98,0 492.69,221.72 492.69,492.7 0,270.98 -221.71,492.69 -492.69,492.69z"/>
  <path class="fil42" d="M5925.06 2864.79c-270.98,0 -492.7,-219.95 -492.7,-492.69 0,-270.98 219.96,-492.7 492.7,-492.7 270.98,0 492.69,219.96 492.69,492.7 -1.76,270.98 -221.71,492.69 -492.69,492.69z"/>
  <path class="fil43" d="M6037.28 1893.03c-264.81,-62.53 -530.18,101.45 -592.71,366.27 -62.53,264.81 101.46,530.18 366.27,592.71 264.82,62.53 530.18,-101.46 592.71,-366.27 62.53,-264.82 -101.45,-530.18 -366.27,-592.71z"/>
  <path class="fil44" d="M5923.3 2863.03c-270.98,0 -490.94,-219.95 -490.94,-490.93 0,-270.98 219.96,-490.94 490.94,-490.94 270.98,0 490.93,219.96 490.93,490.94 0,270.98 -219.95,490.93 -490.93,490.93z"/>
  <path class="fil45" d="M6414 2356.64c-7.52,-271.03 -233.33,-484.64 -504.36,-477.12 -271.02,7.52 -484.64,233.33 -477.11,504.36 7.52,271.03 233.33,484.64 504.36,477.12 271.03,-7.52 484.64,-233.33 477.11,-504.36z"/>
  <path class="fil46" d="M5921.54 2861.27c-270.98,0 -490.94,-219.95 -490.94,-490.93 0,-270.98 219.96,-490.94 490.94,-490.94 270.98,0 490.93,219.96 490.93,490.94 0,270.98 -219.95,490.93 -490.93,490.93z"/>
  <path class="fil47" d="M5921.54 2861.27c-270.98,0 -490.94,-219.95 -490.94,-490.93 0,-270.98 219.96,-490.94 490.94,-490.94 270.98,0 490.93,219.96 490.93,490.94 0,270.98 -219.95,490.93 -490.93,490.93z"/>
  <path class="fil48" d="M5919.78 2861.27c-270.98,0 -490.94,-219.95 -490.94,-490.93 0,-270.98 219.96,-490.94 490.94,-490.94 270.98,0 490.93,219.96 490.93,490.94 0,270.98 -219.95,490.93 -490.93,490.93z"/>
  <path class="fil49" d="M5919.78 2859.52c-270.98,0 -490.94,-219.96 -490.94,-490.94 0,-270.98 219.96,-490.93 490.94,-490.93 270.98,0 490.93,219.95 490.93,490.93 0,270.98 -219.95,490.94 -490.93,490.94z"/>
  <path class="fil50" d="M5919.78 2859.52c-270.98,0 -489.18,-219.96 -489.18,-489.18 0,-270.98 219.96,-489.18 489.18,-489.18 270.98,0 489.17,219.96 489.17,489.18 0,269.22 -219.95,489.18 -489.17,489.18z"/>
  <path class="fil51" d="M5918.02 2859.52c-269.22,0 -489.18,-219.96 -489.18,-489.18 0,-269.22 219.96,-489.18 489.18,-489.18 269.22,0 489.17,219.96 489.17,489.18 0,269.22 -218.19,489.18 -489.17,489.18z"/>
  <path class="fil52" d="M5918.02 2857.76c-269.22,0 -489.18,-219.96 -489.18,-489.18 0,-269.22 219.96,-489.18 489.18,-489.18 269.22,0 489.17,219.96 489.17,489.18 0,269.22 -219.95,489.18 -489.17,489.18z"/>
  <path class="fil53" d="M5916.26 2857.76c-269.22,0 -489.18,-219.96 -489.18,-489.18 0,-269.22 219.96,-489.18 489.18,-489.18 269.22,0 489.18,219.96 489.18,489.18 0,269.22 -218.2,489.18 -489.18,489.18z"/>
  <path class="fil54" d="M5916.26 2857.76c-269.22,0 -489.18,-219.96 -489.18,-489.18 0,-269.22 219.96,-489.18 489.18,-489.18 269.22,0 489.18,219.96 489.18,489.18 0,269.22 -219.96,489.18 -489.18,489.18z"/>
  <path class="fil55" d="M5927.39 1878.24c-270.08,-6.14 -494,207.83 -500.13,477.92 -6.14,270.08 207.83,494 477.92,500.13 270.08,6.14 494,-207.83 500.13,-477.92 6.14,-270.08 -207.83,-494 -477.92,-500.13z"/>
  <path class="fil56" d="M5914.5 2856c-269.22,0 -487.42,-218.2 -487.42,-487.42 0,-269.22 218.2,-487.42 487.42,-487.42 269.22,0 487.42,218.2 487.42,487.42 1.76,267.46 -218.2,487.42 -487.42,487.42z"/>
  <path class="fil57" d="M5914.5 2856c-269.22,0 -487.42,-218.2 -487.42,-487.42 0,-269.22 218.2,-487.42 487.42,-487.42 269.22,0 487.42,218.2 487.42,487.42 0,269.22 -218.2,487.42 -487.42,487.42z"/>
  <path class="fil58" d="M5912.74 2854.24c-269.22,0 -487.42,-218.2 -487.42,-487.42 0,-269.22 218.2,-487.42 487.42,-487.42 269.22,0 487.42,218.2 487.42,487.42 1.76,269.22 -218.2,487.42 -487.42,487.42z"/>
  <path class="fil59" d="M5912.74 2854.24c-269.22,0 -487.42,-218.2 -487.42,-487.42 0,-269.22 218.2,-487.42 487.42,-487.42 269.22,0 487.42,218.2 487.42,487.42 0,269.22 -218.2,487.42 -487.42,487.42z"/>
  <path class="fil60" d="M5912.74 2852.48c-269.22,0 -487.42,-218.2 -487.42,-487.42 0,-269.22 218.2,-487.41 487.42,-487.41 269.22,0 487.42,218.19 487.42,487.41 0,269.22 -219.96,487.42 -487.42,487.42z"/>
  <path class="fil61" d="M5910.98 2852.48c-269.22,0 -487.41,-218.2 -487.41,-487.42 0,-269.22 218.19,-487.41 487.41,-487.41 269.22,0 487.42,218.19 487.42,487.41 0,269.22 -218.2,487.42 -487.42,487.42z"/>
  <path class="fil62" d="M5910.98 2852.48c-267.46,0 -485.66,-218.2 -485.66,-487.42 0,-267.46 218.2,-487.41 485.66,-487.41 267.46,0 487.42,218.19 487.42,487.41 -1.76,269.22 -219.96,487.42 -487.42,487.42z"/>
  <path class="fil63" d="M5910.98 2850.72c-267.46,0 -485.66,-218.2 -485.66,-485.66 0,-267.46 218.2,-485.66 485.66,-485.66 267.46,0 485.66,218.2 485.66,485.66 0,267.46 -218.2,485.66 -485.66,485.66z"/>
  <path class="fil64" d="M5909.22 2850.72c-267.46,0 -485.65,-218.2 -485.65,-485.66 0,-267.46 218.19,-485.66 485.65,-485.66 267.46,0 485.66,218.2 485.66,485.66 0,267.46 -218.2,485.66 -485.66,485.66z"/>
  <path class="fil65" d="M5909.22 2850.72c-267.46,0 -485.65,-218.2 -485.65,-485.66 0,-267.46 218.19,-485.66 485.65,-485.66 267.46,0 485.66,218.2 485.66,485.66 0,267.46 -218.2,485.66 -485.66,485.66z"/>
  <path class="fil66" d="M5907.46 2848.96c-267.46,0 -485.65,-218.2 -485.65,-485.66 0,-267.46 218.19,-485.65 485.65,-485.65 267.46,0 485.66,218.19 485.66,485.65 0,269.22 -218.2,485.66 -485.66,485.66z"/>
  <path class="fil67" d="M5907.46 2848.96c-267.46,0 -485.65,-218.2 -485.65,-485.66 0,-267.46 218.19,-485.65 485.65,-485.65 267.46,0 485.66,218.19 485.66,485.65 0,267.46 -218.2,485.66 -485.66,485.66z"/>
  <path class="fil68" d="M5907.46 2848.96c-267.46,0 -485.65,-218.2 -485.65,-485.66 0,-267.46 218.19,-485.65 485.65,-485.65 267.46,0 485.66,218.19 485.66,485.65 0,267.46 -218.2,485.66 -485.66,485.66z"/>
  <path class="fil69" d="M5905.7 2847.2c-267.46,0 -483.89,-218.2 -483.89,-483.9 0,-267.46 218.19,-483.9 483.89,-483.9 267.46,0 483.9,218.2 483.9,483.9 1.76,267.46 -216.44,483.9 -483.9,483.9z"/>
  <path class="fil70" d="M5905.7 2847.2c-267.46,0 -483.89,-216.44 -483.89,-483.9 0,-267.46 216.43,-483.9 483.89,-483.9 267.46,0 483.9,216.44 483.9,483.9 0,267.46 -216.44,483.9 -483.9,483.9z"/>
  <path class="fil71" d="M5903.94 2847.2c-267.46,0 -483.89,-216.44 -483.89,-483.9 0,-267.46 216.43,-483.9 483.89,-483.9 267.47,0 483.9,216.44 483.9,483.9 0,265.7 -216.43,483.9 -483.9,483.9z"/>
  <path class="fil72" d="M5903.94 2845.44c-267.46,0 -483.89,-216.44 -483.89,-483.9 0,-267.46 216.43,-483.89 483.89,-483.89 267.47,0 483.9,216.43 483.9,483.89 0,267.46 -216.43,483.9 -483.9,483.9z"/>
  <path class="fil73 str0" d="M5903.94 2845.44c-267.46,0 -483.89,-216.44 -483.89,-483.9 0,-267.46 216.43,-483.89 483.89,-483.89 267.47,0 483.9,216.43 483.9,483.89 0,267.46 -216.43,483.9 -483.9,483.9z"/>
  <path class="fil74" d="M6021.84 2350.98l-77.43 0 0 276.26 -114.37 0 0 -276.26 -54.55 0 0 -96.78 54.55 0 0 -63.34c0,-45.75 21.11,-116.14 116.13,-116.14l84.47 0 0 95.02 -61.59 0c-10.56,0 -24.64,5.28 -24.64,26.4l0 58.06 87.99 0 -10.56 96.78zm0 0z"/>
  <path class="fil75" d="M2957.99 2943.01c323.77,0 587.72,-262.19 587.72,-587.72l0 -575.4c-181.24,121.42 -387.12,52.79 -527.89,14.08 -80.94,-22.87 -165.4,-21.11 -244.59,5.28 -234.03,77.42 -402.95,297.38 -402.95,557.8 0,323.77 262.18,585.96 587.71,585.96z"/>
  <path class="fil1" d="M3003.74 2899.01c-278.02,0 -503.25,-226.99 -503.25,-503.25 0,-278.02 226.99,-503.25 503.25,-503.25 278.02,0 503.26,226.99 503.26,503.25 0,276.26 -225.24,503.25 -503.26,503.25z"/>
  <path class="fil2" d="M3003.74 2897.26c-278.02,0 -503.25,-225.24 -503.25,-503.26 0,-278.02 225.23,-503.25 503.25,-503.25 278.02,0 503.26,225.23 503.26,503.25 0,278.02 -227,503.26 -503.26,503.26z"/>
  <path class="fil3" d="M3001.98 2897.26c-278.02,0 -503.25,-225.24 -503.25,-503.26 0,-278.02 225.23,-503.25 503.25,-503.25 278.02,0 503.26,225.23 503.26,503.25 0,278.02 -225.24,503.26 -503.26,503.26z"/>
  <path class="fil4" d="M3001.98 2897.26c-278.02,0 -503.25,-225.24 -503.25,-503.26 0,-278.02 225.23,-503.25 503.25,-503.25 278.02,0 503.26,225.23 503.26,503.25 0,276.26 -226.99,503.26 -503.26,503.26z"/>
  <path class="fil5" d="M3000.22 2895.5c-278.02,0 -503.25,-225.24 -503.25,-503.26 0,-278.02 225.23,-503.25 503.25,-503.25 278.03,0 503.26,225.23 503.26,503.25 0,278.02 -225.23,503.26 -503.26,503.26z"/>
  <path class="fil6" d="M3000.22 2895.5c-278.02,0 -503.25,-225.24 -503.25,-503.26 0,-278.02 225.23,-503.25 503.25,-503.25 276.27,0 503.26,225.23 503.26,503.25 0,278.02 -226.99,503.26 -503.26,503.26z"/>
  <path class="fil7" d="M3000.22 2895.5c-276.26,0 -501.49,-225.24 -501.49,-501.5 0,-276.26 225.23,-501.49 501.49,-501.49 276.27,0 501.5,225.23 501.5,501.49 0,274.5 -225.23,501.5 -501.5,501.5z"/>
  <path class="fil8" d="M2998.47 2893.74c-276.27,0 -501.5,-225.24 -501.5,-501.5 0,-276.26 225.23,-501.49 501.5,-501.49 276.26,0 501.49,225.23 501.49,501.49 0,276.26 -225.23,501.5 -501.49,501.5z"/>
  <path class="fil9" d="M2998.47 2893.74c-276.27,0 -501.5,-225.24 -501.5,-501.5 0,-276.26 225.23,-501.49 501.5,-501.49 276.26,0 501.49,225.23 501.49,501.49 0,276.26 -225.23,501.5 -501.49,501.5z"/>
  <path class="fil10" d="M2996.71 2893.74c-276.27,0 -501.5,-225.24 -501.5,-501.5 0,-276.26 225.23,-501.49 501.5,-501.49 276.26,0 501.49,225.23 501.49,501.49 0,276.26 -223.47,501.5 -501.49,501.5z"/>
  <path class="fil11" d="M2996.71 2891.98c-276.27,0 -501.5,-225.24 -501.5,-501.5 0,-276.26 225.23,-501.49 501.5,-501.49 276.26,0 501.49,225.23 501.49,501.49 0,276.26 -225.23,501.5 -501.49,501.5z"/>
  <path class="fil12" d="M2996.71 2891.98c-276.27,0 -501.5,-225.24 -501.5,-501.5 0,-276.26 225.23,-501.49 501.5,-501.49 276.26,0 501.49,225.23 501.49,501.49 -1.76,276.26 -225.23,501.5 -501.49,501.5z"/>
  <path class="fil13" d="M2994.95 2890.22c-276.27,0 -499.74,-225.24 -499.74,-499.74 0,-274.5 225.23,-499.73 499.74,-499.73 276.26,0 499.73,225.23 499.73,499.73 0,274.5 -223.47,499.74 -499.73,499.74z"/>
  <path class="fil14" d="M2994.95 2890.22c-276.27,0 -499.74,-225.24 -499.74,-499.74 0,-276.26 225.23,-499.73 499.74,-499.73 276.26,0 499.73,225.23 499.73,499.73 0,276.26 -223.47,499.74 -499.73,499.74z"/>
  <path class="fil15" d="M2993.19 2890.22c-276.26,0 -499.74,-223.48 -499.74,-499.74 0,-276.26 223.48,-499.73 499.74,-499.73 276.26,0 499.73,223.47 499.73,499.73 1.76,274.5 -223.47,499.74 -499.73,499.74z"/>
  <path class="fil16" d="M2993.19 2888.46c-276.26,0 -499.74,-223.48 -499.74,-499.74 0,-276.26 223.48,-499.73 499.74,-499.73 276.26,0 499.73,223.47 499.73,499.73 0,276.26 -223.47,499.74 -499.73,499.74z"/>
  <path class="fil17" d="M3492.92 2388.72c0,-275.99 -223.74,-499.73 -499.73,-499.73 -276,0 -499.74,223.74 -499.74,499.73 0,276 223.74,499.74 499.74,499.74 275.99,0 499.73,-223.74 499.73,-499.74z"/>
  <path class="fil18" d="M2991.43 2888.46c-274.5,0 -499.74,-223.48 -499.74,-499.74 0,-274.5 223.48,-499.73 499.74,-499.73 274.5,0 499.73,223.47 499.73,499.73 0,276.26 -223.47,499.74 -499.73,499.74z"/>
  <path class="fil19" d="M2991.43 2886.7c-274.5,0 -499.74,-223.47 -499.74,-499.74 0,-276.26 223.48,-499.73 499.74,-499.73 274.5,0 499.73,223.47 499.73,499.73 0,276.27 -225.23,499.74 -499.73,499.74z"/>
  <path class="fil20" d="M2991.43 2886.7c-274.5,0 -497.98,-223.47 -497.98,-497.98 0,-274.5 223.48,-497.97 497.98,-497.97 274.5,0 497.97,223.47 497.97,497.97 0,274.51 -223.47,497.98 -497.97,497.98z"/>
  <path class="fil21" d="M3487.58 2376.12c-7.02,-274.94 -235.59,-492.13 -510.53,-485.12 -274.94,7.02 -492.13,235.59 -485.12,510.53 7.02,274.94 235.59,492.14 510.53,485.12 274.94,-7.01 492.14,-235.59 485.12,-510.53z"/>
  <path class="fil22" d="M2989.67 2884.94c-274.5,0 -497.98,-223.47 -497.98,-497.98 0,-274.5 223.48,-497.97 497.98,-497.97 274.5,0 497.97,223.47 497.97,497.97 0,274.51 -223.47,497.98 -497.97,497.98z"/>
  <path class="fil23" d="M2987.91 2884.94c-274.5,0 -497.98,-223.47 -497.98,-497.98 0,-274.5 223.48,-497.97 497.98,-497.97 274.5,0 497.97,223.47 497.97,497.97 0,274.51 -223.47,497.98 -497.97,497.98z"/>
  <path class="fil24" d="M2987.91 2884.94c-274.5,0 -497.98,-223.47 -497.98,-497.98 0,-274.5 223.48,-497.97 497.98,-497.97 274.5,0 497.97,223.47 497.97,497.97 0,274.51 -223.47,497.98 -497.97,497.98z"/>
  <path class="fil25" d="M2987.91 2883.18c-274.5,0 -497.98,-223.47 -497.98,-497.98 0,-274.5 223.48,-497.97 497.98,-497.97 274.5,0 497.97,223.47 497.97,497.97 -1.76,276.27 -225.23,497.98 -497.97,497.98z"/>
  <path class="fil26" d="M2986.15 2883.18c-274.5,0 -496.22,-223.47 -496.22,-496.22 0,-274.5 223.48,-496.21 496.22,-496.21 272.74,0 496.21,223.47 496.21,496.21 1.76,272.75 -221.71,496.22 -496.21,496.22z"/>
  <path class="fil27" d="M2986.15 2883.18c-274.5,0 -496.22,-223.47 -496.22,-496.22 0,-274.5 223.48,-496.21 496.22,-496.21 272.74,0 496.21,223.47 496.21,496.21 0,272.75 -223.47,496.22 -496.21,496.22z"/>
  <path class="fil28" d="M2984.39 2881.42c-274.5,0 -496.22,-223.47 -496.22,-496.22 0,-274.5 223.48,-496.21 496.22,-496.21 274.5,0 496.21,223.47 496.21,496.21 0,274.51 -221.71,496.22 -496.21,496.22z"/>
  <path class="fil29" d="M2984.39 2881.42c-272.74,0 -496.22,-221.71 -496.22,-496.22 0,-272.74 221.72,-496.21 496.22,-496.21 272.74,0 496.21,221.71 496.21,496.21 0,274.51 -223.47,496.22 -496.21,496.22z"/>
  <path class="fil30" d="M2984.39 2881.42c-272.74,0 -496.22,-221.71 -496.22,-496.22 0,-272.74 221.72,-496.21 496.22,-496.21 272.74,0 496.21,221.71 496.21,496.21 -1.76,272.75 -223.47,496.22 -496.21,496.22z"/>
  <path class="fil31" d="M2982.63 2879.66c-272.74,0 -496.22,-221.71 -496.22,-496.21 0,-272.75 221.72,-496.22 496.22,-496.22 272.74,0 496.21,221.71 496.21,496.22 0,274.5 -223.47,496.21 -496.21,496.21z"/>
  <path class="fil32" d="M2982.63 2879.66c-272.74,0 -494.46,-221.71 -494.46,-494.46 0,-272.74 221.72,-494.45 494.46,-494.45 272.74,0 494.45,221.71 494.45,494.45 0,272.75 -221.71,494.46 -494.45,494.46z"/>
  <path class="fil33" d="M2980.87 2879.66c-272.74,0 -494.46,-221.71 -494.46,-494.46 0,-272.74 221.72,-494.45 494.46,-494.45 272.74,0 494.45,221.71 494.45,494.45 1.76,270.99 -219.95,494.46 -494.45,494.46z"/>
  <path class="fil34" d="M2980.87 2877.9c-272.74,0 -494.46,-221.71 -494.46,-494.45 0,-272.75 221.72,-494.46 494.46,-494.46 272.74,0 494.45,221.71 494.45,494.46 0,272.74 -221.71,494.45 -494.45,494.45z"/>
  <path class="fil35" d="M2980.87 2877.9c-272.74,0 -494.46,-221.71 -494.46,-494.45 0,-272.75 221.72,-494.46 494.46,-494.46 272.74,0 494.45,221.71 494.45,494.46 0,272.74 -221.71,494.45 -494.45,494.45z"/>
  <path class="fil36" d="M3473.56 2383.45c0,-273.08 -221.37,-494.46 -494.45,-494.46 -273.08,0 -494.45,221.38 -494.45,494.46 0,273.07 221.37,494.45 494.45,494.45 273.08,0 494.45,-221.38 494.45,-494.45z"/>
  <path class="fil37" d="M2979.11 2876.14c-272.74,0 -494.45,-221.71 -494.45,-494.45 0,-272.75 221.71,-494.46 494.45,-494.46 272.74,0 494.45,221.71 494.45,494.46 -1.76,272.74 -221.71,494.45 -494.45,494.45z"/>
  <path class="fil38" d="M2979.11 2876.14c-272.74,0 -492.7,-221.71 -492.7,-492.69 0,-272.75 221.72,-492.7 492.7,-492.7 270.98,0 492.69,221.71 492.69,492.7 0,270.98 -221.71,492.69 -492.69,492.69z"/>
  <path class="fil39" d="M2977.35 2876.14c-272.74,0 -492.69,-221.71 -492.69,-492.69 0,-272.75 221.71,-492.7 492.69,-492.7 270.98,0 492.69,221.71 492.69,492.7 0,270.98 -219.95,492.69 -492.69,492.69z"/>
  <path class="fil40" d="M2977.35 2874.38c-270.98,0 -492.69,-221.71 -492.69,-492.69 0,-270.99 221.71,-492.7 492.69,-492.7 270.98,0 492.69,221.71 492.69,492.7 0,270.98 -221.71,492.69 -492.69,492.69z"/>
  <path class="fil41" d="M2975.59 2874.38c-270.98,0 -492.69,-221.71 -492.69,-492.69 0,-270.99 221.71,-492.7 492.69,-492.7 270.98,0 492.69,221.71 492.69,492.7 0,270.98 -219.95,492.69 -492.69,492.69z"/>
  <path class="fil42" d="M2975.59 2874.38c-270.98,0 -492.69,-219.95 -492.69,-492.69 0,-270.99 221.71,-492.7 492.69,-492.7 270.98,0 492.69,221.71 492.69,492.7 0,270.98 -221.71,492.69 -492.69,492.69z"/>
  <path class="fil43" d="M2975.59 2872.62c-270.98,0 -492.69,-219.95 -492.69,-492.69 0,-270.99 219.95,-492.7 492.69,-492.7 270.98,0 492.69,219.95 492.69,492.7 -1.76,272.74 -221.71,492.69 -492.69,492.69z"/>
  <path class="fil44" d="M2973.83 2872.62c-270.98,0 -490.93,-219.95 -490.93,-490.93 0,-270.99 219.95,-490.94 490.93,-490.94 270.98,0 490.94,219.95 490.94,490.94 1.75,269.22 -219.96,490.93 -490.94,490.93z"/>
  <path class="fil45" d="M2973.83 2870.86c-270.98,0 -490.93,-219.95 -490.93,-490.93 0,-270.99 219.95,-490.94 490.93,-490.94 270.98,0 490.94,219.95 490.94,490.94 0,270.98 -219.96,490.93 -490.94,490.93z"/>
  <path class="fil46" d="M2972.07 2870.86c-270.98,0 -490.93,-219.95 -490.93,-490.93 0,-270.99 219.95,-490.94 490.93,-490.94 270.98,0 490.94,219.95 490.94,490.94 1.76,270.98 -219.96,490.93 -490.94,490.93z"/>
  <path class="fil47" d="M2972.07 2870.86c-270.98,0 -490.93,-219.95 -490.93,-490.93 0,-270.99 219.95,-490.94 490.93,-490.94 270.98,0 490.94,219.95 490.94,490.94 0,270.98 -219.96,490.93 -490.94,490.93z"/>
  <path class="fil48" d="M3463.01 2379.93c0,-271.14 -219.8,-490.94 -490.94,-490.94 -271.14,0 -490.93,219.8 -490.93,490.94 0,271.13 219.79,490.93 490.93,490.93 271.14,0 490.94,-219.8 490.94,-490.93z"/>
  <path class="fil49" d="M2970.31 2869.1c-270.98,0 -490.93,-219.95 -490.93,-490.93 0,-270.99 219.95,-490.94 490.93,-490.94 270.98,0 490.94,219.95 490.94,490.94 0,270.98 -219.96,490.93 -490.94,490.93z"/>
  <path class="fil50" d="M2970.31 2869.1c-270.98,0 -489.17,-219.95 -489.17,-489.17 0,-270.99 219.95,-489.18 489.17,-489.18 270.98,0 489.18,219.95 489.18,489.18 0,269.22 -219.96,489.17 -489.18,489.17z"/>
  <path class="fil51" d="M2968.55 2867.34c-269.22,0 -489.17,-219.95 -489.17,-489.17 0,-269.23 219.95,-489.18 489.17,-489.18 269.22,0 489.18,219.95 489.18,489.18 1.76,270.98 -218.2,489.17 -489.18,489.17z"/>
  <path class="fil52" d="M2968.55 2867.34c-269.22,0 -489.17,-219.95 -489.17,-489.17 0,-269.23 219.95,-489.18 489.17,-489.18 269.22,0 489.18,219.95 489.18,489.18 0,269.22 -219.96,489.17 -489.18,489.17z"/>
  <path class="fil53" d="M2968.55 2867.34c-269.22,0 -489.17,-219.95 -489.17,-489.17 0,-269.23 219.95,-489.18 489.17,-489.18 269.22,0 489.18,219.95 489.18,489.18 0,269.22 -219.96,489.17 -489.18,489.17z"/>
  <path class="fil54" d="M2966.79 2865.58c-269.22,0 -489.17,-219.95 -489.17,-489.17 0,-269.23 219.95,-489.18 489.17,-489.18 269.22,0 489.18,219.95 489.18,489.18 0,270.98 -219.96,489.17 -489.18,489.17z"/>
  <path class="fil55" d="M2966.79 2865.58c-269.22,0 -489.17,-219.95 -489.17,-489.17 0,-269.23 219.95,-489.18 489.17,-489.18 269.22,0 489.18,219.95 489.18,489.18 0,269.22 -219.96,489.17 -489.18,489.17z"/>
  <path class="fil56" d="M2966.79 2865.58c-269.22,0 -487.41,-218.19 -487.41,-487.41 0,-269.23 218.19,-487.42 487.41,-487.42 269.22,0 487.42,218.19 487.42,487.42 0,267.46 -218.2,487.41 -487.42,487.41z"/>
  <path class="fil57" d="M3075.97 1902.12c-262.17,-61.13 -524.26,101.83 -585.39,364 -61.13,262.17 101.83,524.25 364,585.39 262.17,61.13 524.25,-101.84 585.39,-364 61.13,-262.17 -101.84,-524.26 -364,-585.39z"/>
  <path class="fil58" d="M2965.03 2863.82c-269.22,0 -487.41,-218.19 -487.41,-487.41 0,-269.23 218.19,-487.42 487.41,-487.42 269.22,0 487.42,218.19 487.42,487.42 0,269.22 -218.2,487.41 -487.42,487.41z"/>
  <path class="fil59" d="M2963.27 2863.82c-269.22,0 -487.41,-218.19 -487.41,-487.41 0,-269.23 218.19,-487.42 487.41,-487.42 269.22,0 487.42,218.19 487.42,487.42 0,267.46 -218.2,487.41 -487.42,487.41z"/>
  <path class="fil60" d="M2963.27 2862.06c-269.22,0 -487.41,-218.19 -487.41,-487.41 0,-269.23 218.19,-487.42 487.41,-487.42 269.22,0 487.42,218.19 487.42,487.42 0,269.22 -218.2,487.41 -487.42,487.41z"/>
  <path class="fil61" d="M2963.27 2862.06c-269.22,0 -487.41,-218.19 -487.41,-487.41 0,-269.23 218.19,-487.42 487.41,-487.42 269.22,0 487.42,218.19 487.42,487.42 0,269.22 -219.95,487.41 -487.42,487.41z"/>
  <path class="fil62" d="M2961.51 2862.06c-267.46,0 -485.65,-218.19 -485.65,-485.65 0,-267.47 218.19,-487.42 485.65,-487.42 267.47,0 485.66,218.19 485.66,487.42 1.76,267.46 -216.43,485.65 -485.66,485.65z"/>
  <path class="fil63" d="M3446.89 2363.56c-6.01,-268.14 -228.25,-480.63 -496.4,-474.62 -268.14,6.02 -480.63,228.26 -474.62,496.4 6.02,268.14 228.26,480.64 496.4,474.62 268.15,-6.01 480.64,-228.26 474.62,-496.4z"/>
  <path class="fil64" d="M2959.75 2860.3c-267.46,0 -485.65,-218.19 -485.65,-485.65 0,-267.47 218.19,-485.66 485.65,-485.66 267.47,0 485.66,218.19 485.66,485.66 1.76,267.46 -216.43,485.65 -485.66,485.65z"/>
  <path class="fil65" d="M2959.75 2860.3c-267.46,0 -485.65,-218.19 -485.65,-485.65 0,-267.47 218.19,-485.66 485.65,-485.66 267.47,0 485.66,218.19 485.66,485.66 0,267.46 -218.19,485.65 -485.66,485.65z"/>
  <path class="fil66" d="M2959.75 2858.54c-267.46,0 -485.65,-218.19 -485.65,-485.65 0,-267.47 218.19,-485.66 485.65,-485.66 267.47,0 485.66,218.19 485.66,485.66 -1.76,269.22 -218.19,485.65 -485.66,485.65z"/>
  <path class="fil67" d="M3301.16 2029.88c-189.67,-189.66 -497.16,-189.66 -686.82,0 -189.66,189.66 -189.66,497.16 0,686.82 189.66,189.66 497.15,189.66 686.82,0 189.66,-189.66 189.66,-497.16 0,-686.82z"/>
  <path class="fil68" d="M2957.99 2858.54c-267.46,0 -485.65,-218.19 -485.65,-485.65 0,-267.47 218.19,-485.66 485.65,-485.66 267.47,0 485.66,218.19 485.66,485.66 -1.76,267.46 -218.19,485.65 -485.66,485.65z"/>
  <path class="fil69" d="M2968 1889.86c-267.17,-6.06 -488.67,205.6 -494.73,472.77 -6.06,267.18 205.61,488.67 472.78,494.73 267.17,6.06 488.66,-205.6 494.73,-472.78 6.06,-267.17 -205.61,-488.66 -472.78,-494.72z"/>
  <path class="fil70" d="M2956.23 2856.78c-267.46,0 -483.89,-216.43 -483.89,-483.89 0,-267.47 216.43,-483.9 483.89,-483.9 267.47,0 483.9,216.43 483.9,483.9 0,265.7 -216.43,483.89 -483.9,483.89z"/>
  <path class="fil71" d="M2956.23 2856.78c-267.46,0 -483.89,-216.43 -483.89,-483.89 0,-267.47 216.43,-483.9 483.89,-483.9 267.47,0 483.9,216.43 483.9,483.9 0,265.7 -218.19,483.89 -483.9,483.89z"/>
  <path class="fil72" d="M2954.47 2855.02c-267.46,0 -483.89,-216.43 -483.89,-483.89 0,-267.46 216.43,-483.9 483.89,-483.9 267.47,0 483.9,216.44 483.9,483.9 0,267.46 -216.43,483.89 -483.9,483.89z"/>
  <path class="fil76 str0" d="M2954.47 2855.02c-267.46,0 -483.89,-216.43 -483.89,-483.89 0,-267.46 216.43,-483.9 483.89,-483.9 267.47,0 483.9,216.44 483.9,483.9 0,267.46 -216.43,483.89 -483.9,483.89z"/>
  <path class="fil77" d="M3200.82 2277.87c0,-40.47 -33.43,-73.91 -73.9,-73.91l-344.89 0c-40.47,0 -73.9,33.44 -73.9,73.91l0 197.08c0,40.47 33.43,73.9 73.9,73.9l344.89 0c40.47,0 73.9,-33.43 73.9,-73.9l0 -197.08zm-297.37 183l0 -186.52 140.77 93.26 -140.77 93.26zm0 0z"/>
  <path class="fil78" d="M7429.45 1769.99c-323.77,0 -587.71,262.18 -587.71,587.71l0 575.4c181.24,-121.42 387.12,-52.79 527.88,-14.08 80.95,22.87 165.41,21.12 244.59,-5.28 234.03,-77.42 402.96,-297.38 402.96,-557.8 0,-323.77 -262.19,-585.95 -587.72,-585.95z"/>
  <path class="fil1" d="M7476.96 2889.11c-278.02,0 -503.25,-227 -503.25,-503.26 0,-278.02 226.99,-503.25 503.25,-503.25 278.02,0 503.25,226.99 503.25,503.25 0,278.02 -225.23,503.26 -503.25,503.26z"/>
  <path class="fil2" d="M7475.2 2889.11c-278.02,0 -503.25,-225.24 -503.25,-503.26 0,-278.02 225.23,-503.25 503.25,-503.25 278.02,0 503.25,225.23 503.25,503.25 1.76,278.02 -225.23,503.26 -503.25,503.26z"/>
  <path class="fil3" d="M7475.2 2889.11c-278.02,0 -503.25,-225.24 -503.25,-503.26 0,-278.02 225.23,-503.25 503.25,-503.25 278.02,0 503.25,225.23 503.25,503.25 0,276.26 -225.23,503.26 -503.25,503.26z"/>
  <path class="fil4" d="M7475.2 2887.35c-278.02,0 -503.25,-225.24 -503.25,-503.26 0,-278.02 225.23,-503.25 503.25,-503.25 278.02,0 503.25,225.23 503.25,503.25 -1.75,278.02 -226.99,503.26 -503.25,503.26z"/>
  <path class="fil5" d="M7473.44 2887.35c-278.02,0 -503.25,-225.24 -503.25,-503.26 0,-278.02 225.23,-503.25 503.25,-503.25 278.02,0 503.26,225.23 503.26,503.25 0,278.02 -225.24,503.26 -503.26,503.26z"/>
  <path class="fil6" d="M7473.44 2887.35c-278.02,0 -503.25,-225.24 -503.25,-503.26 0,-278.02 225.23,-503.25 503.25,-503.25 276.26,0 503.26,225.23 503.26,503.25 -1.76,278.02 -227,503.26 -503.26,503.26z"/>
  <path class="fil7" d="M7471.68 2885.59c-276.26,0 -501.49,-225.23 -501.49,-501.5 0,-276.26 225.23,-501.49 501.49,-501.49 276.26,0 501.5,225.23 501.5,501.49 1.76,276.27 -223.48,501.5 -501.5,501.5z"/>
  <path class="fil8" d="M7471.68 2885.59c-276.26,0 -501.49,-225.23 -501.49,-501.5 0,-276.26 225.23,-501.49 501.49,-501.49 276.26,0 501.5,225.23 501.5,501.49 0,276.27 -225.24,501.5 -501.5,501.5z"/>
  <path class="fil9" d="M7471.68 2885.59c-276.26,0 -501.49,-225.23 -501.49,-501.5 0,-276.26 225.23,-501.49 501.49,-501.49 276.26,0 501.5,225.23 501.5,501.49 0,276.27 -225.24,501.5 -501.5,501.5z"/>
  <path class="fil10" d="M7469.92 2883.83c-276.26,0 -501.49,-225.23 -501.49,-501.5 0,-276.26 225.23,-501.49 501.49,-501.49 276.26,0 501.5,225.23 501.5,501.49 0,276.27 -225.24,501.5 -501.5,501.5z"/>
  <path class="fil11" d="M7469.92 2883.83c-276.26,0 -501.49,-225.23 -501.49,-501.5 0,-276.26 225.23,-501.49 501.49,-501.49 276.26,0 501.5,225.23 501.5,501.49 0,276.27 -225.24,501.5 -501.5,501.5z"/>
  <path class="fil12" d="M7468.16 2883.83c-276.26,0 -501.49,-225.23 -501.49,-501.5 0,-276.26 225.23,-501.49 501.49,-501.49 276.26,0 501.5,225.23 501.5,501.49 0,276.27 -225.24,501.5 -501.5,501.5z"/>
  <path class="fil13" d="M7468.16 2882.07c-276.26,0 -501.49,-225.23 -501.49,-499.74 0,-276.26 225.23,-499.73 501.49,-499.73 276.26,0 499.74,225.23 499.74,499.73 0,276.27 -223.48,499.74 -499.74,499.74z"/>
  <path class="fil14" d="M7468.16 2882.07c-276.26,0 -499.73,-225.23 -499.73,-499.74 0,-276.26 225.23,-499.73 499.73,-499.73 276.26,0 499.74,225.23 499.74,499.73 0,274.51 -225.23,499.74 -499.74,499.74z"/>
  <path class="fil15" d="M7466.4 2882.07c-276.26,0 -499.73,-223.47 -499.73,-499.74 0,-276.26 223.47,-499.73 499.73,-499.73 276.27,0 499.74,223.47 499.74,499.73 0,274.51 -223.47,499.74 -499.74,499.74z"/>
  <path class="fil16" d="M7466.4 2880.31c-276.26,0 -499.73,-223.47 -499.73,-499.74 0,-276.26 223.47,-499.73 499.73,-499.73 276.27,0 499.74,223.47 499.74,499.73 0,276.27 -225.23,499.74 -499.74,499.74z"/>
  <path class="fil17" d="M7464.64 2880.31c-276.26,0 -499.73,-223.47 -499.73,-499.74 0,-276.26 223.47,-499.73 499.73,-499.73 276.27,0 499.74,223.47 499.74,499.73 0,276.27 -223.47,499.74 -499.74,499.74z"/>
  <path class="fil18" d="M7464.64 2880.31c-274.5,0 -499.73,-223.47 -499.73,-499.74 0,-274.5 223.47,-499.73 499.73,-499.73 274.51,0 499.74,223.47 499.74,499.73 0,274.51 -225.23,499.74 -499.74,499.74z"/>
  <path class="fil19" d="M7464.64 2878.55c-274.5,0 -499.73,-223.47 -499.73,-499.73 0,-274.51 223.47,-499.74 499.73,-499.74 274.51,0 499.74,223.47 499.74,499.74 -1.76,276.26 -225.23,499.73 -499.74,499.73z"/>
  <path class="fil20" d="M7462.89 2878.55c-274.51,0 -497.98,-223.47 -497.98,-497.98 0,-274.5 223.47,-497.97 497.98,-497.97 274.5,0 497.97,223.47 497.97,497.97 1.76,274.51 -221.71,497.98 -497.97,497.98z"/>
  <path class="fil21" d="M7462.89 2878.55c-274.51,0 -497.98,-223.47 -497.98,-497.98 0,-274.5 223.47,-497.97 497.98,-497.97 274.5,0 497.97,223.47 497.97,497.97 0,272.75 -223.47,497.98 -497.97,497.98z"/>
  <path class="fil22" d="M7462.89 2876.79c-274.51,0 -497.98,-223.47 -497.98,-497.97 0,-274.51 223.47,-497.98 497.98,-497.98 274.5,0 497.97,223.47 497.97,497.98 0,274.5 -223.47,497.97 -497.97,497.97z"/>
  <path class="fil23" d="M7461.13 2876.79c-274.51,0 -497.98,-223.47 -497.98,-497.97 0,-274.51 223.47,-497.98 497.98,-497.98 274.5,0 497.97,223.47 497.97,497.98 0,274.5 -223.47,497.97 -497.97,497.97z"/>
  <path class="fil24" d="M7461.13 2875.03c-274.51,0 -497.98,-223.47 -497.98,-497.97 0,-274.51 223.47,-497.98 497.98,-497.98 274.5,0 497.97,223.47 497.97,497.98 -1.76,276.26 -223.47,497.97 -497.97,497.97z"/>
  <path class="fil25" d="M7459.37 2875.03c-274.51,0 -497.98,-223.47 -497.98,-497.97 0,-274.51 223.47,-497.98 497.98,-497.98 274.5,0 497.97,223.47 497.97,497.98 0,274.5 -223.47,497.97 -497.97,497.97z"/>
  <path class="fil26" d="M7459.37 2875.03c-274.51,0 -496.22,-223.47 -496.22,-496.21 0,-274.51 223.47,-496.22 496.22,-496.22 274.5,0 496.21,223.47 496.21,496.22 0,272.74 -221.71,496.21 -496.21,496.21z"/>
  <path class="fil27" d="M7459.37 2873.27c-274.51,0 -496.22,-223.47 -496.22,-496.21 0,-274.51 223.47,-496.22 496.22,-496.22 274.5,0 496.21,223.47 496.21,496.22 0,274.5 -223.47,496.21 -496.21,496.21z"/>
  <path class="fil28" d="M7457.61 2873.27c-274.51,0 -496.22,-223.47 -496.22,-496.21 0,-274.51 223.47,-496.22 496.22,-496.22 274.5,0 496.21,223.47 496.21,496.22 0,274.5 -221.71,496.21 -496.21,496.21z"/>
  <path class="fil29" d="M7457.61 2873.27c-272.75,0 -496.22,-221.71 -496.22,-496.21 0,-272.75 221.71,-496.22 496.22,-496.22 272.74,0 496.21,221.71 496.21,496.22 0,272.74 -223.47,496.21 -496.21,496.21z"/>
  <path class="fil30" d="M7455.85 2871.51c-272.75,0 -496.22,-221.71 -496.22,-496.21 0,-272.75 221.72,-496.22 496.22,-496.22 272.74,0 496.21,221.71 496.21,496.22 0,274.5 -221.71,496.21 -496.21,496.21z"/>
  <path class="fil31" d="M7455.85 2871.51c-272.75,0 -496.22,-221.71 -496.22,-496.21 0,-272.75 221.72,-496.22 496.22,-496.22 272.74,0 496.21,221.71 496.21,496.22 0,274.5 -223.47,496.21 -496.21,496.21z"/>
  <path class="fil32" d="M7455.85 2871.51c-272.75,0 -494.46,-221.71 -494.46,-494.45 0,-272.75 221.71,-494.46 494.46,-494.46 272.74,0 494.45,221.71 494.45,494.46 0,272.74 -221.71,494.45 -494.45,494.45z"/>
  <path class="fil33" d="M7803.59 2026.02c-193.1,-193.09 -506.16,-193.09 -699.26,0 -193.09,193.1 -193.09,506.17 0,699.26 193.1,193.09 506.16,193.09 699.26,0 193.09,-193.09 193.09,-506.16 0,-699.26z"/>
  <path class="fil34" d="M7454.09 2869.75c-272.74,0 -494.46,-221.71 -494.46,-494.45 0,-272.75 221.72,-494.46 494.46,-494.46 272.74,0 494.45,221.71 494.45,494.46 0,272.74 -221.71,494.45 -494.45,494.45z"/>
  <path class="fil35" d="M7452.33 2869.75c-272.74,0 -494.46,-221.71 -494.46,-494.45 0,-272.75 221.72,-494.46 494.46,-494.46 272.74,0 494.45,221.71 494.45,494.46 0,272.74 -221.71,494.45 -494.45,494.45z"/>
  <path class="fil36" d="M7946.78 2375.3c0,-273.08 -221.37,-494.46 -494.45,-494.46 -273.08,0 -494.46,221.38 -494.46,494.46 0,273.08 221.38,494.45 494.46,494.45 273.08,0 494.45,-221.37 494.45,-494.45z"/>
  <path class="fil37" d="M7452.33 2867.99c-272.74,0 -494.46,-221.71 -494.46,-494.45 0,-272.75 221.72,-494.46 494.46,-494.46 272.74,0 494.45,221.71 494.45,494.46 -1.76,272.74 -223.47,494.45 -494.45,494.45z"/>
  <path class="fil38" d="M7450.57 2867.99c-272.74,0 -492.7,-221.71 -492.7,-492.69 0,-272.75 221.72,-492.7 492.7,-492.7 272.74,0 492.69,221.71 492.69,492.7 1.76,270.98 -219.95,492.69 -492.69,492.69z"/>
  <path class="fil39" d="M7450.57 2866.23c-272.74,0 -492.7,-221.71 -492.7,-492.69 0,-272.75 221.72,-492.7 492.7,-492.7 270.98,0 492.69,221.71 492.69,492.7 0,272.74 -221.71,492.69 -492.69,492.69z"/>
  <path class="fil40" d="M7448.81 2866.23c-270.98,0 -492.7,-221.71 -492.7,-492.69 0,-270.99 221.72,-492.7 492.7,-492.7 270.98,0 492.69,221.71 492.69,492.7 1.76,270.98 -219.95,492.69 -492.69,492.69z"/>
  <path class="fil41" d="M7448.81 2866.23c-270.98,0 -492.7,-221.71 -492.7,-492.69 0,-270.99 221.72,-492.7 492.7,-492.7 270.98,0 492.69,221.71 492.69,492.7 0,270.98 -221.71,492.69 -492.69,492.69z"/>
  <path class="fil42" d="M7448.81 2864.47c-270.98,0 -492.7,-221.71 -492.7,-492.69 0,-270.99 219.96,-492.7 492.7,-492.7 270.98,0 492.69,219.96 492.69,492.7 -1.76,272.74 -221.71,492.69 -492.69,492.69z"/>
  <path class="fil43" d="M7447.05 2864.47c-270.98,0 -492.7,-219.95 -492.7,-492.69 0,-270.99 219.96,-492.7 492.7,-492.7 270.98,0 492.69,219.96 492.69,492.7 0,272.74 -219.95,492.69 -492.69,492.69z"/>
  <path class="fil44" d="M7447.05 2864.47c-270.98,0 -490.94,-219.95 -490.94,-490.93 0,-270.99 219.96,-490.94 490.94,-490.94 270.98,0 490.93,219.95 490.93,490.94 0,269.22 -219.95,490.93 -490.93,490.93z"/>
  <path class="fil45" d="M7447.05 2862.71c-270.98,0 -490.94,-219.95 -490.94,-490.93 0,-270.99 219.96,-490.94 490.94,-490.94 270.98,0 490.93,219.95 490.93,490.94 0,270.98 -219.95,490.93 -490.93,490.93z"/>
  <path class="fil46" d="M7445.29 2862.71c-270.98,0 -490.94,-219.95 -490.94,-490.93 0,-270.99 219.96,-490.94 490.94,-490.94 270.98,0 490.93,219.95 490.93,490.94 0,270.98 -219.95,490.93 -490.93,490.93z"/>
  <path class="fil47" d="M7445.29 2862.71c-270.98,0 -490.94,-219.95 -490.94,-490.93 0,-270.99 219.96,-490.94 490.94,-490.94 270.98,0 490.93,219.95 490.93,490.94 0,269.22 -219.95,490.93 -490.93,490.93z"/>
  <path class="fil48" d="M7443.53 2860.95c-270.98,0 -490.94,-219.95 -490.94,-490.93 0,-270.98 219.96,-490.94 490.94,-490.94 270.98,0 490.93,219.96 490.93,490.94 0,270.98 -219.95,490.93 -490.93,490.93z"/>
  <path class="fil49" d="M7443.53 2860.95c-270.98,0 -490.94,-219.95 -490.94,-490.93 0,-270.98 219.96,-490.94 490.94,-490.94 270.98,0 490.93,219.96 490.93,490.94 0,270.98 -219.95,490.93 -490.93,490.93z"/>
  <path class="fil50" d="M7443.53 2860.95c-270.98,0 -489.18,-219.95 -489.18,-489.17 0,-270.99 219.96,-489.18 489.18,-489.18 270.98,0 489.17,219.95 489.17,489.18 0,269.22 -219.95,489.17 -489.17,489.17z"/>
  <path class="fil51" d="M7441.77 2859.19c-269.22,0 -489.18,-219.95 -489.18,-489.17 0,-269.23 219.96,-489.18 489.18,-489.18 269.22,0 489.17,219.95 489.17,489.18 1.76,269.22 -218.19,489.17 -489.17,489.17z"/>
  <path class="fil52" d="M7441.77 2859.19c-269.22,0 -489.18,-219.95 -489.18,-489.17 0,-269.23 219.96,-489.18 489.18,-489.18 269.22,0 489.17,219.95 489.17,489.18 0,269.22 -219.95,489.17 -489.17,489.17z"/>
  <path class="fil53" d="M7440.01 2859.19c-269.22,0 -489.18,-219.95 -489.18,-489.17 0,-269.23 219.96,-489.18 489.18,-489.18 269.22,0 489.18,219.95 489.18,489.18 0,269.22 -218.2,489.17 -489.18,489.17z"/>
  <path class="fil54" d="M7440.01 2857.43c-269.22,0 -489.18,-219.95 -489.18,-489.17 0,-269.22 219.96,-489.18 489.18,-489.18 269.22,0 489.18,219.96 489.18,489.18 0,270.98 -219.96,489.17 -489.18,489.17z"/>
  <path class="fil55" d="M7517.56 1885.13c-266.68,-43.28 -517.95,137.82 -561.23,404.5 -43.28,266.68 137.82,517.95 404.5,561.23 266.68,43.28 517.95,-137.82 561.23,-404.5 43.28,-266.68 -137.82,-517.95 -404.5,-561.23z"/>
  <path class="fil56" d="M7438.25 2857.43c-269.22,0 -487.42,-218.19 -487.42,-487.41 0,-269.23 218.2,-487.42 487.42,-487.42 269.22,0 487.42,218.19 487.42,487.42 1.76,267.46 -218.2,487.41 -487.42,487.41z"/>
  <path class="fil57" d="M7438.25 2855.67c-269.22,0 -487.42,-218.19 -487.42,-487.41 0,-269.22 218.2,-487.42 487.42,-487.42 269.22,0 487.42,218.2 487.42,487.42 0,269.22 -218.2,487.41 -487.42,487.41z"/>
  <path class="fil58" d="M7436.49 2855.67c-269.22,0 -487.42,-218.19 -487.42,-487.41 0,-269.22 218.2,-487.42 487.42,-487.42 269.22,0 487.42,218.2 487.42,487.42 1.76,267.46 -218.2,487.41 -487.42,487.41z"/>
  <path class="fil59" d="M7436.49 2853.91c-269.22,0 -487.42,-218.19 -487.42,-487.41 0,-269.22 218.2,-487.42 487.42,-487.42 269.22,0 487.42,218.2 487.42,487.42 0,269.22 -218.2,487.41 -487.42,487.41z"/>
  <path class="fil60" d="M7436.49 2853.91c-269.22,0 -487.42,-218.19 -487.42,-487.41 0,-269.22 218.2,-487.42 487.42,-487.42 269.22,0 487.42,218.2 487.42,487.42 0,269.22 -219.96,487.41 -487.42,487.41z"/>
  <path class="fil61" d="M7434.73 2853.91c-269.22,0 -487.41,-218.19 -487.41,-487.41 0,-269.22 218.19,-487.42 487.41,-487.42 269.22,0 487.42,218.2 487.42,487.42 0,269.22 -218.2,487.41 -487.42,487.41z"/>
  <path class="fil62" d="M7434.73 2852.15c-267.46,0 -485.66,-218.19 -485.66,-485.65 0,-267.46 218.2,-487.42 485.66,-487.42 267.46,0 487.42,218.2 487.42,487.42 -1.76,267.46 -219.96,485.65 -487.42,485.65z"/>
  <path class="fil63" d="M7434.73 2852.15c-267.46,0 -485.66,-218.19 -485.66,-485.65 0,-267.46 218.2,-485.66 485.66,-485.66 267.46,0 485.66,218.2 485.66,485.66 0,267.46 -218.2,485.65 -485.66,485.65z"/>
  <path class="fil64" d="M7432.97 2852.15c-267.46,0 -485.65,-218.19 -485.65,-485.65 0,-267.46 218.19,-485.66 485.65,-485.66 267.46,0 485.66,218.2 485.66,485.66 0,267.46 -218.2,485.65 -485.66,485.65z"/>
  <path class="fil65" d="M7432.97 2850.39c-267.46,0 -485.65,-218.19 -485.65,-485.65 0,-267.46 218.19,-485.66 485.65,-485.66 267.46,0 485.66,218.2 485.66,485.66 0,269.22 -218.2,485.65 -485.66,485.65z"/>
  <path class="fil66" d="M7431.21 2850.39c-267.46,0 -485.65,-218.19 -485.65,-485.65 0,-267.46 218.19,-485.66 485.65,-485.66 267.46,0 485.66,218.2 485.66,485.66 0,267.46 -218.2,485.65 -485.66,485.65z"/>
  <path class="fil67" d="M7431.21 2850.39c-267.46,0 -485.65,-218.19 -485.65,-485.65 0,-267.46 218.19,-485.66 485.65,-485.66 267.46,0 485.66,218.2 485.66,485.66 0,267.46 -218.2,485.65 -485.66,485.65z"/>
  <path class="fil68" d="M7431.21 2848.63c-267.46,0 -485.65,-218.19 -485.65,-485.65 0,-267.46 218.19,-485.66 485.65,-485.66 267.46,0 485.66,218.2 485.66,485.66 -1.76,269.22 -218.2,485.65 -485.66,485.65z"/>
  <path class="fil69" d="M7429.45 2848.63c-267.46,0 -483.89,-218.19 -483.89,-483.89 0,-267.46 218.19,-483.9 483.89,-483.9 267.46,0 483.9,218.2 483.9,483.9 1.76,267.46 -216.44,483.89 -483.9,483.89z"/>
  <path class="fil70" d="M7429.45 2848.63c-267.46,0 -483.89,-216.43 -483.89,-483.89 0,-267.46 216.43,-483.9 483.89,-483.9 267.46,0 483.9,216.44 483.9,483.9 0,265.7 -216.44,483.89 -483.9,483.89z"/>
  <path class="fil71" d="M7427.69 2846.88c-267.46,0 -483.89,-216.44 -483.89,-483.9 0,-267.46 216.43,-483.9 483.89,-483.9 267.47,0 483.9,216.44 483.9,483.9 0,267.46 -216.43,483.9 -483.9,483.9z"/>
  <path class="fil72" d="M7427.69 2846.88c-267.46,0 -483.89,-216.44 -483.89,-483.9 0,-267.46 216.43,-483.9 483.89,-483.9 267.47,0 483.9,216.44 483.9,483.9 0,267.46 -216.43,483.9 -483.9,483.9z"/>
  <path class="fil79 str0" d="M7427.69 2846.88c-267.46,0 -483.89,-216.44 -483.89,-483.9 0,-267.46 216.43,-483.9 483.89,-483.9 267.47,0 483.9,216.44 483.9,483.9 0,267.46 -216.43,483.9 -483.9,483.9z"/>
  <path class="fil80" d="M7552.63 2401.69c-7.04,-3.52 -36.96,-21.12 -43.99,-22.87 -5.28,-1.76 -10.56,-3.52 -14.08,3.51 -5.28,7.04 -17.6,21.12 -21.12,24.64 -3.52,3.52 -7.04,5.28 -14.07,1.76 -7.04,-3.52 -26.4,-10.56 -51.03,-33.43 -19.36,-17.6 -31.68,-40.48 -35.2,-45.75 -3.52,-7.04 0,-10.56 3.52,-12.32 3.52,-3.52 7.04,-7.04 10.56,-10.56 3.52,-3.52 5.28,-7.04 7.04,-10.56 1.76,-3.52 1.76,-8.8 0,-10.55 -1.76,-3.52 -14.08,-35.2 -17.6,-49.27 -5.28,-14.08 -10.55,-10.56 -14.07,-10.56 -3.52,0 -8.8,0 -12.32,-1.76 -5.28,0 -12.32,1.76 -17.6,7.04 -7.04,7.04 -22.87,21.11 -24.63,52.79 -1.76,31.67 21.11,63.34 24.63,68.62 3.52,5.28 42.23,73.91 107.34,102.06 65.11,28.15 65.11,19.36 77.42,19.36 12.32,0 38.72,-14.08 45.75,-29.92 5.28,-15.84 7.04,-28.15 5.28,-29.91 -5.28,-7.04 -10.56,-8.8 -15.83,-12.32l0 0zm-119.66 154.85c-42.23,0 -82.7,-12.32 -116.13,-35.2l-80.95 26.4 26.4 -79.18c-24.64,-35.2 -40.47,-77.43 -40.47,-124.94 0,-116.13 95.02,-211.15 211.15,-211.15 116.14,0 211.16,95.02 211.16,211.15 0,117.9 -95.02,212.92 -211.16,212.92l0 0zm0 -468.06c-140.77,0 -255.14,114.37 -255.14,255.14 0,47.51 14.07,93.26 36.95,131.97l-45.75 137.26 140.77 -45.75c36.95,19.35 79.18,31.67 123.17,31.67 140.77,0 255.15,-114.38 255.15,-255.15 0,-140.77 -114.38,-255.14 -255.15,-255.14l0 0z"/>
  <path class="fil81" d="M4428.52 1770.28c323.77,0 587.71,262.18 587.71,587.71l0 575.4c-181.24,-121.42 -387.12,-52.79 -527.89,-14.08 -80.94,22.87 -165.4,21.12 -244.58,-5.28 -234.03,-77.42 -402.96,-297.38 -402.96,-557.8 0,-323.77 263.94,-585.95 587.72,-585.95z"/>
  <path class="fil1" d="M4474.27 2889.4c-278.02,0 -503.26,-227 -503.26,-503.26 0,-278.02 226.99,-503.25 503.26,-503.25 276.26,0 503.25,226.99 503.25,503.25 1.76,278.02 -225.23,503.26 -503.25,503.26z"/>
  <path class="fil2" d="M4977.52 2386.14c0,-277.93 -225.32,-503.25 -503.25,-503.25 -277.94,0 -503.26,225.32 -503.26,503.25 0,277.94 225.32,503.26 503.26,503.26 277.93,0 503.25,-225.32 503.25,-503.26z"/>
  <path class="fil3" d="M4472.51 2889.4c-278.02,0 -503.26,-225.24 -503.26,-503.26 0,-278.02 225.24,-503.25 503.26,-503.25 278.02,0 503.25,225.23 503.25,503.25 0,276.26 -225.23,503.26 -503.25,503.26z"/>
  <path class="fil4" d="M4472.51 2887.64c-278.02,0 -503.26,-225.24 -503.26,-503.26 0,-278.02 225.24,-503.25 503.26,-503.25 278.02,0 503.25,225.23 503.25,503.25 0,278.02 -225.23,503.26 -503.25,503.26z"/>
  <path class="fil5" d="M4975.76 2384.38c0,-277.93 -225.32,-503.25 -503.25,-503.25 -277.94,0 -503.26,225.32 -503.26,503.25 0,277.94 225.32,503.26 503.26,503.26 277.93,0 503.25,-225.32 503.25,-503.26z"/>
  <path class="fil6" d="M4470.75 2887.64c-278.02,0 -503.26,-225.24 -503.26,-503.26 0,-278.02 225.24,-503.25 503.26,-503.25 278.02,0 503.25,225.23 503.25,503.25 0,278.02 -225.23,503.26 -503.25,503.26z"/>
  <path class="fil7" d="M4477.03 1882.45c-276.93,-3.56 -504.32,218.07 -507.87,495.01 -3.55,276.93 218.07,504.32 495.01,507.87 276.94,3.55 504.32,-218.07 507.87,-495.01 3.56,-276.94 -218.07,-504.32 -495.01,-507.87z"/>
  <path class="fil8" d="M4970.48 2369.61c-8.22,-276.85 -239.32,-494.63 -516.17,-486.41 -276.86,8.21 -494.63,239.31 -486.42,516.16 8.22,276.86 239.32,494.64 516.17,486.42 276.86,-8.22 494.63,-239.31 486.42,-516.17z"/>
  <path class="fil9" d="M4468.99 2885.88c-276.26,0 -501.5,-225.23 -501.5,-501.5 0,-276.26 225.24,-501.49 501.5,-501.49 276.26,0 501.49,225.23 501.49,501.49 0,276.27 -225.23,501.5 -501.49,501.5z"/>
  <path class="fil10" d="M4468.99 2884.12c-276.26,0 -501.5,-225.23 -501.5,-501.5 0,-276.26 225.24,-501.49 501.5,-501.49 276.26,0 501.49,225.23 501.49,501.49 0,276.27 -225.23,501.5 -501.49,501.5z"/>
  <path class="fil11" d="M4467.23 2884.12c-276.26,0 -501.5,-225.23 -501.5,-501.5 0,-276.26 225.24,-501.49 501.5,-501.49 276.26,0 501.49,225.23 501.49,501.49 0,276.27 -225.23,501.5 -501.49,501.5z"/>
  <path class="fil12" d="M4968.5 2370.64c-6.6,-276.88 -236.41,-495.99 -513.29,-489.4 -276.88,6.6 -495.99,236.41 -489.4,513.29 6.6,276.88 236.41,496 513.29,489.4 276.88,-6.6 496,-236.41 489.4,-513.29z"/>
  <path class="fil13" d="M4465.47 2882.36c-276.26,0 -499.74,-225.23 -499.74,-499.74 0,-276.26 225.24,-499.73 499.74,-499.73 274.5,0 499.73,225.23 499.73,499.73 1.76,276.27 -223.47,499.74 -499.73,499.74z"/>
  <path class="fil14" d="M4465.47 2882.36c-276.26,0 -499.74,-225.23 -499.74,-499.74 0,-276.26 225.24,-499.73 499.74,-499.73 274.5,0 499.73,225.23 499.73,499.73 0,274.51 -223.47,499.74 -499.73,499.74z"/>
  <path class="fil15" d="M4465.47 2882.36c-276.26,0 -499.74,-223.47 -499.74,-499.74 0,-276.26 223.48,-499.73 499.74,-499.73 276.26,0 499.73,223.47 499.73,499.73 0,274.51 -225.23,499.74 -499.73,499.74z"/>
  <path class="fil16" d="M4463.71 2880.6c-276.26,0 -499.73,-223.47 -499.73,-499.74 0,-276.26 223.47,-499.73 499.73,-499.73 276.26,0 499.73,223.47 499.73,499.73 0,276.27 -223.47,499.74 -499.73,499.74z"/>
  <path class="fil17" d="M4463.71 2880.6c-276.26,0 -499.73,-223.47 -499.73,-499.74 0,-276.26 223.47,-499.73 499.73,-499.73 276.26,0 499.73,223.47 499.73,499.73 0,276.27 -225.23,499.74 -499.73,499.74z"/>
  <path class="fil18" d="M4463.71 2880.6c-274.5,0 -499.73,-223.47 -499.73,-499.74 0,-274.5 223.47,-499.73 499.73,-499.73 274.5,0 499.73,223.47 499.73,499.73 -1.76,274.51 -225.23,499.74 -499.73,499.74z"/>
  <path class="fil19" d="M4461.95 2878.84c-274.5,0 -499.73,-223.47 -499.73,-499.73 0,-274.51 223.47,-499.74 499.73,-499.74 276.26,0 499.73,223.47 499.73,499.74 0,276.26 -225.23,499.73 -499.73,499.73z"/>
  <path class="fil20" d="M4461.95 2878.84c-274.5,0 -497.97,-223.47 -497.97,-497.98 0,-274.5 223.47,-497.97 497.97,-497.97 274.5,0 497.97,223.47 497.97,497.97 0,274.51 -223.47,497.98 -497.97,497.98z"/>
  <path class="fil21" d="M4460.19 2878.84c-274.5,0 -497.97,-223.47 -497.97,-497.98 0,-274.5 223.47,-497.97 497.97,-497.97 274.5,0 497.97,223.47 497.97,497.97 1.76,272.75 -221.71,497.98 -497.97,497.98z"/>
  <path class="fil22" d="M4460.19 2877.08c-274.5,0 -497.97,-223.47 -497.97,-497.97 0,-274.51 223.47,-497.98 497.97,-497.98 274.5,0 497.97,223.47 497.97,497.98 0,274.5 -223.47,497.97 -497.97,497.97z"/>
  <path class="fil23" d="M4958.16 2379.11c0,-275.03 -222.95,-497.98 -497.97,-497.98 -275.02,0 -497.97,222.95 -497.97,497.98 0,275.02 222.95,497.97 497.97,497.97 275.02,0 497.97,-222.95 497.97,-497.97z"/>
  <path class="fil24" d="M4458.43 2875.32c-274.5,0 -497.97,-223.47 -497.97,-497.97 0,-274.51 223.47,-497.98 497.97,-497.98 274.5,0 497.97,223.47 497.97,497.98 0,276.26 -223.47,497.97 -497.97,497.97z"/>
  <path class="fil25" d="M4458.43 2875.32c-274.5,0 -497.97,-223.47 -497.97,-497.97 0,-274.51 223.47,-497.98 497.97,-497.98 274.5,0 497.97,223.47 497.97,497.98 -1.76,274.5 -223.47,497.97 -497.97,497.97z"/>
  <path class="fil26" d="M4464.45 1882.56c-274.02,-4.31 -499.65,214.34 -503.96,488.37 -4.3,274.02 214.35,499.65 488.37,503.96 274.02,4.3 499.65,-214.35 503.96,-488.37 4.3,-274.03 -214.35,-499.66 -488.37,-503.96z"/>
  <path class="fil27" d="M4456.67 2873.56c-274.5,0 -496.21,-223.47 -496.21,-496.21 0,-274.51 223.47,-496.22 496.21,-496.22 274.5,0 496.21,223.47 496.21,496.22 0,274.5 -221.71,496.21 -496.21,496.21z"/>
  <path class="fil28" d="M4456.67 2873.56c-274.5,0 -496.21,-223.47 -496.21,-496.21 0,-274.51 223.47,-496.22 496.21,-496.22 274.5,0 496.21,223.47 496.21,496.22 0,274.5 -223.47,496.21 -496.21,496.21z"/>
  <path class="fil29" d="M4951.12 2377.35c0,-274.06 -222.16,-496.22 -496.21,-496.22 -274.05,0 -496.21,222.16 -496.21,496.22 0,274.05 222.16,496.21 496.21,496.21 274.05,0 496.21,-222.16 496.21,-496.21z"/>
  <path class="fil30" d="M4534.01 1886.85c-270.57,-43.52 -525.19,140.54 -568.71,411.11 -43.52,270.57 140.54,525.19 411.11,568.71 270.57,43.52 525.19,-140.54 568.71,-411.11 43.52,-270.57 -140.54,-525.19 -411.11,-568.71z"/>
  <path class="fil31" d="M4453.15 2871.8c-272.74,0 -496.21,-221.71 -496.21,-496.21 0,-272.75 221.71,-496.22 496.21,-496.22 274.5,0 496.21,221.71 496.21,496.22 0,274.5 -221.71,496.21 -496.21,496.21z"/>
  <path class="fil32" d="M4453.15 2871.8c-272.74,0 -494.45,-221.71 -494.45,-494.45 0,-272.75 221.71,-494.46 494.45,-494.46 272.74,0 494.45,221.71 494.45,494.46 0,272.74 -221.71,494.45 -494.45,494.45z"/>
  <path class="fil33" d="M4802.35 2025.67c-193.09,-193.09 -506.16,-193.09 -699.25,0 -193.1,193.1 -193.1,506.17 0,699.26 193.09,193.09 506.16,193.09 699.25,0 193.1,-193.09 193.1,-506.16 0,-699.26z"/>
  <path class="fil34" d="M4451.39 2870.04c-272.74,0 -494.45,-221.71 -494.45,-494.45 0,-272.75 221.71,-494.46 494.45,-494.46 272.74,0 494.45,221.71 494.45,494.46 0,272.74 -221.71,494.45 -494.45,494.45z"/>
  <path class="fil35" d="M4451.39 2870.04c-272.74,0 -494.45,-221.71 -494.45,-494.45 0,-272.75 221.71,-494.46 494.45,-494.46 272.74,0 494.45,221.71 494.45,494.46 0,272.74 -221.71,494.45 -494.45,494.45z"/>
  <path class="fil36" d="M4906.96 2182.8c-106.31,-251.53 -396.4,-369.26 -647.93,-262.95 -251.53,106.31 -369.26,396.4 -262.95,647.93 106.31,251.54 396.4,369.26 647.93,262.95 251.54,-106.31 369.26,-396.4 262.95,-647.93z"/>
  <path class="fil37" d="M4449.63 2868.28c-272.74,0 -494.45,-221.71 -494.45,-494.45 0,-272.75 221.71,-494.46 494.45,-494.46 272.74,0 494.46,221.71 494.46,494.46 0,272.74 -221.72,494.45 -494.46,494.45z"/>
  <path class="fil38" d="M4449.63 2868.28c-272.74,0 -492.69,-221.71 -492.69,-492.69 0,-272.75 221.71,-492.7 492.69,-492.7 270.98,0 492.7,221.71 492.7,492.7 0,270.98 -221.72,492.69 -492.7,492.69z"/>
  <path class="fil39" d="M4447.87 2866.52c-272.74,0 -492.69,-221.71 -492.69,-492.69 0,-272.75 221.71,-492.7 492.69,-492.7 272.74,0 492.7,221.71 492.7,492.7 1.76,272.74 -219.96,492.69 -492.7,492.69z"/>
  <path class="fil40" d="M4447.87 2866.52c-270.98,0 -492.69,-221.71 -492.69,-492.69 0,-270.99 221.71,-492.7 492.69,-492.7 270.98,0 492.7,221.71 492.7,492.7 0,270.98 -221.72,492.69 -492.7,492.69z"/>
  <path class="fil41" d="M4447.87 2866.52c-270.98,0 -492.69,-221.71 -492.69,-492.69 0,-270.99 221.71,-492.7 492.69,-492.7 270.98,0 492.7,221.71 492.7,492.7 0,270.98 -221.72,492.69 -492.7,492.69z"/>
  <path class="fil42" d="M4446.11 2864.76c-270.98,0 -492.69,-221.71 -492.69,-492.69 0,-270.99 221.71,-492.7 492.69,-492.7 270.98,0 492.7,219.96 492.7,492.7 0,272.74 -221.72,492.69 -492.7,492.69z"/>
  <path class="fil43" d="M4446.11 2864.76c-270.98,0 -492.69,-219.95 -492.69,-492.69 0,-270.99 219.95,-492.7 492.69,-492.7 272.74,0 492.7,219.96 492.7,492.7 -1.76,272.74 -221.72,492.69 -492.7,492.69z"/>
  <path class="fil44" d="M4460.92 1882.69c-270.98,-9.01 -497.94,203.36 -506.95,474.33 -9.01,270.97 203.36,497.94 474.33,506.95 270.98,9 497.94,-203.36 506.95,-474.34 9.01,-270.97 -203.36,-497.94 -474.33,-506.94z"/>
  <path class="fil45" d="M4444.35 2863c-270.98,0 -490.93,-219.95 -490.93,-490.93 0,-270.99 219.95,-490.94 490.93,-490.94 270.98,0 490.94,219.95 490.94,490.94 0,270.98 -219.96,490.93 -490.94,490.93z"/>
  <path class="fil46" d="M4444.35 2863c-270.98,0 -490.93,-219.95 -490.93,-490.93 0,-270.99 219.95,-490.94 490.93,-490.94 270.98,0 490.94,219.95 490.94,490.94 0,270.98 -219.96,490.93 -490.94,490.93z"/>
  <path class="fil47" d="M4933.53 2372.07c0,-271.14 -219.8,-490.94 -490.94,-490.94 -271.13,0 -490.93,219.8 -490.93,490.94 0,271.13 219.8,490.93 490.93,490.93 271.14,0 490.94,-219.8 490.94,-490.93z"/>
  <path class="fil48" d="M4442.59 2861.24c-270.98,0 -490.93,-219.95 -490.93,-490.93 0,-270.98 219.95,-490.94 490.93,-490.94 270.98,0 490.94,219.96 490.94,490.94 0,270.98 -219.96,490.93 -490.94,490.93z"/>
  <path class="fil49" d="M4440.83 2861.24c-270.98,0 -490.93,-219.95 -490.93,-490.93 0,-270.98 219.95,-490.94 490.93,-490.94 270.99,0 490.94,219.96 490.94,490.94 0,270.98 -219.95,490.93 -490.94,490.93z"/>
  <path class="fil50" d="M4440.83 2861.24c-270.98,0 -489.17,-219.95 -489.17,-489.17 0,-270.99 219.95,-489.18 489.17,-489.18 270.99,0 489.18,219.95 489.18,489.18 1.76,269.22 -218.19,489.17 -489.18,489.17z"/>
  <path class="fil51" d="M4440.83 2859.48c-269.22,0 -489.17,-219.95 -489.17,-489.17 0,-269.23 219.95,-489.18 489.17,-489.18 269.23,0 489.18,219.95 489.18,489.18 0,269.22 -219.95,489.17 -489.18,489.17z"/>
  <path class="fil52" d="M4439.07 2859.48c-269.22,0 -489.17,-219.95 -489.17,-489.17 0,-269.23 219.95,-489.18 489.17,-489.18 269.23,0 489.18,219.95 489.18,489.18 0,269.22 -218.19,489.17 -489.18,489.17z"/>
  <path class="fil53" d="M4439.07 2859.48c-269.22,0 -489.17,-219.95 -489.17,-489.17 0,-269.23 219.95,-489.18 489.17,-489.18 269.23,0 489.18,219.95 489.18,489.18 0,269.22 -219.95,489.17 -489.18,489.17z"/>
  <path class="fil54" d="M4439.07 2857.72c-269.22,0 -489.17,-219.95 -489.17,-489.17 0,-269.22 219.95,-489.18 489.17,-489.18 269.23,0 489.18,219.96 489.18,489.18 -1.76,270.98 -219.95,489.17 -489.18,489.17z"/>
  <path class="fil55" d="M4926.49 2368.55c0,-270.17 -219.01,-489.18 -489.18,-489.18 -270.16,0 -489.17,219.01 -489.17,489.18 0,270.16 219.01,489.17 489.17,489.17 270.17,0 489.18,-219.01 489.18,-489.17z"/>
  <path class="fil56" d="M4437.31 2857.72c-269.22,0 -487.41,-218.19 -487.41,-487.41 0,-269.23 218.19,-487.42 487.41,-487.42 269.23,0 487.42,218.19 487.42,487.42 0,267.46 -218.19,487.41 -487.42,487.41z"/>
  <path class="fil57" d="M4435.55 2855.96c-269.22,0 -487.41,-218.19 -487.41,-487.41 0,-269.22 218.19,-487.42 487.41,-487.42 269.23,0 487.42,218.2 487.42,487.42 1.76,269.22 -218.19,487.41 -487.42,487.41z"/>
  <path class="fil58" d="M4922.68 2355.15c-7.37,-269.09 -231.48,-481.25 -500.57,-473.88 -269.08,7.38 -481.24,231.48 -473.87,500.57 7.37,269.09 231.48,481.25 500.56,473.88 269.09,-7.37 481.25,-231.48 473.88,-500.57z"/>
  <path class="fil59" d="M4435.55 2854.2c-269.22,0 -487.41,-218.19 -487.41,-487.41 0,-269.22 218.19,-487.42 487.41,-487.42 269.23,0 487.42,218.2 487.42,487.42 0,269.22 -219.95,487.41 -487.42,487.41z"/>
  <path class="fil60" d="M4512.51 1886.41c-265.67,-43.51 -516.3,136.59 -559.8,402.26 -43.5,265.67 136.6,516.3 402.26,559.8 265.67,43.5 516.3,-136.6 559.8,-402.27 43.5,-265.66 -136.59,-516.29 -402.26,-559.79z"/>
  <path class="fil61" d="M4433.79 2854.2c-269.22,0 -487.41,-218.19 -487.41,-487.41 0,-269.22 218.19,-487.42 487.41,-487.42 269.23,0 487.42,218.2 487.42,487.42 -1.76,269.22 -219.95,487.41 -487.42,487.41z"/>
  <path class="fil62" d="M4432.03 2852.44c-267.46,0 -485.65,-218.19 -485.65,-485.65 0,-267.46 218.19,-487.42 485.65,-487.42 267.47,0 485.66,218.2 485.66,487.42 1.76,267.46 -216.43,485.65 -485.66,485.65z"/>
  <path class="fil63" d="M4432.03 2852.44c-267.46,0 -485.65,-218.19 -485.65,-485.65 0,-267.46 218.19,-485.66 485.65,-485.66 267.47,0 485.66,218.2 485.66,485.66 0,267.46 -218.19,485.65 -485.66,485.65z"/>
  <path class="fil64" d="M4432.03 2852.44c-267.46,0 -485.65,-218.19 -485.65,-485.65 0,-267.46 218.19,-485.66 485.65,-485.66 267.47,0 485.66,218.2 485.66,485.66 0,267.46 -218.19,485.65 -485.66,485.65z"/>
  <path class="fil65" d="M4430.28 2850.68c-267.47,0 -485.66,-218.19 -485.66,-485.65 0,-267.46 218.19,-485.66 485.66,-485.66 267.46,0 485.65,218.2 485.65,485.66 0,269.22 -218.19,485.65 -485.65,485.65z"/>
  <path class="fil66" d="M4430.28 2850.68c-267.47,0 -485.66,-218.19 -485.66,-485.65 0,-267.46 218.19,-485.66 485.66,-485.66 267.46,0 485.65,218.2 485.65,485.66 0,267.46 -218.19,485.65 -485.65,485.65z"/>
  <path class="fil67" d="M4428.52 2850.68c-267.47,0 -485.66,-218.19 -485.66,-485.65 0,-267.46 218.19,-485.66 485.66,-485.66 267.46,0 485.65,218.2 485.65,485.66 0,267.46 -218.19,485.65 -485.65,485.65z"/>
  <path class="fil68" d="M4428.52 2848.92c-267.47,0 -485.66,-218.19 -485.66,-485.65 0,-267.46 218.19,-485.66 485.66,-485.66 267.46,0 485.65,218.2 485.65,485.66 0,269.22 -218.19,485.65 -485.65,485.65z"/>
  <path class="fil69" d="M4428.52 2848.92c-267.47,0 -483.9,-218.19 -483.9,-483.89 0,-267.46 218.19,-483.9 483.9,-483.9 267.46,0 483.89,218.2 483.89,483.9 0,267.46 -216.43,483.89 -483.89,483.89z"/>
  <path class="fil70" d="M4426.76 2848.92c-267.47,0 -483.9,-216.43 -483.9,-483.89 0,-267.46 216.43,-483.9 483.9,-483.9 267.46,0 483.89,216.44 483.89,483.9 0,265.7 -216.43,483.89 -483.89,483.89z"/>
  <path class="fil71" d="M4910.69 2361.34c-1.08,-267.25 -218.6,-483.03 -485.85,-481.95 -267.25,1.07 -483.02,218.59 -481.95,485.84 1.08,267.25 218.6,483.03 485.85,481.95 267.25,-1.07 483.02,-218.59 481.95,-485.84z"/>
  <path class="fil72" d="M4426.76 2847.17c-267.47,0 -483.9,-216.44 -483.9,-483.9 0,-267.46 216.43,-483.9 483.9,-483.9 267.46,0 483.89,216.44 483.89,483.9 -1.76,267.46 -218.19,483.9 -483.89,483.9z"/>
  <path class="fil82 str0" d="M4426.76 2847.17c-267.47,0 -483.9,-216.44 -483.9,-483.9 0,-267.46 216.43,-483.9 483.9,-483.9 267.46,0 483.89,216.44 483.89,483.9 -1.76,267.46 -218.19,483.9 -483.89,483.9z"/>
  <path class="fil83" d="M4512.98 2586.74l-244.59 0c-56.31,0 -100.3,-45.75 -100.3,-100.3l0 -244.59c0,-56.3 45.75,-100.29 100.3,-100.29l244.59 0c56.31,0 100.3,45.75 100.3,100.29l0 244.59c0,54.55 -45.75,100.3 -100.3,100.3zm-244.59 -401.19c-31.67,0 -56.31,24.63 -56.31,56.3l0 244.59c0,31.68 24.64,56.31 56.31,56.31l244.59 0c31.67,0 56.31,-24.63 56.31,-56.31l0 -244.59c0,-31.67 -24.64,-56.3 -56.31,-56.3l-244.59 0zm123.17 293.85c-63.34,0 -114.37,-51.03 -114.37,-114.37 0,-63.35 51.03,-114.38 114.37,-114.38 63.35,0 114.38,51.03 114.38,114.38 0,63.34 -51.03,114.37 -114.38,114.37zm0 -184.76c-38.71,0 -70.38,31.68 -70.38,70.39 0,38.71 31.67,70.38 70.38,70.38 38.72,0 70.39,-31.67 70.39,-70.38 0,-38.71 -31.67,-70.39 -70.39,-70.39zm119.66 -73.9c-15.84,0 -29.92,12.32 -29.92,29.91 0,15.84 12.32,29.92 29.92,29.92 15.83,0 29.91,-12.32 29.91,-29.92 -1.76,-15.83 -14.08,-29.91 -29.91,-29.91z"/>
 </g>
</svg>
