<?xml version="1.0" encoding="UTF-8"?>
<!DOCTYPE svg PUBLIC "-//W3C//DTD SVG 1.1//EN" "http://www.w3.org/Graphics/SVG/1.1/DTD/svg11.dtd">
<!-- Creator: CorelDRAW 2018 (64 Bit Versión de evaluación) -->
<svg xmlns="http://www.w3.org/2000/svg" xml:space="preserve" width="3840px" height="2160px" version="1.1" style="shape-rendering:geometricPrecision; text-rendering:geometricPrecision; image-rendering:optimizeQuality; fill-rule:evenodd; clip-rule:evenodd"
viewBox="0 0 3840 2160"
 xmlns:xlink="http://www.w3.org/1999/xlink">
 <defs>
  <style type="text/css">
   <![CDATA[
    .fil0 {fill:#201E1E}
   ]]>
  </style>
 </defs>
 <g id="Capa_x0020_1">
  <metadata id="CorelCorpID_0Corel-Layer"/>
  <path class="fil0" d="M2103.6 843.49l0 89.13 178.25 0 -14.85 193.11 -163.4 0 0 549.6 -222.81 0 0 -549.6 -103.98 0 0 -193.11 103.98 0c0,-342.06 90.71,-356.5 401.06,-356.5l0 193.11 -163.4 0c-7.76,33.31 -14.85,34.15 -14.85,74.26zm-1024.94 193.11c0,366.34 107.07,616.23 396.85,836.04 38.69,29.36 98.05,66.5 139.71,83.1 315.21,125.67 513,125.67 828.22,0 129.11,-51.47 278.9,-195.69 362.51,-305.91 143.15,-188.7 174.05,-378.59 174.05,-613.23 0,-150.29 -47.92,-246.76 -90.94,-354.68 -63.04,-158.14 -287.5,-382.6 -445.62,-445.64 -315.22,-125.65 -513.01,-125.65 -828.22,0 -41.66,16.62 -101.02,53.76 -139.71,83.11 -55.27,41.94 -70.38,56.6 -118.29,104.51 -69.86,69.86 -150.14,163.97 -187.62,258.02 -43.02,107.92 -90.94,204.39 -90.94,354.68z"/>
 </g>
</svg>
