<?xml version="1.0" encoding="UTF-8"?>
<!DOCTYPE svg PUBLIC "-//W3C//DTD SVG 1.1//EN" "http://www.w3.org/Graphics/SVG/1.1/DTD/svg11.dtd">
<!-- Creator: CorelDRAW 2018 (64 Bit Versión de evaluación) -->
<svg xmlns="http://www.w3.org/2000/svg" xml:space="preserve" width="3840px" height="2160px" version="1.1" style="shape-rendering:geometricPrecision; text-rendering:geometricPrecision; image-rendering:optimizeQuality; fill-rule:evenodd; clip-rule:evenodd"
viewBox="0 0 3840 2160"
 xmlns:xlink="http://www.w3.org/1999/xlink">
 <defs>
  <style type="text/css">
   <![CDATA[
    .fil0 {fill:#FEFEFE}
   ]]>
  </style>
 </defs>
 <g id="Capa_x0020_1">
  <metadata id="CorelCorpID_0Corel-Layer"/>
  <g id="_2035549213216">
   <path class="fil0" d="M1348.74 1436.88l0 -673.75c0,-127.46 86.93,-214.37 214.39,-214.37l673.74 0c127.46,0 214.39,86.91 214.39,214.37l0 673.75c0,127.45 -86.93,214.38 -214.39,214.38l-673.74 0c-127.46,0 -214.39,-86.93 -214.39,-214.38zm-428.74 -398.13c0,257.44 0.83,255.05 93.74,488.14 53.06,133.1 201.74,287.51 315.36,373.71 194.52,147.55 390.26,179.4 632.15,179.4 154.93,0 254.37,-49.38 365.64,-93.74 278.37,-110.97 553.11,-493.36 553.11,-825 0,-320.82 -63.56,-530.52 -287.15,-754.11 -223.59,-223.59 -433.29,-287.15 -754.1,-287.15 -154.93,0 -254.36,49.39 -365.64,93.74 -42.94,17.13 -104.13,55.42 -144.01,85.68 -227.42,172.51 -409.1,445.4 -409.1,739.33z"/>
   <path class="fil0" d="M1440.62 1023.45c0,633.21 -101.71,535.93 750.32,535.93 222.87,0 168.44,-212.88 168.44,-535.93 0,-70.24 -108.54,-45.95 -183.75,-45.95 24.45,104.98 39.03,206 -27.2,294.37 -150.49,200.81 -493.05,173.12 -543.93,-137.82 -8.82,-53.98 4.6,-90.98 19.87,-156.55 -75.21,0 -183.75,-24.29 -183.75,45.95z"/>
   <path class="fil0" d="M1700.94 1084.69c0,284.12 398.12,284.12 398.12,0 0,-241.62 -398.12,-241.62 -398.12,0z"/>
   <path class="fil0" d="M2129.69 824.38c0,35.29 10.66,45.93 45.94,45.93l153.12 0 0 -199.06 -199.06 0 0 153.13z"/>
  </g>
 </g>
</svg>
