<?xml version="1.0" encoding="UTF-8"?>
<!DOCTYPE svg PUBLIC "-//W3C//DTD SVG 1.1//EN" "http://www.w3.org/Graphics/SVG/1.1/DTD/svg11.dtd">
<!-- Creator: CorelDRAW 2017 -->
<svg xmlns="http://www.w3.org/2000/svg" xml:space="preserve" width="325.12mm" height="182.88mm" version="1.1" style="shape-rendering:geometricPrecision; text-rendering:geometricPrecision; image-rendering:optimizeQuality; fill-rule:evenodd; clip-rule:evenodd"
viewBox="0 0 32511980 18287980"
 xmlns:xlink="http://www.w3.org/1999/xlink">
 <defs>
  <style type="text/css">
   <![CDATA[
    .fil0 {fill:#201E1E}
   ]]>
  </style>
 </defs>
 <g id="Capa_x0020_1">
  <metadata id="CorelCorpID_0Corel-Layer"/>
  <path class="fil0" d="M19793660 6591330c375070,-8420 448880,-55630 738750,-123180 -207240,391600 -256920,416140 -738750,738750 0,5609250 -5891210,6192900 -7633440,4678550 830930,0 1986320,-212070 2462400,-861820 -893550,-19910 -1284320,-510470 -1600580,-1108070 632820,-14070 353620,111470 615680,-246260 -1218320,-283820 -1138250,-1150150 -1354330,-1600570 289880,67540 363580,114760 738650,123170 -779090,-1163500 -800850,-1015270 -492400,-2339320 624400,418180 1561470,1846830 3816620,1846830 -44340,-533870 -207340,-1156220 563840,-1775590 1120910,-900220 1920220,-222750 2514240,175010 231980,-111370 717910,-307120 984890,-369320 -258460,488490 -355250,473000 -615570,861820zm-11326990 1969900c0,3036400 887490,5107610 3289320,6929590 1564040,1186400 3137920,1442500 5082780,1442500 1357400,0 3092440,-679830 4097870,-1442500 2401830,-1821980 3289320,-3893190 3289320,-6929590 0,-1357400 -679830,-3092450 -1442500,-4097880 -1821980,-2401830 -3893300,-3289320 -6929600,-3289320 -1245720,0 -2045240,397150 -2939910,753740 -2238210,892310 -4447280,3966790 -4447280,6633460z"/>
 </g>
</svg>
