<?xml version="1.0" encoding="UTF-8"?>
<!DOCTYPE svg PUBLIC "-//W3C//DTD SVG 1.1//EN" "http://www.w3.org/Graphics/SVG/1.1/DTD/svg11.dtd">
<!-- Creator: CorelDRAW 2018 (64 Bit Versión de evaluación) -->
<svg xmlns="http://www.w3.org/2000/svg" xml:space="preserve" width="3840px" height="2160px" version="1.1" style="shape-rendering:geometricPrecision; text-rendering:geometricPrecision; image-rendering:optimizeQuality; fill-rule:evenodd; clip-rule:evenodd"
viewBox="0 0 3840 2160"
 xmlns:xlink="http://www.w3.org/1999/xlink">
 <defs>
  <style type="text/css">
   <![CDATA[
    .fil0 {fill:#201E1E}
   ]]>
  </style>
 </defs>
 <g id="Capa_x0020_1">
  <metadata id="CorelCorpID_0Corel-Layer"/>
  <g id="_2000445811264">
   <path class="fil0" d="M1627.57 584.69c0,-327.41 485.12,-323.64 485.12,0 0,320.8 -485.12,320.8 -485.12,0zm-272.87 30.32c0,283.99 382.19,896.14 515.44,985.37 46.24,-30.98 129.98,-149.37 163.82,-200l149.51 -229.47c149.55,-285.8 333.25,-631.82 54.29,-908.38 -298.93,-296.37 -705.31,-150.59 -835.48,142.34 -16.35,36.77 -47.58,163.39 -47.58,210.14z"/>
   <path class="fil0" d="M899.92 1706.49c0,297.91 780.89,333.51 1015.69,333.51 216.56,0 924.72,-53.36 924.72,-333.51 0,-154.87 -506.09,-272.87 -697.32,-272.87 -14.99,28.31 -27.46,51.52 -45.33,75.96 -33.94,46.46 -40.14,24.74 -45.64,90.8 128.14,0 217.18,12.14 327.42,36.4l208.9 63.97c20.23,10.19 12.72,5.16 29.53,15.94 34.47,22.12 6.64,3.83 25.37,20.12 -119.13,27.75 -116.64,55.91 -357.39,97.39l-415.73 39.05c-159.71,0 -444.22,-36.09 -603.57,-78.63 -56.12,-14.98 -116.07,-45.35 -169.57,-57.81 23.12,-20.11 -13.6,4.1 25.37,-20.12 129.18,-80.28 417.38,-116.31 565.84,-116.31 -8.05,-96.73 -66.16,-73.93 -90.94,-166.76 -172.98,0 -524.36,73.92 -643.8,189.97 -2.23,2.18 -5.29,5.47 -7.43,7.74 -17.32,18.29 -46.12,46.34 -46.12,75.16z"/>
   <path class="fil0" d="M1748.85 554.37c0,208.64 242.55,208.64 242.55,0 0,-37.7 -37.9,-57.01 -60.64,-90.96l-121.27 0c-22.73,33.95 -60.64,53.26 -60.64,90.96z"/>
  </g>
 </g>
</svg>
